<?xml version="1.0" encoding="UTF-8" standalone="no"?>
<svg
   xmlns:dc="http://purl.org/dc/elements/1.1/"
   xmlns:cc="http://creativecommons.org/ns#"
   xmlns:rdf="http://www.w3.org/1999/02/22-rdf-syntax-ns#"
   xmlns:svg="http://www.w3.org/2000/svg"
   xmlns="http://www.w3.org/2000/svg"
   xmlns:sodipodi="http://sodipodi.sourceforge.net/DTD/sodipodi-0.dtd"
   xmlns:inkscape="http://www.inkscape.org/namespaces/inkscape"
   width="108.37334mm"
   height="81.280006mm"
   viewBox="0 0 108.37334 81.280006"
   version="1.1"
   id="svg8"
   inkscape:version="1.0.2 (e86c8708, 2021-01-15)"
   sodipodi:docname="5.svg">
  <defs
     id="defs2" />
  <sodipodi:namedview
     id="base"
     pagecolor="#ffffff"
     bordercolor="#666666"
     borderopacity="1.0"
     inkscape:pageopacity="0.0"
     inkscape:pageshadow="2"
     inkscape:zoom="3.6881508"
     inkscape:cx="204.79999"
     inkscape:cy="153.60001"
     inkscape:document-units="mm"
     inkscape:current-layer="layer1"
     inkscape:document-rotation="0"
     showgrid="false"
     fit-margin-top="0"
     fit-margin-left="0"
     fit-margin-right="0"
     fit-margin-bottom="0"
     inkscape:window-width="2560"
     inkscape:window-height="1323"
     inkscape:window-x="1920"
     inkscape:window-y="25"
     inkscape:window-maximized="1" />
  <metadata
     id="metadata5">
    <rdf:RDF>
      <cc:Work
         rdf:about="">
        <dc:format>image/svg+xml</dc:format>
        <dc:type
           rdf:resource="http://purl.org/dc/dcmitype/StillImage" />
        <dc:title></dc:title>
      </cc:Work>
    </rdf:RDF>
  </metadata>
  <g
     inkscape:label="Layer 1"
     inkscape:groupmode="layer"
     id="layer1"
     transform="translate(-494.63477,-288.95523)">
    <path
       style="fill:none;stroke:#dd16c9;stroke-width:0.26458300000000001px;stroke-linecap:butt;stroke-linejoin:miter;stroke-opacity:1"
       d="m 572.83001,344.55276 c -0.44066,-1.05159 -1.36269,-1.9359 -1.72173,-3.01302 -0.0743,-0.22286 -0.0169,-0.53601 -0.14348,-0.78913 -0.22273,-0.44547 -0.6026,-0.75325 -0.78912,-1.21956 -0.0678,-0.16939 -0.0912,-0.80861 -0.21522,-0.9326 -0.66366,-0.66366 -0.75014,-2.25042 -0.9326,-2.79782 -0.0922,-0.27669 -0.39878,-0.65408 -0.50218,-0.86086 -0.25294,-0.50589 0.2426,-0.92222 0.14348,-1.21956 -0.0495,-0.14862 -1.3586,-1.14339 -1.50651,-1.2913 -0.0872,-0.0872 -0.26805,-0.69847 -0.43044,-0.86086 -0.19279,-0.19279 -0.51734,-0.2616 -0.64564,-0.50217 -0.18628,-0.34926 -0.22228,-0.79619 -0.50217,-1.07609 -0.28936,-0.28935 -0.5646,-0.69875 -0.78913,-1.14781 -0.15185,-0.30371 0.49535,-0.45089 0.28695,-1.07608 -0.46713,-1.4014 -0.35869,-2.61786 -0.35869,-4.08911 0,-0.39374 -0.0954,-0.90957 0,-1.2913 0.0705,-0.28217 0.38497,-0.2415 0.57391,-0.43043 0.27258,-0.27259 1.24898,-2.59549 0.9326,-3.22825 -0.17449,-0.34899 -0.48423,-0.98641 -0.71738,-1.21956 -0.31612,-0.31612 -0.79025,-0.57615 -1.00435,-1.00434 -0.12436,-0.24872 -0.43043,-1.03165 -0.43043,-1.07608 0,-0.0886 -0.99061,-1.12036 -1.14782,-1.43478 -0.0796,-0.15918 -0.0195,-0.20115 -0.14348,-0.28695 -1.2872,-0.89114 -2.10571,-0.88616 -3.1565,-1.93695 -0.38131,-0.3813 -0.7204,-1.00735 -1.14782,-1.43477 -0.0378,-0.0378 -0.0183,-0.14348 -0.0717,-0.14348 -0.74421,0 -2.68562,-2.65433 -3.08477,-2.65433"
       id="path885" />
  </g>
</svg>
