<?xml version="1.0" encoding="UTF-8" standalone="no"?>
<svg
   xmlns:dc="http://purl.org/dc/elements/1.1/"
   xmlns:cc="http://creativecommons.org/ns#"
   xmlns:rdf="http://www.w3.org/1999/02/22-rdf-syntax-ns#"
   xmlns:svg="http://www.w3.org/2000/svg"
   xmlns="http://www.w3.org/2000/svg"
   xmlns:sodipodi="http://sodipodi.sourceforge.net/DTD/sodipodi-0.dtd"
   xmlns:inkscape="http://www.inkscape.org/namespaces/inkscape"
   sodipodi:docname="15.svg"
   inkscape:version="1.0 (4035a4f, 2020-05-01)"
   id="svg602"
   version="1.1"
   viewBox="0 0 451.55557 338.66666"
   height="338.66666mm"
   width="451.55557mm">
  <defs
     id="defs596" />
  <sodipodi:namedview
     inkscape:window-maximized="0"
     inkscape:window-y="0"
     inkscape:window-x="1680"
     inkscape:window-height="1440"
     inkscape:window-width="2560"
     inkscape:snap-global="false"
     fit-margin-bottom="0"
     fit-margin-right="0"
     fit-margin-left="0"
     fit-margin-top="0"
     showgrid="false"
     inkscape:document-rotation="0"
     inkscape:current-layer="layer1"
     inkscape:document-units="mm"
     inkscape:cy="639.99998"
     inkscape:cx="653.33336"
     inkscape:zoom="0.96250003"
     inkscape:pageshadow="2"
     inkscape:pageopacity="0.0"
     borderopacity="1.0"
     bordercolor="#666666"
     pagecolor="#ffffff"
     id="base" />
  <metadata
     id="metadata599">
    <rdf:RDF>
      <cc:Work
         rdf:about="">
        <dc:format>image/svg+xml</dc:format>
        <dc:type
           rdf:resource="http://purl.org/dc/dcmitype/StillImage" />
        <dc:title></dc:title>
      </cc:Work>
    </rdf:RDF>
  </metadata>
  <g
     transform="translate(118.43256,-6.0476298)"
     id="layer1"
     inkscape:groupmode="layer"
     inkscape:label="Layer 1">
    <path
       id="path670"
       d="m 132.81851,219.91342 c -1.46609,0 -1.46609,0 0,0 z"
       style="fill:none;stroke:#000000;stroke-width:0.264583px;stroke-linecap:butt;stroke-linejoin:miter;stroke-opacity:1" />
    <path
       id="path682"
       d="m 80.589077,119.57793 c -0.230331,4.73193 6.526159,5.97637 9.896104,9.34632 0.92783,0.92783 3.891931,-0.50634 4.94805,0.54978 1.764818,1.76482 -1.318715,6.98187 -3.298701,7.97186 -0.445773,0.22289 -1.28574,0.7951 -3.023809,1.37446 -3.493931,1.16465 -6.830631,5.22295 -6.047618,5.22295 0.388755,0 -0.501211,-0.60904 -0.824675,-0.82468"
       style="fill:none;stroke:#dd16c9;stroke-width:1;stroke-linecap:butt;stroke-linejoin:miter;stroke-opacity:1;stroke-miterlimit:4;stroke-dasharray:none" />
    <path
       id="path690"
       d="m 88.560938,143.7684 c 2.537867,-0.092 5.222944,1.71794 5.222944,3.84849 0,1.74431 -8.521645,0.74633 -8.521645,2.47402 0,2.29525 7.153127,4.12338 9.896102,4.12338 1.570842,0 8.097951,3.21294 9.071431,4.67316 1.17426,1.7614 1.45641,4.71414 3.57359,5.77273 5.14909,2.57454 9.43743,4.48937 13.4697,8.52164 0.96148,0.96148 3.91486,0.72042 5.22294,1.37446 0.61401,0.307 0.42416,3.2987 0.82468,3.2987 1.2472,0 4.88718,2.0774 5.49783,3.2987 0.77158,1.54316 -1.64935,9.32418 -1.64935,11.82035 0,0.0365 -0.1584,2.08264 -0.27489,2.19913 -1.12843,1.12843 -1.10281,1.65585 -1.92424,3.29871 -0.67404,1.34808 9.42647,0.11459 6.87229,5.22294 -1.56503,3.13005 -7.65258,4.77049 -8.52164,8.24675 -0.53292,2.13167 5.06394,3.10107 6.5974,4.12338 0.59204,0.39469 1.35093,1.71994 1.09957,2.47402 -0.11809,0.35426 -1.59662,1.15231 -1.37446,1.37446 0.43595,0.43596 6.12056,-1.19374 -3.2987,0.82468"
       style="fill:none;stroke:#dd16c9;stroke-width:1;stroke-linecap:butt;stroke-linejoin:miter;stroke-opacity:1;stroke-miterlimit:4;stroke-dasharray:none" />
  </g>
</svg>
