<?xml version="1.0" encoding="UTF-8" standalone="no"?>
<svg
   xmlns:dc="http://purl.org/dc/elements/1.1/"
   xmlns:cc="http://creativecommons.org/ns#"
   xmlns:rdf="http://www.w3.org/1999/02/22-rdf-syntax-ns#"
   xmlns:svg="http://www.w3.org/2000/svg"
   xmlns="http://www.w3.org/2000/svg"
   xmlns:sodipodi="http://sodipodi.sourceforge.net/DTD/sodipodi-0.dtd"
   xmlns:inkscape="http://www.inkscape.org/namespaces/inkscape"
   sodipodi:docname="32.svg"
   inkscape:version="1.0 (4035a4f, 2020-05-01)"
   id="svg1587"
   version="1.1"
   viewBox="0 0 451.55557 338.66666"
   height="338.66666mm"
   width="451.55557mm">
  <defs
     id="defs1581" />
  <sodipodi:namedview
     inkscape:window-maximized="0"
     inkscape:window-y="26"
     inkscape:window-x="1680"
     inkscape:window-height="1414"
     inkscape:window-width="2560"
     fit-margin-bottom="0"
     fit-margin-right="0"
     fit-margin-left="0"
     fit-margin-top="0"
     showgrid="false"
     inkscape:document-rotation="0"
     inkscape:current-layer="layer1"
     inkscape:document-units="mm"
     inkscape:cy="639.99998"
     inkscape:cx="853.33337"
     inkscape:zoom="0.94218753"
     inkscape:pageshadow="2"
     inkscape:pageopacity="0.0"
     borderopacity="1.0"
     bordercolor="#666666"
     pagecolor="#ffffff"
     id="base" />
  <metadata
     id="metadata1584">
    <rdf:RDF>
      <cc:Work
         rdf:about="">
        <dc:format>image/svg+xml</dc:format>
        <dc:type
           rdf:resource="http://purl.org/dc/dcmitype/StillImage" />
        <dc:title></dc:title>
      </cc:Work>
    </rdf:RDF>
  </metadata>
  <g
     transform="translate(349.75397,-68.791672)"
     id="layer1"
     inkscape:groupmode="layer"
     inkscape:label="Layer 1">
    <path
       id="path2218"
       d="m -113.30511,268.73417 c -2.00443,1.14789 -2.85485,3.16705 -5.61637,2.24655 -2.42557,-0.80853 -5.17651,-2.02662 -7.30127,-3.089 -0.97958,-0.48979 -2.64936,-0.0806 -3.65063,-0.28082 -3.60917,-0.72183 -7.86934,-2.10935 -10.95191,-3.65063 -1.09213,-0.54607 -3.15439,1.42043 -4.21227,1.6849 -1.92169,0.48043 -3.84261,-0.53421 -5.61636,-0.28082 -1.48453,0.21208 -4.33706,1.3417 -5.89718,0.56164 -2.87743,-1.43871 -4.80561,-1.60187 -6.73964,-2.24654 -1.63876,-0.54626 -0.35146,-1.29901 -1.68491,-1.96573 -0.34232,-0.17116 -4.75845,-1.49255 -7.02045,-2.24654 -2.74167,-0.91389 -6.13147,0.43285 -8.98618,-0.28082 -6.44393,-1.61099 -9.40047,-2.89382 -15.445,-1.68491 -0.64095,0.12819 -1.4226,-0.26231 -1.96572,0.28082 -0.75998,0.75997 2.07163,3.43881 1.96572,3.65063 -0.23024,0.46049 -0.66621,0.48998 -1.12327,1.40409 -0.31744,0.63488 0.0284,1.62807 -0.28082,2.24655 -0.80067,1.60135 -2.78717,1.34105 -3.36982,3.089 -0.20202,0.60608 -3.51989,3.38915 -3.65063,3.65063 -0.32361,0.64722 -0.32541,1.53787 -0.56164,2.24655 -0.0592,0.1776 0,0.74885 0,0.56163 0,-0.18721 0,-0.74884 0,-0.56163 0,1.48245 0,1.29208 0,2.24654 0,0.18721 0,0.74885 0,0.56164 0,-0.18721 0.13238,-0.69402 0,-0.56164 -0.85034,0.85035 -3.51412,4.28443 -3.93145,4.49309 -1.25106,0.62553 -2.33357,1.58801 -3.65064,2.24655 -2.94862,1.47431 -7.26611,1.36893 -9.82863,3.93145 -0.95153,0.95153 1.88888,5.97403 1.40409,6.45882 -0.87767,0.87766 -3.03385,2.97869 -3.93145,4.77391 -0.91868,1.83734 -0.26609,3.68746 -0.28082,3.65063 -0.21987,-0.54967 -0.37443,-1.12327 -0.56164,-1.68491"
       style="fill:none;stroke:#dd16c9;stroke-width:1;stroke-linecap:butt;stroke-linejoin:miter;stroke-opacity:1;stroke-miterlimit:4;stroke-dasharray:none" />
    <path
       id="path2220"
       d="m -168.34547,347.64406 c 0.91411,-0.30887 1.88153,0.13237 2.80819,0 4.51498,-0.645 8.76199,-2.41509 13.47927,-3.08898 7.49827,-1.0712 14.96997,-2.15207 22.46545,-3.08901 4.21001,-0.52626 8.34636,-2.80819 12.35599,-2.80819 1.01374,0 2.51647,-0.558 3.36982,-0.84246 2.2916,-0.76385 5.57139,0.0114 7.86291,-0.56163 0.14711,-0.0368 2.52736,-0.0738 2.52736,-0.28083 0,-0.40039 -9.65341,2.14096 -8.42454,3.36984 0.77489,0.77489 5.04315,-0.13898 6.178,-0.28082 8.001468,-1.00018 16.150573,-0.87077 24.150343,-1.4041 0.759328,-0.0506 7.781792,-0.43994 6.739652,1.12327 -1.688703,2.53304 -7.323323,2.23004 -9.828636,2.80818 -1.990299,0.45931 -10.59217,4.13335 -12.075184,5.61636 -0.731086,0.7311 2.055088,0.28083 3.089,0.28083 2.444382,0 4.616323,-0.62389 7.020454,-0.84246 3.691951,-0.33562 7.698669,-1.64383 11.232735,-2.52735 3.191748,-0.79796 6.885675,-0.8753 10.109438,-1.12329 4.994116,-0.38415 10.144786,0.83854 15.16417,0.28083 6.96124,-0.77349 14.623812,-3.32656 21.62302,-4.4931 8.037274,-1.33954 16.099948,-1.52107 24.1503457,-2.52736 2.6645923,-0.33308 19.9752743,-2.92999 21.9038223,-1.96572 0.374412,0.18722 -0.726149,0.42926 -1.123289,0.56163 -1.691111,0.5637 -3.367537,1.12252 -5.054732,1.68492 -0.99351,0.33115 -2.2789885,0.62651 -2.8081552,1.6849 -0.083741,0.16745 0,0.74885 0,0.56163 0,-1.33345 -0.3475037,0.46064 0.5616311,0.56165 0.6512189,0.0723 1.3104811,0 1.9657221,0 1.793081,0 2.582545,-0.0209 4.493074,0.28081 2.815141,0.4445 5.603478,1.70926 8.424545,1.96572 1.337575,0.1216 3.154548,-0.33462 4.493102,0 2.269357,0.56734 5.756751,3.08911 5.054732,5.89719 -0.194548,0.77822 -0.07078,2.15368 -0.561631,2.80818 -2.885811,3.84773 -9.831414,4.02553 -14.321737,4.77391 -3.621352,0.60356 -8.356468,2.86895 -12.0751865,3.93144 -1.0792619,0.30837 -2.3763816,0.0649 -3.3698127,0.56166 -0.7198518,0.35991 -1.2383029,0.67664 -1.123262,0.56163 0.2453746,-0.24538 -0.2808288,-0.45196 -0.2808288,-0.56163 0,-0.26477 0.5616311,-0.29689 0.5616311,-0.56166 0,-0.18719 -0.3744119,0 -0.5616311,0 -0.93606933,0 -1.87211224,0 -2.8081816,0 -3.2156664,0 -6.2441401,0.95813 -9.2670044,1.96575 -2.246233,0.74874 -5.216631,-0.0571 -7.582085,0.2808 -1.322494,0.18894 -2.660624,0.63066 -3.931444,0.84246 -4.847431,0.8079 -9.744181,1.64401 -14.602539,2.52735 -0.42926,0.0781 -3.650642,-0.15441 -3.650642,0.84246 0,0.29028 4.903497,0.38344 5.616364,0.56163 2.299864,0.57497 5.00499,1.67249 7.301282,2.24655 3.734806,0.93372 9.231366,-0.59727 11.794358,1.96573 1.066615,1.06664 8.6291471,6.76468 6.1779943,9.82863 -1.8955283,2.36942 -8.6608443,6.35606 -7.8629143,9.54783 0.597588,2.39033 5.095769,5.17568 7.0204545,6.4588 1.1745383,0.78304 2.8471812,1.12329 2.5273529,1.12329 -0.2808023,0 -0.5616311,0 -0.8424334,0"
       style="fill:none;stroke:#dd16c9;stroke-width:1;stroke-linecap:butt;stroke-linejoin:miter;stroke-opacity:1;stroke-miterlimit:4;stroke-dasharray:none" />
  </g>
</svg>
