<?xml version="1.0" encoding="UTF-8" standalone="no"?>
<svg
   xmlns:dc="http://purl.org/dc/elements/1.1/"
   xmlns:cc="http://creativecommons.org/ns#"
   xmlns:rdf="http://www.w3.org/1999/02/22-rdf-syntax-ns#"
   xmlns:svg="http://www.w3.org/2000/svg"
   xmlns="http://www.w3.org/2000/svg"
   xmlns:sodipodi="http://sodipodi.sourceforge.net/DTD/sodipodi-0.dtd"
   xmlns:inkscape="http://www.inkscape.org/namespaces/inkscape"
   sodipodi:docname="37.svg"
   inkscape:version="1.0 (4035a4f, 2020-05-01)"
   id="svg2246"
   version="1.1"
   viewBox="0 0 451.55557 338.66666"
   height="338.66666mm"
   width="451.55557mm">
  <defs
     id="defs2240" />
  <sodipodi:namedview
     inkscape:window-maximized="0"
     inkscape:window-y="26"
     inkscape:window-x="1680"
     inkscape:window-height="1414"
     inkscape:window-width="2560"
     fit-margin-bottom="0"
     fit-margin-right="0"
     fit-margin-left="0"
     fit-margin-top="0"
     showgrid="false"
     inkscape:document-rotation="0"
     inkscape:current-layer="layer1"
     inkscape:document-units="mm"
     inkscape:cy="639.99999"
     inkscape:cx="649.0216"
     inkscape:zoom="0.94218753"
     inkscape:pageshadow="2"
     inkscape:pageopacity="0.0"
     borderopacity="1.0"
     bordercolor="#666666"
     pagecolor="#ffffff"
     id="base" />
  <metadata
     id="metadata2243">
    <rdf:RDF>
      <cc:Work
         rdf:about="">
        <dc:format>image/svg+xml</dc:format>
        <dc:type
           rdf:resource="http://purl.org/dc/dcmitype/StillImage" />
        <dc:title></dc:title>
      </cc:Work>
    </rdf:RDF>
  </metadata>
  <g
     transform="translate(352.02182,-103.56548)"
     id="layer1"
     inkscape:groupmode="layer"
     inkscape:label="Layer 1">
    <path
       id="path2873"
       d="m -405.65808,294.5218 c -0.37443,-0.0936 -0.74885,-0.18721 -1.12327,-0.28082"
       style="fill:none;stroke:#000000;stroke-width:0.264583px;stroke-linecap:butt;stroke-linejoin:miter;stroke-opacity:1" />
    <path
       id="path2875"
       d="m -202.06494,278.51517 c 2.5898,1.87436 3.45767,4.95824 6.45881,6.45881 0.62966,0.31483 0.63801,1.30187 1.40409,1.68491 1.08447,0.54224 2.59721,2.38769 2.24655,3.089 -0.52119,1.04237 -2.82729,2.8273 -3.65064,3.65064 -0.0121,0.0121 -1.43334,0.84245 -1.12327,0.84245 0.0397,0 -2.10366,0.69958 -2.52736,1.12328 -0.55175,0.55174 -1.15747,1.47247 -1.68491,2.52736 -0.93833,1.87665 0.74214,5.51605 0.84245,5.61636 0.55383,0.55383 -0.5513,2.27755 0,3.93145 0.26648,0.79944 2.62879,2.42595 1.40409,3.65064 -1.37368,1.37369 -6.12503,1.63195 -7.02045,2.52736 -2.1558,2.1558 2.67962,4.06001 1.68491,5.05473 -0.26476,0.26476 -0.0908,-0.76003 0,-1.12327"
       style="fill:none;stroke:#dd16c9;stroke-width:1;stroke-linecap:butt;stroke-linejoin:miter;stroke-opacity:1;stroke-miterlimit:4;stroke-dasharray:none" />
    <path
       id="path2877"
       d="m -180.16113,327.37752 c -1.99133,2.07287 -2.07325,2.41984 -1.12327,3.36982 0.23401,0.23401 -0.23402,1.17007 0,1.40409 0.43783,0.43784 3.73366,2.44433 2.24654,3.93145 -0.98054,0.98055 -7.05336,2.84109 -7.58209,3.36982 -0.51291,0.51291 -1.04092,1.60256 -1.68491,2.24655 -1.33063,1.33063 -4.81503,1.4178 -6.45881,1.96572 -0.63483,0.21161 -0.7101,1.27174 -1.12328,1.68491 -0.29734,0.29734 -8.73052,0.2934 -10.39027,1.12327 -1.43603,0.71802 -1.3757,2.37276 -2.24654,2.80819 -2.82592,1.41295 -5.08382,2.57901 -8.14373,3.08899 -2.4544,0.40907 -6.38228,-1.10414 -8.70536,-1.6849 -3.87202,-0.96801 -4.38674,1.3775 -6.73963,1.96572 -1.54683,0.38671 -2.6036,-0.4854 -3.93146,0.84246 -2.84223,2.84223 -0.8074,7.51199 -0.84245,7.58209 -1.41804,2.83607 -0.19132,2.71868 -3.089,5.61636 -0.20711,0.20711 0.0827,1.80028 -0.56164,3.08899 -1.46474,2.92949 2.02842,4.36772 0.56164,7.30128 -0.78352,1.56703 -0.66766,2.45859 -0.84246,2.80819 -0.4528,0.90561 -1.6849,1.51484 -1.6849,2.52735 0,0.37444 0.16744,0.78838 0,1.12329 -1.18658,2.37315 -3.9572,3.72784 -4.77391,6.17799 -0.18194,0.54581 0.25672,1.45227 0,1.96572 -0.36155,0.72311 -2.77811,6.14794 -2.80818,6.178 -0.30092,0.30091 -1.13133,0.43331 -1.40409,0.84246 -0.18721,0.2808 -0.32299,1.08108 -0.56164,0.84246 -0.78296,-0.78298 -0.24138,-1.68492 -1.40409,-1.68492"
       style="fill:none;stroke:#dd16c9;stroke-width:1;stroke-linecap:butt;stroke-linejoin:miter;stroke-opacity:1;stroke-miterlimit:4;stroke-dasharray:none" />
    <path
       id="path2879"
       d="m -199.53758,438.01987 c 0.41411,-0.1537 4.1249,-0.64902 4.77391,0 0.68184,0.68183 -0.56164,2.36458 -0.56164,2.52735 0,0.37441 0.74885,0 1.12327,0 0.47566,0 2.24655,0.12838 2.24655,-0.28083 0,-0.30548 3.54847,0.19151 5.05472,-0.56163 0.20302,-0.10149 5.38137,-2.24655 5.61637,-2.24655 1.09626,0 8.16798,-2.96071 9.54781,-3.65061 2.17705,-1.08852 5.76092,0.77017 7.86291,-0.28083 2.93966,-1.46984 9.06393,-1.68492 10.95191,-1.68492 0.38418,0 -1.68491,1.10704 -1.68491,2.52738 0,0.24357 -1.85366,2.41527 -3.089,3.65064 -1.28225,1.28222 -0.94695,2.88655 -0.84245,2.80818 2.66262,-1.99697 5.39495,-3.03501 5.89717,-3.36984 0.18162,-0.12107 -0.15973,-0.96353 0,-1.12326 0.28973,-0.28972 3.11994,-0.56163 3.93146,-0.56163 0.57906,0 2.87781,-0.77282 3.089,-0.56163 0.74238,0.74237 -3.51712,6.47258 -3.65064,6.73962"
       style="fill:none;stroke:#dd16c9;stroke-width:1;stroke-linecap:butt;stroke-linejoin:miter;stroke-opacity:1;stroke-miterlimit:4;stroke-dasharray:none" />
    <path
       id="path2881"
       d="m -142.5315,441.10885 c 1.76788,-0.79909 9.54781,-7.67072 9.54781,-7.86291 0,-0.0251 -0.59876,2.45314 0.56164,4.77393 1.23828,2.47655 3.089,1.2786 3.089,5.05471"
       style="fill:none;stroke:#dd16c9;stroke-width:1;stroke-linecap:butt;stroke-linejoin:miter;stroke-opacity:1;stroke-miterlimit:4;stroke-dasharray:none" />
  </g>
</svg>
