<?xml version="1.0" encoding="UTF-8" standalone="no"?>
<svg
   xmlns:dc="http://purl.org/dc/elements/1.1/"
   xmlns:cc="http://creativecommons.org/ns#"
   xmlns:rdf="http://www.w3.org/1999/02/22-rdf-syntax-ns#"
   xmlns:svg="http://www.w3.org/2000/svg"
   xmlns="http://www.w3.org/2000/svg"
   xmlns:sodipodi="http://sodipodi.sourceforge.net/DTD/sodipodi-0.dtd"
   xmlns:inkscape="http://www.inkscape.org/namespaces/inkscape"
   sodipodi:docname="50.svg"
   inkscape:version="1.0 (4035a4f, 2020-05-01)"
   id="svg2907"
   version="1.1"
   viewBox="0 0 451.55557 338.66666"
   height="338.66666mm"
   width="451.55557mm">
  <defs
     id="defs2901" />
  <sodipodi:namedview
     inkscape:window-maximized="0"
     inkscape:window-y="26"
     inkscape:window-x="1680"
     inkscape:window-height="1414"
     inkscape:window-width="2560"
     fit-margin-bottom="0"
     fit-margin-right="0"
     fit-margin-left="0"
     fit-margin-top="0"
     showgrid="false"
     inkscape:document-rotation="0"
     inkscape:current-layer="layer1"
     inkscape:document-units="mm"
     inkscape:cy="640"
     inkscape:cx="649.02158"
     inkscape:zoom="0.94218753"
     inkscape:pageshadow="2"
     inkscape:pageopacity="0.0"
     borderopacity="1.0"
     bordercolor="#666666"
     pagecolor="#ffffff"
     id="base" />
  <metadata
     id="metadata2904">
    <rdf:RDF>
      <cc:Work
         rdf:about="">
        <dc:format>image/svg+xml</dc:format>
        <dc:type
           rdf:resource="http://purl.org/dc/dcmitype/StillImage" />
        <dc:title></dc:title>
      </cc:Work>
    </rdf:RDF>
  </metadata>
  <g
     transform="translate(-208.89484,-182.18452)"
     id="layer1"
     inkscape:groupmode="layer"
     inkscape:label="Layer 1">
    <path
       id="path2973"
       d="m 439.72733,325.68258 c 0.7112,0.83744 2.30548,0.39868 2.80818,1.40409 0.80761,1.6152 0.39868,1.59471 0.56164,2.24654 0.2379,0.9516 1.31724,0.94957 1.68491,1.68491 0.7148,1.4296 1.17922,5.22366 0.56164,6.45882 -0.66507,1.33013 -0.75023,0.46941 -1.96573,1.68491 -0.6182,0.6182 -0.80159,1.51385 -1.40409,1.96573 -3.23476,2.42606 -7.25523,2.61121 -10.95191,3.93145 -5.23763,1.87058 -10.62671,3.7042 -15.72581,5.61636 -2.06806,0.77552 -4.03385,1.81772 -6.178,2.24655 -2.54319,0.50863 -5.31952,0.053 -7.86291,0.56163 -2.19291,0.43858 -6.03824,3.10915 -7.86291,3.36982 -4.2028,0.6004 -9.67304,-0.80071 -13.76008,0.56164 -0.94581,0.31527 -1.13821,1.07308 -1.96573,1.40409 -3.64497,1.45799 -6.86905,2.59207 -10.10945,4.21227 -0.73329,0.36664 -1.27012,1.26754 -1.96573,1.68491 -2.28842,1.37305 -5.62306,1.97242 -7.58209,3.93145 -0.91227,0.91227 -0.0663,2.65996 -0.56164,3.65064 -0.543,1.08601 -4.0378,4.14414 -4.21227,4.49309 -0.55286,1.10572 1.73333,2.48862 1.96573,3.65063 0.30427,1.52134 -2.5186,2.93545 -3.36982,4.21227 -2.35921,3.53883 -2.76247,7.42754 -4.7739,10.10946 -1.00019,1.33357 -3.69646,2.01155 -4.77391,3.08899 -2.54304,2.54304 -0.53308,6.68252 -1.96573,9.54782 -0.94067,1.88134 -4.45979,3.65064 -3.36982,3.65064 1.37065,0 3.31829,3.78165 5.05473,4.7739 1.69218,0.96696 3.51573,0.85815 5.33554,1.4041 2.09891,0.62967 4.1703,1.66692 6.178,2.52736 2.63637,1.12987 4.07737,3.32935 7.02045,4.21227 4.17788,1.25336 8.67287,-0.14582 12.91764,0.56164 3.2685,0.54475 7.5801,1.89502 8.98618,2.24654 1.40103,0.35026 3.06179,-0.20447 4.49309,0 4.00882,0.57269 8.22915,0.1031 12.356,0.56164 1.92408,0.21379 3.92774,0.70178 5.89717,0.84245 1.7224,0.12303 8.28676,-0.27557 9.267,1.68491 0.82953,1.65905 -4.21227,4.41513 -4.21227,4.77391 0,0.37442 0.75174,-0.0464 1.12327,0 1.62828,0.20353 3.26596,0.52009 4.77391,1.12327 3.38271,1.35309 4.2946,4.50773 4.77391,7.86291 1.46905,10.28337 -16.85867,12.66319 -19.09563,18.81481 -1.96792,5.41179 5.67062,9.14897 7.30127,14.04091 0.33095,0.99285 0.21591,2.10121 0.56163,3.08901 1.43668,4.10477 4.6609,7.6223 6.178,11.79436 1.35519,3.72676 2.34236,8.19263 3.089,12.07518 1.26628,6.58466 -0.80728,-0.98258 0.84246,5.61634 0.40107,1.60427 1.36422,3.17047 1.68491,4.77393 0.3406,1.70302 0.57371,6.76378 0,5.61636"
       style="fill:none;stroke:#dd16c9;stroke-width:1;stroke-linecap:butt;stroke-linejoin:miter;stroke-opacity:1;stroke-miterlimit:4;stroke-dasharray:none" />
  </g>
</svg>
