<?xml version="1.0" encoding="UTF-8" standalone="no"?>
<svg
   xmlns:dc="http://purl.org/dc/elements/1.1/"
   xmlns:cc="http://creativecommons.org/ns#"
   xmlns:rdf="http://www.w3.org/1999/02/22-rdf-syntax-ns#"
   xmlns:svg="http://www.w3.org/2000/svg"
   xmlns="http://www.w3.org/2000/svg"
   xmlns:sodipodi="http://sodipodi.sourceforge.net/DTD/sodipodi-0.dtd"
   xmlns:inkscape="http://www.inkscape.org/namespaces/inkscape"
   width="451.55557mm"
   height="338.66666mm"
   viewBox="0 0 451.55557 338.66666"
   version="1.1"
   id="svg8"
   inkscape:version="1.0.2 (e86c8708, 2021-01-15)"
   sodipodi:docname="1.svg">
  <defs
     id="defs2" />
  <sodipodi:namedview
     id="base"
     pagecolor="#ffffff"
     bordercolor="#666666"
     borderopacity="1.0"
     inkscape:pageopacity="0.0"
     inkscape:pageshadow="2"
     inkscape:zoom="0.88515628"
     inkscape:cx="853.33338"
     inkscape:cy="639.99999"
     inkscape:document-units="mm"
     inkscape:current-layer="layer1"
     inkscape:document-rotation="0"
     showgrid="false"
     fit-margin-top="0"
     fit-margin-left="0"
     fit-margin-right="0"
     fit-margin-bottom="0"
     inkscape:window-width="2560"
     inkscape:window-height="1323"
     inkscape:window-x="1680"
     inkscape:window-y="25"
     inkscape:window-maximized="1" />
  <metadata
     id="metadata5">
    <rdf:RDF>
      <cc:Work
         rdf:about="">
        <dc:format>image/svg+xml</dc:format>
        <dc:type
           rdf:resource="http://purl.org/dc/dcmitype/StillImage" />
        <dc:title></dc:title>
      </cc:Work>
    </rdf:RDF>
  </metadata>
  <g
     inkscape:label="Layer 1"
     inkscape:groupmode="layer"
     id="layer1"
     transform="translate(166.81351,195.79166)">
    <path
       style="fill:none;stroke:#dd16c9;stroke-width:1.05833333;stroke-linecap:butt;stroke-linejoin:miter;stroke-opacity:1;stroke-miterlimit:4;stroke-dasharray:none"
       d="m -89.395449,142.57608 c -0.796306,-4.96179 -4.895651,-8.29675 -7.173875,-12.8532 -3.868156,-7.73631 -4.479576,-18.54888 -2.391291,-26.90201 3.023608,-12.094448 17.369726,-11.800999 23.315091,-19.728154 2.835592,-3.780789 -2.762139,-11.56163 -0.896734,-14.048845 1.254567,-1.672759 11.091177,-5.590167 13.152104,-6.277142 2.067502,-0.689168 4.518017,-0.612545 6.576052,-1.494557 6.046714,-2.591451 11.933248,-6.568315 18.233596,-8.668432 1.160169,-0.386723 2.729275,-0.135195 3.885848,-0.597824 2.724224,-1.089689 5.184426,-3.133791 7.771699,-4.483671 8.671989,-4.524515 17.4242041,-8.092443 26.90202882,-10.4619 C 6.3505618,35.467471 13.447607,36.801632 20.006136,35.864701 c 8.394086,-1.199156 16.201715,-3.995571 24.510735,-5.380408 4.524918,-0.754153 9.270085,0.44773 13.749928,-0.298911 1.243173,-0.207195 2.355381,-0.927915 3.586937,-1.195646 5.19878,-1.130168 10.61784,-1.112793 15.842306,-2.092378 4.852693,-0.909881 9.086164,-2.600159 13.451014,-4.782585 2.237367,-1.118682 5.153168,-0.936551 7.771691,-2.391291 5.422163,-3.012305 11.680453,-5.352806 17.934703,-5.978228 13.85292,-1.385292 27.22867,0.577408 41.24976,-0.298911 5.71783,-0.357364 11.07508,0.137052 16.73905,-1.195646 0.95173,-0.223938 10.31258,-1.943066 11.05971,-2.6902044 0.41225,-0.4122499 1.02047,-1.2368847 1.79348,-1.4945571 4.08146,-1.3604848 8.54914,-2.4516133 10.46189,-6.277139 0.0743,-0.1486455 0.10176,-1.69172991 0,-1.79346749 -1.90997,-1.90997681 -11.02704,-3.14322081 -8.07061,-8.07060911 0.68355,-1.1392482 1.43232,-2.3601729 2.6902,-2.9891139 2.81998,-1.409983 16.646,-3.637415 19.13036,-3.885848 2.07166,-0.207169 4.20547,0.207166 6.27713,0 7.26686,-0.726689 13.91751,-3.671983 21.2227,-4.483675 5.30897,-0.589885 10.81085,0.380744 16.14123,0 9.56431,-0.683164 22.28395,-1.195644 28.99441,-1.195644"
       id="path883" />
    <path
       style="fill:none;stroke:#dd16c9;stroke-width:1.05833333;stroke-linecap:butt;stroke-linejoin:miter;stroke-opacity:1;stroke-miterlimit:4;stroke-dasharray:none"
       d="m 284.24384,-77.422732 c -6.48444,-2.810616 -13.6421,-4.639077 -20.92381,-5.679319 -7.49366,-1.070522 -15.04315,-2.520613 -22.71725,-3.288024 -1.934,-0.1934 -4.05649,0.320291 -5.97824,0 -2.73875,-0.456462 -5.35239,-1.249828 -8.07061,-1.79347 -1.19163,-0.238326 -2.54706,-0.07789 -3.58693,-0.597821 -2.18787,-1.093938 -5.74961,0.474752 -8.07061,-0.298913 -2.10407,-0.70136 -4.07808,-0.645877 -6.27713,-1.195647 -2.81337,-0.703339 -5.71757,-1.130477 -8.36954,-1.793467 -2.22258,-0.555649 -4.28332,-2.009169 -6.57604,-2.391291 -2.77466,-0.462442 -6.30547,-0.0094 -8.96733,-0.896734 -2.8152,-0.938395 -5.97824,-2.49093 -8.96737,-2.989114 -3.63183,-0.605309 -7.391,0.02043 -11.05971,-0.896737 -8.25275,-2.063191 -16.68571,-3.280411 -25.10856,-4.483671 -2.7486,-0.39266 -5.98739,0.37135 -8.66844,-0.29891 -2.82999,-0.7075 -6.27018,-1.19565 -9.26624,-1.19565 -3.42289,0 -7.09049,-2.0757 -10.16299,-2.6902 -1.48915,-0.29783 -2.96817,0.004 -4.48368,-0.29891 -6.50222,-1.30045 -14.028054,-2.67981 -20.027065,-5.67932 -2.111261,-1.05563 -4.184759,-0.83719 -4.184759,-2.09238"
       id="path885" />
  </g>
</svg>
