<?xml version="1.0" encoding="UTF-8" standalone="no"?>
<svg
   xmlns:dc="http://purl.org/dc/elements/1.1/"
   xmlns:cc="http://creativecommons.org/ns#"
   xmlns:rdf="http://www.w3.org/1999/02/22-rdf-syntax-ns#"
   xmlns:svg="http://www.w3.org/2000/svg"
   xmlns="http://www.w3.org/2000/svg"
   xmlns:sodipodi="http://sodipodi.sourceforge.net/DTD/sodipodi-0.dtd"
   xmlns:inkscape="http://www.inkscape.org/namespaces/inkscape"
   width="451.55557mm"
   height="338.66666mm"
   viewBox="0 0 451.55557 338.66666"
   version="1.1"
   id="svg8"
   inkscape:version="1.0.2 (e86c8708, 2021-01-15)"
   sodipodi:docname="15.svg">
  <defs
     id="defs2" />
  <sodipodi:namedview
     id="base"
     pagecolor="#ffffff"
     bordercolor="#666666"
     borderopacity="1.0"
     inkscape:pageopacity="0.0"
     inkscape:pageshadow="2"
     inkscape:zoom="0.88515628"
     inkscape:cx="853.33336"
     inkscape:cy="639.99998"
     inkscape:document-units="mm"
     inkscape:current-layer="layer1"
     inkscape:document-rotation="0"
     showgrid="false"
     fit-margin-top="0"
     fit-margin-left="0"
     fit-margin-right="0"
     fit-margin-bottom="0"
     inkscape:window-width="2560"
     inkscape:window-height="1323"
     inkscape:window-x="1680"
     inkscape:window-y="25"
     inkscape:window-maximized="1" />
  <metadata
     id="metadata5">
    <rdf:RDF>
      <cc:Work
         rdf:about="">
        <dc:format>image/svg+xml</dc:format>
        <dc:type
           rdf:resource="http://purl.org/dc/dcmitype/StillImage" />
        <dc:title />
      </cc:Work>
    </rdf:RDF>
  </metadata>
  <g
     inkscape:label="Layer 1"
     inkscape:groupmode="layer"
     id="layer1"
     transform="translate(227.16583,177.04431)">
    <path
       style="fill:none;stroke:#dd19c3;stroke-width:1.05833333;stroke-linecap:butt;stroke-linejoin:miter;stroke-opacity:1;stroke-miterlimit:4;stroke-dasharray:none"
       d="m 224.19044,-9.9528198 c -1.82414,-0.2979022 -4.27188,0.5542677 -5.97823,-0.2989102 -1.0328,-0.516403 -2.46851,-2.150279 -3.58696,-2.989114 -2.23795,-1.67848 -5.52934,-1.905186 -7.77168,-3.586938 -1.68021,-1.260168 -3.43337,-3.922183 -5.67931,-4.483672 -2.14961,-0.5374 -5.5196,0.07986 -7.47278,-0.896733 -1.44643,-0.723205 -4.28977,-2.10738 -6.27716,-2.391294 -2.92881,-0.418404 -6.29651,0.406855 -8.96734,-1.195644 -4.64267,-2.78561 -8.80541,-4.828246 -14.04882,-6.576052 -1.05026,-0.350083 -1.93381,-1.230725 -2.98913,-1.494557 -3.50441,-0.876102 -7.67093,1.428504 -11.05972,0.29891 -2.84871,-0.949566 -4.33419,-4.134932 -7.17388,-5.081492 -5.03092,-1.676974 -10.64017,-1.882611 -15.24447,-4.184761 -1.78687,-0.893427 4.65933,-5.854999 5.3804,-6.576052"
       id="path943" />
    <path
       style="fill:none;stroke:#dd19c3;stroke-width:1.05833333;stroke-linecap:butt;stroke-linejoin:miter;stroke-opacity:1;stroke-miterlimit:4;stroke-dasharray:none"
       d="m 70.848874,-11.746287 c -4.140518,1.552691 -1.12985,-0.06581 -3.28803,2.0923776 -1.272355,1.27236 -14.179973,2.2636929 -16.73905,2.6902039 -3.19487,0.5324819 -6.048348,1.4488001 -9.266237,2.0923805 -1.221925,0.2443824 -2.388209,-7.937e-4 -3.586956,0.2989104 -1.349653,0.3374152 -2.591054,1.3618739 -3.88584,1.7934702 -1.027423,0.342474 -7.472786,2.16697182 -7.472786,2.69020123 0,0.71428504 4.295687,1.30657337 4.483671,1.49455717 1.296546,1.2965456 2.917619,2.2439894 4.483672,3.2880273 4.583514,3.0556835 9.405096,2.2674818 14.945576,4.4836714 0.617882,0.2471579 1.568689,0.037073 2.092378,0.2989104 0.420608,0.2103094 2.615618,3.2134329 2.989104,3.5869379 0.137769,0.137771 5.280078,0.46474 6.57606,0.896734 1.575991,0.525332 2.092431,2.83968 3.58693,3.586937 2.269331,1.134655 3.262762,0.585184 5.081508,1.494557"
       id="path945" />
    <path
       style="fill:none;stroke:#dd19c3;stroke-width:1.05833333;stroke-linecap:butt;stroke-linejoin:miter;stroke-opacity:1;stroke-miterlimit:4;stroke-dasharray:none"
       d="m 70.848874,19.041587 c -5.579348,-1.507935 -6.762168,8.093876 -11.358642,8.668435 -1.961647,0.245205 -2.818527,0.06416 -4.483682,0.896734 -3.769466,1.88474 2.874539,4.469728 0.597826,5.380405 -2.23303,0.893215 -5.1299,0.08592 -7.472786,0.29891 -2.391568,0.217419 -4.529217,1.159455 -6.874959,1.494557 -3.096499,0.44236 -6.521985,-0.16297 -9.565161,0.597824 -2.577457,0.644366 -5.253138,0.393022 -7.771697,0.896734 -11.605688,2.321139 -23.70908153,3.000999 -35.570461,4.483671 -4.419671,0.552461 -10.197846,-0.587862 -14.347748,0.597823 -4.710895,1.34597 -9.504201,2.596092 -14.347748,3.288028 -3.371755,0.481679 -6.447586,1.30461 -9.565166,2.690201 -0.881923,0.391964 -1.740022,0.896734 -2.690204,0.896734 -0.29891,0 -1.195647,0 -0.896734,0 1.963484,0 4.274624,1.240578 5.978229,2.09238 3.036345,1.518174 11.867065,2.368944 15.543395,3.288028 2.162783,0.540694 3.682645,2.092377 6.277139,2.092377 2.82194,0 5.397878,1.500384 8.070609,2.391294 0.781148,0.260382 9.2327488,1.27553 5.380405,3.586935 -4.223919,2.534354 -16.034671,1.79347 -20.9238,1.79347 -0.871135,0 -3.122962,-0.381444 -3.885848,0 -4.27318,2.13659 -9.033068,3.171434 -13.451015,5.380405 -2.69177,1.345886 -11.329333,5.632429 -13.749927,5.978229 -2.07636,0.296624 -7.5629,0.627862 -9.266253,1.195647 -2.019869,0.673288 -4.069088,1.752679 -6.277139,2.09238 -4.700738,0.723189 -10.464803,0.972185 -14.945572,2.092378 -5.716005,1.429002 -11.404395,3.630753 -17.037955,5.679318 -4.56494,1.65998 -9.43501,2.454577 -14.04883,4.184767 -7.75886,2.90957 -18.15371,-0.162772 -26.30421,1.195652 -4.51288,0.752131 -8.83794,2.664301 -13.45101,3.58693 -2.51576,0.503158 -5.58786,-1.12649 -8.07061,-0.298927 -2.85271,0.950913 -6.28699,2.193661 -9.26626,2.690204 -1.75107,0.291862 -3.63217,0.0074 -5.3804,0.298927 -2.11255,0.352081 -3.92548,1.280265 -5.97823,1.793453 -3.18519,0.79631 -6.39105,1.18549 -9.56517,2.09238 -1.50927,0.43124 -2.89197,1.56609 -4.48367,1.79347 -1.43561,0.20508 -2.59043,0.24903 -3.88585,0.89673 -1.49291,0.74647 -3.99386,-0.33708 -5.67932,0 -1.54794,0.30959 -3.85229,1.461 -4.78258,2.3913 -1.11398,1.11398 -3.02095,0.90948 -4.48367,1.49456"
       id="path947" />
  </g>
</svg>
