<?xml version="1.0" encoding="UTF-8" standalone="no"?>
<svg
   xmlns:dc="http://purl.org/dc/elements/1.1/"
   xmlns:cc="http://creativecommons.org/ns#"
   xmlns:rdf="http://www.w3.org/1999/02/22-rdf-syntax-ns#"
   xmlns:svg="http://www.w3.org/2000/svg"
   xmlns="http://www.w3.org/2000/svg"
   xmlns:sodipodi="http://sodipodi.sourceforge.net/DTD/sodipodi-0.dtd"
   xmlns:inkscape="http://www.inkscape.org/namespaces/inkscape"
   width="451.55557mm"
   height="338.66666mm"
   viewBox="0 0 451.55556 338.66666"
   version="1.1"
   id="svg8"
   inkscape:version="1.0.2 (e86c8708, 2021-01-15)"
   sodipodi:docname="19.svg">
  <defs
     id="defs2" />
  <sodipodi:namedview
     id="base"
     pagecolor="#ffffff"
     bordercolor="#666666"
     borderopacity="1.0"
     inkscape:pageopacity="0.0"
     inkscape:pageshadow="2"
     inkscape:zoom="0.88515628"
     inkscape:cx="853.33338"
     inkscape:cy="639.99997"
     inkscape:document-units="mm"
     inkscape:current-layer="layer1"
     inkscape:document-rotation="0"
     showgrid="false"
     fit-margin-top="0"
     fit-margin-left="0"
     fit-margin-right="0"
     fit-margin-bottom="0"
     inkscape:window-width="2560"
     inkscape:window-height="1323"
     inkscape:window-x="1680"
     inkscape:window-y="25"
     inkscape:window-maximized="1" />
  <metadata
     id="metadata5">
    <rdf:RDF>
      <cc:Work
         rdf:about="">
        <dc:format>image/svg+xml</dc:format>
        <dc:type
           rdf:resource="http://purl.org/dc/dcmitype/StillImage" />
        <dc:title></dc:title>
      </cc:Work>
    </rdf:RDF>
  </metadata>
  <g
     inkscape:label="Layer 1"
     inkscape:groupmode="layer"
     id="layer1"
     transform="translate(299.35294,176.1974)">
    <path
       style="fill:none;stroke:#dd19c3;stroke-width:1.05833333;stroke-linecap:butt;stroke-linejoin:miter;stroke-opacity:1;stroke-miterlimit:4;stroke-dasharray:none"
       d="m 152.00333,82.6599 c -1.99503,-0.503479 -4.06648,-0.837592 -5.97823,-1.793468 -1.87801,-0.939006 -3.27909,-2.685724 -5.08151,-3.586938 -1.49325,-0.746635 -3.41622,-0.939469 -5.08148,-1.494557 -3.45347,-1.151154 -7.71967,-2.957888 -10.76081,-4.782584 -4.33317,-2.599886 -8.82899,-6.129269 -14.04885,-6.874963 -5.72021,-0.817173 -11.464026,-0.977595 -17.03795,-2.09238 -1.354772,-0.270952 -2.549392,-1.112711 -3.885856,-1.494557 -1.199435,-0.342699 -2.725631,0.08782 -3.885829,-0.298911 -1.723867,-0.574616 -3.298561,-1.700847 -4.782582,-2.690204 -0.696357,-0.46423 -1.018011,-2.1328 -1.793478,-2.39129 C 77.575038,54.462807 75.556744,54.965767 73.389621,53.66549 72.316286,53.021495 72.119595,52.096569 71.297243,51.274199 69.354037,49.330991 67.491821,47.767698 66.215735,46.491618 65.560944,45.836811 65.730754,44.450034 65.020083,43.502503 63.723651,41.773928 62.344193,40.534855 61.134254,38.719919 59.034653,35.570546 52.489231,32.159475 49.775612,30.350399 45.58014,27.553415 42.337407,23.044365 37.819144,20.785233 33.358931,18.555121 28.769521,15.812048 24.368151,13.61136 23.597975,13.226281 22.153827,13.69985 21.379021,13.312447 18.365152,11.805516 16.30508,10.98245 13.009509,10.323333 11.305937,9.9826186 9.3334413,7.2451019 8.2269274,6.1385747 7.0229938,4.9346544 4.9671814,5.1065304 3.4443456,4.3451045 2.9660847,4.1059767 2.7269543,3.3885882 2.2486935,3.1494604 -2.8215698,0.61432346 -9.3335476,0.01127984 -13.593604,-2.8287709 c -0.991658,-0.6611011 -2.453719,-0.3405266 -3.28803,-0.8967337 -1.736989,-1.1579913 -2.041101,-2.9634682 -4.483682,-4.1847584 -1.136332,-0.5681769 -5.667216,-1.8176611 -6.277133,-0.5978234 -0.324724,0.6494727 -0.372825,2.3141357 -0.597826,2.9891143 -0.101548,0.3046412 0.269716,2.5553405 0,2.6902012 -3.98661,1.99331 -6.197759,-0.7075884 -8.369517,-1.7934675"
       id="path2208" />
  </g>
</svg>
