<?xml version="1.0" encoding="UTF-8" standalone="no"?>
<svg
   xmlns:dc="http://purl.org/dc/elements/1.1/"
   xmlns:cc="http://creativecommons.org/ns#"
   xmlns:rdf="http://www.w3.org/1999/02/22-rdf-syntax-ns#"
   xmlns:svg="http://www.w3.org/2000/svg"
   xmlns="http://www.w3.org/2000/svg"
   xmlns:sodipodi="http://sodipodi.sourceforge.net/DTD/sodipodi-0.dtd"
   xmlns:inkscape="http://www.inkscape.org/namespaces/inkscape"
   width="451.55557mm"
   height="338.66666mm"
   viewBox="0 0 451.55557 338.66666"
   version="1.1"
   id="svg8"
   inkscape:version="1.0.2 (e86c8708, 2021-01-15)"
   sodipodi:docname="4.svg">
  <defs
     id="defs2" />
  <sodipodi:namedview
     id="base"
     pagecolor="#ffffff"
     bordercolor="#666666"
     borderopacity="1.0"
     inkscape:pageopacity="0.0"
     inkscape:pageshadow="2"
     inkscape:zoom="0.88515628"
     inkscape:cx="853.33338"
     inkscape:cy="639.99999"
     inkscape:document-units="mm"
     inkscape:current-layer="layer1"
     inkscape:document-rotation="0"
     showgrid="false"
     fit-margin-top="0"
     fit-margin-left="0"
     fit-margin-right="0"
     fit-margin-bottom="0"
     inkscape:window-width="2560"
     inkscape:window-height="1323"
     inkscape:window-x="1680"
     inkscape:window-y="25"
     inkscape:window-maximized="1" />
  <metadata
     id="metadata5">
    <rdf:RDF>
      <cc:Work
         rdf:about="">
        <dc:format>image/svg+xml</dc:format>
        <dc:type
           rdf:resource="http://purl.org/dc/dcmitype/StillImage" />
        <dc:title></dc:title>
      </cc:Work>
    </rdf:RDF>
  </metadata>
  <g
     inkscape:label="Layer 1"
     inkscape:groupmode="layer"
     id="layer1"
     transform="translate(194.78374,164.04166)">
    <path
       style="fill:none;stroke:#dd19c3;stroke-width:1.05833333;stroke-linecap:butt;stroke-linejoin:miter;stroke-opacity:1;stroke-miterlimit:4;stroke-dasharray:none"
       d="m 256.27361,71.799459 c -6.41004,-1.023136 -12.42555,2.861114 -18.83143,1.79347 -2.22493,-0.370827 -9.81699,-6.659999 -14.04882,-8.070609 -5.45036,-1.816783 -11.1552,-1.401622 -16.73905,-2.690204 -5.6012,-1.292582 -11.0381,-2.470846 -16.73905,-2.989114 -1.95119,-0.177382 -4.04868,0.321593 -5.9782,0 -1.83846,-0.306406 -4.11486,-0.712997 -5.97824,-0.298911 -1.61883,0.359739 -3.15135,1.168308 -4.78258,1.494558 -3.92179,0.784352 -8.81936,-0.223452 -12.25537,1.494557"
       id="path887" />
    <path
       style="fill:none;stroke:#dd19c3;stroke-width:1.05833333;stroke-linecap:butt;stroke-linejoin:miter;stroke-opacity:1;stroke-miterlimit:4;stroke-dasharray:none"
       d="m 136.41014,77.777688 c -5.69381,0.891696 -9.45211,-3.199165 -14.94557,-3.885848 -2.96823,-0.371028 -6.81747,-1.954401 -9.26627,-3.586938 -2.97399,-1.982666 -3.82463,-3.663596 -7.47278,-4.184759 -1.50641,-0.215204 -2.53844,0.328338 -3.88586,0.597821 -5.278597,1.055722 -6.554047,-0.758282 -12.255368,2.092381 -1.330431,0.66522 -3.880353,-0.0761 -5.380408,0.298913 -6.430327,1.607579 -14.163582,3.517992 -20.923792,2.391291 -1.574771,-0.262462 -3.389625,-0.359871 -4.782584,-1.195647 -2.049182,-1.229508 -4.541052,-4.315799 -6.874963,-4.782582 -2.255544,-0.451109 -4.379891,-1.061416 -6.576052,-1.79347 -2.51729,-0.839094 -6.073952,-0.01368 -8.070609,-0.298911 -1.754018,-0.250573 -3.1218,-1.195646 -4.782582,-1.195646 -0.99637,0 -2.989114,0.996373 -2.989114,0 0,-0.281816 0.4415,-0.363337 0.597823,-0.597821 2.231308,-3.346961 4.152871,-4.908124 7.173873,-7.173875 3.414781,-2.561085 6.993959,-6.993959 9.864079,-9.864077"
       id="path889" />
    <path
       style="fill:none;stroke:#dd19c3;stroke-width:1.05833333;stroke-linecap:butt;stroke-linejoin:miter;stroke-opacity:1;stroke-miterlimit:4;stroke-dasharray:none"
       d="m -21.116198,84.054829 c -2.251665,-1.075417 -6.137873,1.115822 -8.369519,0 -3.325257,-1.662628 -6.024671,-3.62409 -8.967343,-5.978228 -1.055987,-0.844789 -2.736022,0.08436 -3.885851,-0.298913 -2.22758,-0.742527 -4.986359,-1.24659 -7.173873,-1.793468 -2.813285,-0.703321 -6.15406,0.703321 -8.967343,0 -1.623097,-0.405776 -3.587236,-1.295381 -5.081494,-1.79347 -3.027559,-1.009184 -6.775059,0.916718 -9.864077,0.298913 -6.41159,-1.282319 -28.912112,-0.614283 -34.972642,0.597823 -6.21072,1.242145 -12.85489,-1.195403 -19.13033,-0.298913 -2.08921,0.298458 -4.71754,0.875054 -6.57605,1.494557 -3.17167,1.057223 -15.76721,-1.942187 -17.03795,-4.483671"
       id="path891" />
  </g>
</svg>
