<?xml version="1.0" encoding="UTF-8" standalone="no"?>
<svg
   xmlns:dc="http://purl.org/dc/elements/1.1/"
   xmlns:cc="http://creativecommons.org/ns#"
   xmlns:rdf="http://www.w3.org/1999/02/22-rdf-syntax-ns#"
   xmlns:svg="http://www.w3.org/2000/svg"
   xmlns="http://www.w3.org/2000/svg"
   xmlns:sodipodi="http://sodipodi.sourceforge.net/DTD/sodipodi-0.dtd"
   xmlns:inkscape="http://www.inkscape.org/namespaces/inkscape"
   width="81.280006mm"
   height="108.37334mm"
   viewBox="0 0 81.280006 108.37334"
   version="1.1"
   id="svg8"
   inkscape:version="1.0.2 (e86c8708, 2021-01-15)"
   sodipodi:docname="2.svg">
  <defs
     id="defs2" />
  <sodipodi:namedview
     id="base"
     pagecolor="#ffffff"
     bordercolor="#666666"
     borderopacity="1.0"
     inkscape:pageopacity="0.0"
     inkscape:pageshadow="2"
     inkscape:zoom="2.7661132"
     inkscape:cx="153.60001"
     inkscape:cy="204.80001"
     inkscape:document-units="mm"
     inkscape:current-layer="layer1"
     inkscape:document-rotation="0"
     showgrid="false"
     fit-margin-top="0"
     fit-margin-left="0"
     fit-margin-right="0"
     fit-margin-bottom="0"
     inkscape:window-width="2560"
     inkscape:window-height="1323"
     inkscape:window-x="1920"
     inkscape:window-y="25"
     inkscape:window-maximized="1" />
  <metadata
     id="metadata5">
    <rdf:RDF>
      <cc:Work
         rdf:about="">
        <dc:format>image/svg+xml</dc:format>
        <dc:type
           rdf:resource="http://purl.org/dc/dcmitype/StillImage" />
        <dc:title></dc:title>
      </cc:Work>
    </rdf:RDF>
  </metadata>
  <g
     inkscape:label="Layer 1"
     inkscape:groupmode="layer"
     id="layer1"
     transform="translate(-5.4730921,68.549767)">
    <path
       style="fill:none;stroke:#dd16c9;stroke-width:0.26458300000000001px;stroke-linecap:butt;stroke-linejoin:miter;stroke-opacity:1"
       d="m 57.60325,39.91922 c -0.09835,-2.945884 1.539457,-5.30365 2.965201,-7.747786 0.564438,-0.96761 0.518012,-2.020491 1.147821,-2.965201 0.951748,-1.427623 2.258795,-2.521188 3.156503,-4.01737 1.788273,-2.980454 2.973292,-6.043853 4.399978,-9.18256 0.279469,-0.614831 0.81298,-1.219415 1.052169,-1.817381 0.222803,-0.557009 0.117276,-1.225169 0.191301,-1.81738 0.1157,-0.925592 0.276768,-1.882474 0.573911,-2.7738999 C 71.29722,8.9763819 70.866037,8.0262261 70.80318,7.3976555 70.637178,5.7376332 70.868376,4.914996 70.324922,3.2846336 70.069257,2.5176409 69.869248,2.5532988 69.272753,1.6585547 68.899087,1.0980561 68.799395,0.42488463 68.507538,-0.15882588 67.888784,-1.396335 66.827109,-2.1886351 65.924943,-3.2196793 65.633801,-3.552414 65.592351,-4.0055262 65.351033,-4.3675 64.852272,-5.1156411 64.367529,-5.829262 63.724957,-6.4718371 63.570734,-6.62606 63.509662,-6.9262378 63.342348,-7.0457474 c -1.012153,-0.722966 -1.894845,-1.5646135 -2.869549,-2.2956387 -0.218774,-0.1640814 -0.577347,-0.2903935 -0.765212,-0.4782582 -0.784609,-0.7846087 -1.16381,-2.2191767 -2.104337,-3.3478097 -0.147191,-0.176628 -0.411335,-0.22003 -0.573911,-0.382606 -1.450022,-1.450023 -3.677623,-4.868302 -4.495628,-6.504313 -0.26008,-0.520163 -0.412932,-1.558417 -0.669562,-2.199989 -0.385546,-0.963864 -0.976336,-2.031961 -1.147821,-3.060854 -0.08992,-0.539549 0.01088,-1.09347 -0.09565,-1.626076 -0.09804,-0.490186 -0.182023,-0.02463 -0.478258,-0.765215 -0.20128,-0.503197 -0.191723,-1.117052 -0.382609,-1.626079 -0.330078,-0.880207 -0.768652,-1.834573 -0.956516,-2.773896 -0.175147,-0.875732 -0.118574,-1.836336 -0.286954,-2.678248 -0.05796,-0.289777 -0.248764,-0.727019 -0.382609,-0.860864 -0.121729,-0.121732 -0.09565,-1.320038 -0.09565,-1.530427 0,-2.129954 0.09422,-4.175836 2.008685,-5.452145 0.661361,-0.440908 1.386832,-0.597765 2.104337,-0.956517 1.298393,-0.649197 4.168937,-2.750343 4.495628,-3.730415 0.153215,-0.459645 0,-1.224973 0,-1.72173 0,-0.715886 0.101653,-1.509414 -0.09565,-2.199988 -0.281842,-0.986447 -1.003739,-1.529219 -1.434774,-2.391292 -1.181492,-2.362979 -3.156506,-3.247717 -3.156506,-5.930403"
       id="path885" />
  </g>
</svg>
