<?xml version="1.0" encoding="UTF-8" standalone="no"?>
<svg
   xmlns:dc="http://purl.org/dc/elements/1.1/"
   xmlns:cc="http://creativecommons.org/ns#"
   xmlns:rdf="http://www.w3.org/1999/02/22-rdf-syntax-ns#"
   xmlns:svg="http://www.w3.org/2000/svg"
   xmlns="http://www.w3.org/2000/svg"
   xmlns:sodipodi="http://sodipodi.sourceforge.net/DTD/sodipodi-0.dtd"
   xmlns:inkscape="http://www.inkscape.org/namespaces/inkscape"
   width="451.55557mm"
   height="338.66666mm"
   viewBox="0 0 451.55557 338.66666"
   version="1.1"
   id="svg8"
   sodipodi:docname="40.svg"
   inkscape:version="1.0.2 (e86c8708, 2021-01-15)">
  <defs
     id="defs2">
    <marker
       style="overflow:visible"
       id="TriangleOutM"
       refX="0.0"
       refY="0.0"
       orient="auto"
       inkscape:stockid="TriangleOutM"
       inkscape:isstock="true">
      <path
         transform="scale(0.4)"
         style="fill-rule:evenodd;stroke:#dd16c9;stroke-width:1pt;stroke-opacity:1;fill:#dd16c9;fill-opacity:1"
         d="M 5.77,0.0 L -2.88,5.0 L -2.88,-5.0 L 5.77,0.0 z "
         id="path1030" />
    </marker>
    <marker
       style="overflow:visible;"
       id="Arrow1Mend"
       refX="0.0"
       refY="0.0"
       orient="auto"
       inkscape:stockid="Arrow1Mend"
       inkscape:isstock="true">
      <path
         transform="scale(0.4) rotate(180) translate(10,0)"
         style="fill-rule:evenodd;stroke:#dd16c9;stroke-width:1pt;stroke-opacity:1;fill:#dd16c9;fill-opacity:1"
         d="M 0.0,0.0 L 5.0,-5.0 L -12.5,0.0 L 5.0,5.0 L 0.0,0.0 z "
         id="path894" />
    </marker>
    <marker
       style="overflow:visible;"
       id="Arrow1Lend"
       refX="0.0"
       refY="0.0"
       orient="auto"
       inkscape:stockid="Arrow1Lend"
       inkscape:isstock="true">
      <path
         transform="scale(0.8) rotate(180) translate(12.5,0)"
         style="fill-rule:evenodd;stroke:#dd16c9;stroke-width:1pt;stroke-opacity:1;fill:#dd16c9;fill-opacity:1"
         d="M 0.0,0.0 L 5.0,-5.0 L -12.5,0.0 L 5.0,5.0 L 0.0,0.0 z "
         id="path888" />
    </marker>
    <marker
       style="overflow:visible;"
       id="marker1313"
       refX="0.0"
       refY="0.0"
       orient="auto"
       inkscape:stockid="Arrow1Send"
       inkscape:isstock="true">
      <path
         transform="scale(0.2) rotate(180) translate(6,0)"
         style="fill-rule:evenodd;stroke:#dd16c9;stroke-width:1pt;stroke-opacity:1;fill:#dd16c9;fill-opacity:1"
         d="M 0.0,0.0 L 5.0,-5.0 L -12.5,0.0 L 5.0,5.0 L 0.0,0.0 z "
         id="path1311" />
    </marker>
    <marker
       style="overflow:visible;"
       id="marker1223"
       refX="0.0"
       refY="0.0"
       orient="auto"
       inkscape:stockid="Arrow1Send"
       inkscape:isstock="true">
      <path
         transform="scale(0.2) rotate(180) translate(6,0)"
         style="fill-rule:evenodd;stroke:#dd16c9;stroke-width:1pt;stroke-opacity:1;fill:#dd16c9;fill-opacity:1"
         d="M 0.0,0.0 L 5.0,-5.0 L -12.5,0.0 L 5.0,5.0 L 0.0,0.0 z "
         id="path1221" />
    </marker>
    <marker
       style="overflow:visible;"
       id="Arrow1Send"
       refX="0.0"
       refY="0.0"
       orient="auto"
       inkscape:stockid="Arrow1Send"
       inkscape:isstock="true"
       inkscape:collect="always">
      <path
         transform="scale(0.2) rotate(180) translate(6,0)"
         style="fill-rule:evenodd;stroke:#dd16c9;stroke-width:1pt;stroke-opacity:1;fill:#dd16c9;fill-opacity:1"
         d="M 0.0,0.0 L 5.0,-5.0 L -12.5,0.0 L 5.0,5.0 L 0.0,0.0 z "
         id="path900" />
    </marker>
    <marker
       style="overflow:visible;"
       id="Arrow2Lend"
       refX="0.0"
       refY="0.0"
       orient="auto"
       inkscape:stockid="Arrow2Lend"
       inkscape:isstock="true">
      <path
         transform="scale(1.1) rotate(180) translate(1,0)"
         d="M 8.7185878,4.0337352 L -2.2072895,0.016013256 L 8.7185884,-4.0017078 C 6.9730900,-1.6296469 6.9831476,1.6157441 8.7185878,4.0337352 z "
         style="fill-rule:evenodd;stroke-width:0.625;stroke-linejoin:round;stroke:#dd16c9;stroke-opacity:1;fill:#dd16c9;fill-opacity:1"
         id="path906" />
    </marker>
  </defs>
  <sodipodi:namedview
     id="base"
     pagecolor="#ffffff"
     bordercolor="#666666"
     borderopacity="1.0"
     inkscape:pageopacity="0.0"
     inkscape:pageshadow="2"
     inkscape:zoom="0.88515628"
     inkscape:cx="853.33337"
     inkscape:cy="639.99998"
     inkscape:document-units="mm"
     inkscape:current-layer="layer1"
     inkscape:document-rotation="0"
     showgrid="false"
     fit-margin-top="0"
     fit-margin-left="0"
     fit-margin-right="0"
     fit-margin-bottom="0"
     inkscape:snap-global="false"
     inkscape:window-width="2560"
     inkscape:window-height="1323"
     inkscape:window-x="1680"
     inkscape:window-y="25"
     inkscape:window-maximized="0" />
  <metadata
     id="metadata5">
    <rdf:RDF>
      <cc:Work
         rdf:about="">
        <dc:format>image/svg+xml</dc:format>
        <dc:type
           rdf:resource="http://purl.org/dc/dcmitype/StillImage" />
        <dc:title></dc:title>
      </cc:Work>
    </rdf:RDF>
  </metadata>
  <g
     inkscape:label="Layer 1"
     inkscape:groupmode="layer"
     id="layer1"
     transform="translate(196.29564,-11.339291)">
    <path
       style="fill:none;stroke:#dd16c9;stroke-width:1.05833333;stroke-linecap:butt;stroke-linejoin:miter;stroke-opacity:1;stroke-miterlimit:4;stroke-dasharray:none;marker-end:url(#Arrow1Send)"
       d="m 219.78908,199.9524 c -2.21128,4.2636 -10.00384,2.24508 -14.04884,0.89674 -2.92463,-0.97487 -7.04048,0.51507 -9.86409,-0.89674 -2.14006,-1.07002 -5.04354,-2.68071 -7.47279,-3.28802 -2.43252,-0.60814 -5.50031,0.53787 -7.77168,-0.59782 -2.64303,-1.32152 -9.81583,-1.74522 -11.35864,-3.28803 -0.67162,-0.67163 -3.30081,0.44197 -4.18476,0 -1.61589,-0.80795 -3.74079,-1.51654 -5.67931,-1.79347 -3.61405,-0.51629 -7.87768,-0.16195 -11.95647,-1.79347 -1.60197,-0.64079 -2.86025,-1.74192 -4.48368,-2.39129 -1.07458,-0.42984 -2.63644,-0.12258 -3.58693,-0.59782 -4.27548,-2.13774 -8.79779,-3.20326 -13.15209,-5.38041 -0.68509,-0.34254 -1.89862,0.0177 -2.69021,-0.29891 -3.28564,-1.31426 -6.68356,-2.52676 -9.86408,-3.58694 -1.57287,-0.52428 -3.10714,-1.67351 -4.78259,-2.09238 -2.4539,-0.61347 -4.97353,-0.39688 -7.47278,-0.89673 -1.428805,-0.28576 -2.795881,-1.14734 -4.184758,-1.49456 -2.526136,-0.63153 -5.004462,-0.55931 -6.87496,-1.49455 -1.189831,-0.59492 -1.826392,-1.20223 -3.28803,-1.49456 -3.211724,-0.64235 -7.825131,0.87001 -10.760816,-0.59783 -1.116938,-0.55846 -3.275171,-2.07954 -3.885829,-2.6902 -0.474901,-0.4749 -4.194273,-0.60257 -4.782593,-0.89673 -3.077834,-1.53892 -6.365652,-3.31753 -9.864076,-4.48367 -3.423365,-1.14112 -7.885406,-1.70087 -11.059724,-3.28803 -3.180138,-1.59007 -5.616511,-5.88402 -7.472785,-8.66843 -0.399299,-0.59895 -2.562048,-1.6084 -3.288028,-2.09238 -3.186419,-2.12428 -5.897755,-0.80189 -8.66843,-1.49456 -2.05002,-0.5125 -11.034323,-5.355 -12.55428,-6.87496 -0.431768,-0.43177 -2.042917,0.21576 -2.690204,0 -6.8445724,-2.28152 -14.9626451,-0.89674 -22.418357,-0.89674 -1.710727,0 -4.019188,0.41504 -5.679316,0 -2.98959,-0.74739 -11.837495,-2.51125 -13.451014,-3.58693 -1.088925,-0.72595 1.197184,-2.38976 0.29891,-3.28803 -1.10023,-1.10023 -5.081294,1.19585 -5.679318,0.59783 -0.479986,-0.47999 0.899253,-2.08987 -0.896734,-3.88585 -0.369557,-0.36956 -3.383603,1.9968 -5.081495,0.29891 -0.498184,-0.49819 0.498187,-2.49093 0,-2.98912 -0.536336,-0.53634 -4.271586,-0.0964 -5.081492,-0.29891 -2.813883,-0.70347 -7.512624,-3.92568 -9.266256,-5.67931"
       id="path883" />
    <path
       style="fill:none;stroke:#dd16c9;stroke-width:1.05833333;stroke-linecap:butt;stroke-linejoin:miter;stroke-opacity:1;stroke-miterlimit:4;stroke-dasharray:none;marker-end:url(#marker1313)"
       d="m -48.035569,254.6532 c 4.281394,-4.24861 11.976086,-2.79639 17.934685,-4.78259 2.664593,-0.88819 4.447654,0.46638 7.771697,-1.19564 0.917844,-0.45892 4.408423,-3.06436 5.679318,-1.79347 1.343051,1.34305 2.931903,6.81775 2.989114,6.87496 1.20782,1.20782 5.8085937,-0.89673 7.1738754,-0.89673 0.7881012,0 6.15198313,-2.26614 6.27713898,-2.39129 0.7300542,-0.73006 3.36166882,0.63464 3.88584802,0.89673 2.0844669,1.04223 5.0714751,2.38127 6.5760516,3.88585 0.809782,0.80978 5.331508,-0.0245 6.576052,0.59782 0.523717,0.26186 11.592849,0.51975 12.255368,0.29891 0.818817,-0.27294 0.521909,-0.52191 0.896734,-0.89673 0.427042,-0.42704 2.338287,-0.57132 2.989114,-0.89673 0.272211,-0.13611 9.225386,-0.33979 9.266256,-0.29892 0.438838,0.43884 0.73329,0.81502 1.494557,1.19565 2.332204,1.1661 11.65389,-0.59874 15.244482,0.29891 1.782072,0.44552 5.180475,-1.9934 6.277142,-0.89673 0.429521,0.42952 2.653477,0.88449 3.586927,1.19564 1.718098,0.5727 3.404102,-0.59782 5.081508,-0.59782 4.2849,0 9.195593,1.14999 13.451019,0.29891 3.266784,-0.65336 4.441508,0 7.472786,0 0.594334,0 2.221018,-1.13132 3.288004,-0.59782 1.941402,0.9707 0.707231,5.78872 1.793478,6.87496 1.184564,1.18455 3.919934,2.41401 5.679304,3.58694 0.83585,0.55722 6.65628,-4.44356 10.16299,-2.69021 1.37962,0.68981 3.43218,0.37099 4.48368,0.89674 2.38954,1.19476 4.06501,3.07869 6.27714,4.18476 2.92722,1.46361 6.79275,-1.27788 8.96734,0.89673 1.24854,1.24854 6.50983,-1.67712 7.47278,-1.19564 1.75064,0.87531 8.29083,3.02847 10.76082,1.79347 1.66195,-0.83097 2.24239,-2.16739 3.88585,-2.98912 2.67859,-1.3393 4.69334,3.78103 7.47279,2.39129 1.12707,-0.56353 8.38742,-6.29503 9.26626,-7.17387 0.24493,-0.24495 2.83933,-1.49456 2.98911,-1.49456 0.1824,0 1.07918,-0.11647 1.19565,0 0.0299,0.0299 -0.13949,1.03623 0.2989,0.59782 1.57879,-1.57879 2.24147,-4.08487 4.18475,-5.3804 1.80486,-1.20323 3.92187,-1.06419 5.97824,-2.09238 1.18898,-0.59449 2.29552,-1.87472 3.58695,-2.39129 2.30593,-0.92237 5.44002,0.47831 7.77169,-0.29891 2.34341,-0.78114 4.08263,-2.04132 5.97823,-2.98912 1.11689,-0.55844 7.47215,5.3e-4 8.07062,-0.59782 0.51154,-0.51155 -0.1169,-1.58558 0.89672,-2.09238 0.55798,-0.27899 1.53443,0.27898 2.09238,0 1.48833,-0.74417 3.24691,-1.45345 4.48368,-2.6902 0.96449,-0.9645 -0.37417,-2.35367 0.89673,-2.98912 2.05584,-1.02792 5.28547,0.49583 7.47278,-0.59782 0.42498,-0.21248 0.68064,-1.57737 0.89673,-1.79347 1.25677,-1.25676 -10.0044,-10.4619 -8.07061,-10.4619 3.45564,0 5.16107,-0.37847 7.17388,-2.39129 0.38365,-0.38364 0.21418,-1.40983 0.59783,-1.79347 0.33562,-0.33562 1.09818,-1.39057 0.59783,-2.39129 -0.20019,-0.40035 -0.71311,-0.41418 -0.89676,-0.59782 -0.47077,-0.47078 -1.2447,-2.44038 -2.39127,-3.58694 -1.0967,-1.0967 -3.05671,-1.26324 -4.18476,-2.39129 -0.93088,-0.93088 -1.6351,-2.53183 -2.3913,-3.28803 -0.2871,-0.2871 -0.39328,-4.79834 0,-5.97823 0.28347,-0.85036 0.89675,-0.54912 0.89675,-1.49455"
       id="path1279" />
    <text
       xml:space="preserve"
       style="font-size:7.05556px;line-height:1.25;font-family:Lato;-inkscape-font-specification:Lato;stroke-width:0.264583"
       x="-57.709549"
       y="78.185692"
       id="text1533"><tspan
         sodipodi:role="line"
         id="tspan1531"
         x="-57.709549"
         y="78.185692"
         style="font-size:7.05556px;stroke-width:0.264583">Fluchtkogel</tspan></text>
    <text
       xml:space="preserve"
       style="font-size:7.05556px;line-height:1.25;font-family:Lato;-inkscape-font-specification:Lato;stroke-width:0.264583"
       x="203.7124"
       y="192.64531"
       id="text1537"><tspan
         sodipodi:role="line"
         id="tspan1535"
         x="203.7124"
         y="192.64531"
         style="font-size:7.05556px;stroke-width:0.264583">Vernagthütte</tspan></text>
  </g>
</svg>
