<?xml version="1.0" encoding="UTF-8" standalone="no"?>
<svg
   xmlns:dc="http://purl.org/dc/elements/1.1/"
   xmlns:cc="http://creativecommons.org/ns#"
   xmlns:rdf="http://www.w3.org/1999/02/22-rdf-syntax-ns#"
   xmlns:svg="http://www.w3.org/2000/svg"
   xmlns="http://www.w3.org/2000/svg"
   xmlns:sodipodi="http://sodipodi.sourceforge.net/DTD/sodipodi-0.dtd"
   xmlns:inkscape="http://www.inkscape.org/namespaces/inkscape"
   width="451.55557mm"
   height="337.96109mm"
   viewBox="0 0 451.55557 337.96109"
   version="1.1"
   id="svg1545"
   sodipodi:docname="43.svg"
   inkscape:version="1.0.2 (e86c8708, 2021-01-15)">
  <defs
     id="defs1539" />
  <sodipodi:namedview
     id="base"
     pagecolor="#ffffff"
     bordercolor="#666666"
     borderopacity="1.0"
     inkscape:pageopacity="0.0"
     inkscape:pageshadow="2"
     inkscape:zoom="0.88700423"
     inkscape:cx="853.33338"
     inkscape:cy="638.66663"
     inkscape:document-units="mm"
     inkscape:current-layer="layer1"
     inkscape:document-rotation="0"
     showgrid="false"
     fit-margin-top="0"
     fit-margin-left="0"
     fit-margin-right="0"
     fit-margin-bottom="0"
     inkscape:window-width="2560"
     inkscape:window-height="1323"
     inkscape:window-x="1680"
     inkscape:window-y="25"
     inkscape:window-maximized="1" />
  <metadata
     id="metadata1542">
    <rdf:RDF>
      <cc:Work
         rdf:about="">
        <dc:format>image/svg+xml</dc:format>
        <dc:type
           rdf:resource="http://purl.org/dc/dcmitype/StillImage" />
        <dc:title></dc:title>
      </cc:Work>
    </rdf:RDF>
  </metadata>
  <g
     inkscape:label="Layer 1"
     inkscape:groupmode="layer"
     id="layer1"
     transform="translate(178.15279,-56.293266)">
    <path
       style="fill:none;stroke:#dd16c9;stroke-width:1.05833333;stroke-linecap:butt;stroke-linejoin:miter;stroke-opacity:1;stroke-miterlimit:4;stroke-dasharray:none"
       d="m 272.56142,297.31053 c 0.0853,-1.40615 -1.1399,0.35154 -1.49143,0 -2.54185,-2.54184 -6.07547,-1.81715 -9.54524,-2.6846 -1.5898,-0.39745 -3.18789,-1.47278 -4.77263,-1.78973 -1.5498,-0.30996 -7.77568,-0.75582 -8.65037,-1.19316 -1.90222,-0.95111 -4.59486,-1.4121 -6.86065,-1.78973 -3.08324,-0.51387 -6.48284,0.61247 -9.54524,0 -1.9499,-0.38998 -3.93025,-1.56356 -5.96577,-1.78973 -1.86147,-0.20683 -4.46971,0.29982 -6.26406,-0.29829 -1.4637,-0.4879 -1.67889,-2.0326 -2.98289,-2.6846 -1.32929,-0.66464 -3.60198,-0.35175 -5.0709,-0.59658 -2.26623,-0.3777 -4.30614,-2.10428 -6.56235,-2.3863 -5.89727,-0.73717 -11.60756,-1.98003 -17.30073,-3.87776 -0.50065,-0.16687 -5.95353,-1.18088 -5.9658,-1.19315 -1.09527,-1.09528 -3.48562,-2.66896 -5.36919,-2.98289 -4.22159,-0.7036 -8.65577,-0.39952 -12.82642,-1.78973 -3.00043,-1.00014 -7.03395,0.62157 -10.1418,0 -2.39675,-0.47935 -4.80367,-1.02039 -7.15893,-1.49145 -0.75137,-0.15027 -1.64172,0.18615 -2.38631,0 -3.52425,-0.88106 -4.84304,-1.70203 -8.94865,-2.38631 -3.55307,-0.59217 -14.64152,-0.32364 -15.51102,-1.19315 -0.32088,-0.32087 -1.94643,0.14663 -2.38633,0 -1.21795,-0.40599 -3.15283,-2.05136 -5.36919,-2.6846 -2.71822,-0.77663 -6.28298,-0.90433 -8.65036,-2.08802 -1.3153,-0.65764 -2.07775,-1.48973 -3.877763,-1.78973 -6.035173,-1.00587 -18.871563,0.50216 -23.266511,-0.59658 -1.593408,-0.39835 -1.768867,-2.04629 -2.386309,-3.28117 -0.05463,-0.10926 0.04134,-1.49145 0,-1.49145 -0.341982,0 -2.625535,-0.87517 -3.579466,-1.19315 -1.075851,-0.35862 -2.80538,0.10723 -3.877752,0 -4.024871,-0.40249 -6.572311,-1.91104 -10.440103,-2.6846 -2.478479,-0.4957 -10.301661,-0.81494 -12.528127,0.29829 -0.381185,0.19059 -2.480175,1.19315 -2.684597,1.19315 -6.164633,0 -12.329266,0 -18.493899,0 -2.369688,0 -5.471877,0.57091 -7.755506,0 -0.513548,-0.12838 -1.331833,-0.73525 -1.491443,-0.89486 -0.348004,-0.34801 -1.740019,0.348 -2.088023,0 -1.473401,-1.4734 0.325676,-5.34181 -0.8948658,-6.56236 -1.7086527,-1.70865 -6.1705357,3.1788 -7.7555062,2.38632 -2.774913,-1.38746 -0.1101514,-5.12599 -2.38630884,-6.26407 -2.54710136,-1.27355 -5.80461166,1.74402 -7.45721766,1.19316 -5.4731095,-1.82437 -10.0122065,-3.36552 -14.6161445,-5.66749"
       id="path2140" />
    <path
       style="fill:none;stroke:#dd16c9;stroke-width:1.05833333;stroke-linecap:butt;stroke-linejoin:miter;stroke-opacity:1;stroke-miterlimit:4;stroke-dasharray:none"
       d="m -55.25785,229.30071 c -2.728872,1.4664 -5.615479,0.32429 -8.053794,-0.89487 -0.94342,-0.47171 -1.044798,-1.56641 -2.088021,-2.08802 -0.349998,-0.175 -1.198004,-0.005 -1.491443,-0.29829 -0.328416,-0.32841 -0.230724,-1.45766 -0.894865,-1.78973 -1.784514,-0.89226 -6.264064,-2.78329 -6.264064,-5.3692"
       id="path2142" />
    <text
       xml:space="preserve"
       style="font-size:7.05556px;line-height:1.25;font-family:Lato;-inkscape-font-specification:Lato;stroke-width:0.264583"
       x="-53.16983"
       y="202.75302"
       id="text2164"><tspan
         sodipodi:role="line"
         id="tspan2162"
         x="-53.16983"
         y="202.75302"
         style="font-size:7.05556px;stroke-width:0.264583">Fluchtkogel</tspan></text>
  </g>
</svg>
