<?xml version="1.0" encoding="UTF-8" standalone="no"?>
<svg
   xmlns:dc="http://purl.org/dc/elements/1.1/"
   xmlns:cc="http://creativecommons.org/ns#"
   xmlns:rdf="http://www.w3.org/1999/02/22-rdf-syntax-ns#"
   xmlns:svg="http://www.w3.org/2000/svg"
   xmlns="http://www.w3.org/2000/svg"
   xmlns:sodipodi="http://sodipodi.sourceforge.net/DTD/sodipodi-0.dtd"
   xmlns:inkscape="http://www.inkscape.org/namespaces/inkscape"
   width="108.37334mm"
   height="81.280006mm"
   viewBox="0 0 108.37334 81.280006"
   version="1.1"
   id="svg8"
   inkscape:version="1.0.2 (e86c8708, 2021-01-15)"
   sodipodi:docname="11.svg">
  <defs
     id="defs2" />
  <sodipodi:namedview
     id="base"
     pagecolor="#ffffff"
     bordercolor="#666666"
     borderopacity="1.0"
     inkscape:pageopacity="0.0"
     inkscape:pageshadow="2"
     inkscape:zoom="3.8964841"
     inkscape:cx="204.80001"
     inkscape:cy="153.60001"
     inkscape:document-units="mm"
     inkscape:current-layer="layer1"
     inkscape:document-rotation="0"
     showgrid="false"
     fit-margin-top="0"
     fit-margin-left="0"
     fit-margin-right="0"
     fit-margin-bottom="0"
     inkscape:window-width="2560"
     inkscape:window-height="1387"
     inkscape:window-x="1920"
     inkscape:window-y="25"
     inkscape:window-maximized="1" />
  <metadata
     id="metadata5">
    <rdf:RDF>
      <cc:Work
         rdf:about="">
        <dc:format>image/svg+xml</dc:format>
        <dc:type
           rdf:resource="http://purl.org/dc/dcmitype/StillImage" />
        <dc:title></dc:title>
      </cc:Work>
    </rdf:RDF>
  </metadata>
  <g
     inkscape:label="Layer 1"
     inkscape:groupmode="layer"
     id="layer1"
     transform="translate(26.216431,-42.514759)">
    <path
       style="fill:none;stroke:#dd16c9;stroke-width:0.26458300000000001px;stroke-linecap:butt;stroke-linejoin:miter;stroke-opacity:1"
       d="m 18.939128,88.485155 c 0.578508,0.317402 1.453644,1.593633 2.172898,1.833382 0.689893,0.229966 1.515557,-0.02283 2.308707,0.135808 1.486281,0.297257 2.995808,0.407419 4.549507,0.407419 0.734925,0 2.301814,0.210598 2.784025,-0.271613 0.118865,-0.118862 0.247428,0.111622 0.339516,0.203708 0.02424,0.02424 0.164098,-0.121661 0.407419,0 0.273148,0.136575 0.608793,0.180297 0.88274,0.271613 0.459674,0.153225 2.077622,-0.223972 2.444512,-0.407419 0.142213,-0.07111 0.652491,0.144653 1.08645,0 0.644504,-0.214833 1.353545,-0.202202 1.969188,-0.407418 0.561086,-0.187029 1.23552,0.167547 1.833386,0.0679 0.697563,-0.11626 1.261554,-0.608568 1.901285,-0.88274 0.521769,-0.223615 1.169328,-0.16343 1.697577,-0.339516 0.540599,-0.180199 1.047014,-0.557458 1.561772,-0.814837 0.376531,-0.188264 0.868153,-0.02666 1.222256,-0.203708 0.354007,-0.177003 0.764773,-0.431916 1.154353,-0.543224 1.649349,-0.471244 3.473678,-0.34164 5.160634,-0.679032 0.220171,-0.04403 0.465561,0.0033 0.679032,-0.0679 0.398312,-0.132771 -0.547629,-1.291627 -1.358064,-1.561772 -1.348972,-0.449657 -4.007053,0.09002 -4.956923,-0.543224 -0.127783,-0.08519 -0.06791,-0.338884 -0.06791,-0.475322 0,-1.532879 2.754911,-0.32985 1.765483,-2.308706 -0.304689,-0.609375 -1.190517,-0.322908 -1.697577,-0.407419 -1.166387,-0.194397 -1.631741,-0.441714 -2.648223,-0.611126 -0.339812,-0.05664 -0.94793,-0.07062 -1.15435,0.135805 -0.175784,0.175781 -2.031066,-0.192286 -2.308707,-0.271613 -0.153892,-0.04397 -0.362151,0.04527 -0.475321,-0.0679 -0.193043,-0.19304 -2.47124,-0.637855 -2.512415,-0.679029 -0.08615,-0.08615 -0.130236,-0.40185 -0.20371,-0.475322 -0.751618,-0.75162 -1.551506,-2.657697 -2.376607,-2.987738 -0.795628,-0.318249 -1.502494,0.02964 -1.96919,-0.203708 C 32.268746,75.899436 31.445929,75.793593 30.61846,75.379858 30.022441,75.081847 29.537701,75.249741 29.056688,74.768729 28.450255,74.162296 27.368866,73.551352 26.544274,73.139054 26.163612,72.948724 25.96386,73.033962 25.593631,72.663733 25.34755,72.417652 25.095714,72.097914 24.846696,71.848896 24.285264,71.287463 23.528743,71.549491 23.013314,71.034059 22.383158,70.403903 21.49414,69.786498 21.044123,69.336481 20.546932,68.839289 19.847625,69.158528 19.414449,68.725354 19.285488,68.596392 18.999175,68.247414 18.803322,68.182129 18.5032,68.082089 18.169097,68.181931 17.852677,68.046323 17.596833,67.936675 17.386378,67.683254 17.105745,67.571001 16.691913,67.405469 16.186318,67.342835 15.815586,67.09568 15.011399,66.559555 14.14056,66.111023 13.371075,65.533908 13.02542,65.274668 12.907556,64.974439 12.692043,64.651168 12.566802,64.463308 12.203788,64.230816 12.013011,64.04004 11.637876,63.664906 8.9207538,63.077191 7.9388269,62.749881 7.7102322,62.673683 7.3280071,62.139062 7.1918922,62.002947 c -0.080026,-0.08002 -0.2285417,0.0222 -0.3395159,0 C 6.4047119,61.913415 6.0717046,61.570119 5.6301203,61.459723 5.142107,61.33772 4.5923293,61.53404 4.0004458,61.731335 3.3893588,61.935031 2.8314531,61.454843 2.4386765,61.323916 2.3133487,61.28214 2.2542725,61.430653 2.1670632,61.459723 2.0466037,61.499875 1.5086,61.300691 1.3522259,61.256013 1.050294,61.169747 0.20387026,60.777693 0.19787322,60.780692 -1.0437944,61.401525 -0.113494,61.935044 -2.042929,61.935044 c -0.2967427,0 -0.6811516,0.06684 -0.9506434,-0.0679 -0.078494,-0.03925 -0.7150153,-1.63374 -0.8148371,-1.833383 -0.1179782,-0.235957 0.084313,-0.6298 0,-0.882741 -0.069487,-0.20846 -0.4830236,-0.329717 -0.6111279,-0.543224 -0.2322928,-0.387155 0.037161,-0.882741 -0.5432248,-0.882741 -0.1817465,0 -0.4545213,0.0575 -0.6111277,0.135807 -0.1288206,0.06441 -0.6225587,-0.0679 -0.5432248,-0.0679 0.025673,0 -0.3730728,-0.508879 -0.4074186,-0.543224 -0.4134001,-0.4134 -0.7472122,-0.984734 -1.0864495,-1.154353"
       id="path885" />
  </g>
</svg>
