<?xml version="1.0" encoding="UTF-8" standalone="no"?>
<svg
   xmlns:dc="http://purl.org/dc/elements/1.1/"
   xmlns:cc="http://creativecommons.org/ns#"
   xmlns:rdf="http://www.w3.org/1999/02/22-rdf-syntax-ns#"
   xmlns:svg="http://www.w3.org/2000/svg"
   xmlns="http://www.w3.org/2000/svg"
   xmlns:sodipodi="http://sodipodi.sourceforge.net/DTD/sodipodi-0.dtd"
   xmlns:inkscape="http://www.inkscape.org/namespaces/inkscape"
   width="108.37334mm"
   height="81.280006mm"
   viewBox="0 0 108.37334 81.280006"
   version="1.1"
   id="svg8"
   inkscape:version="1.0.2 (e86c8708, 2021-01-15)"
   sodipodi:docname="26.svg">
  <defs
     id="defs2" />
  <sodipodi:namedview
     id="base"
     pagecolor="#ffffff"
     bordercolor="#666666"
     borderopacity="1.0"
     inkscape:pageopacity="0.0"
     inkscape:pageshadow="2"
     inkscape:zoom="3.6881508"
     inkscape:cx="204.80001"
     inkscape:cy="153.60001"
     inkscape:document-units="mm"
     inkscape:current-layer="layer1"
     inkscape:document-rotation="0"
     showgrid="false"
     fit-margin-top="0"
     fit-margin-left="0"
     fit-margin-right="0"
     fit-margin-bottom="0"
     inkscape:window-width="2560"
     inkscape:window-height="1323"
     inkscape:window-x="1920"
     inkscape:window-y="25"
     inkscape:window-maximized="1" />
  <metadata
     id="metadata5">
    <rdf:RDF>
      <cc:Work
         rdf:about="">
        <dc:format>image/svg+xml</dc:format>
        <dc:type
           rdf:resource="http://purl.org/dc/dcmitype/StillImage" />
        <dc:title></dc:title>
      </cc:Work>
    </rdf:RDF>
  </metadata>
  <g
     inkscape:label="Layer 1"
     inkscape:groupmode="layer"
     id="layer1"
     transform="translate(2.7819066,-149.86)">
    <path
       style="fill:none;stroke:#dd16c9;stroke-width:0.35277778;stroke-linecap:butt;stroke-linejoin:miter;stroke-opacity:1;stroke-miterlimit:4;stroke-dasharray:none"
       d="m 47.650436,206.3184 c 0.449122,-0.90027 0.618093,-1.95358 1.076081,-2.86955 0.288864,-0.57773 1.006838,-1.30378 1.147821,-2.00869 0.133501,-0.6675 0.322982,-1.9717 0.286954,-2.2239 -0.0534,-0.37383 -0.358693,-1.23141 -0.358693,-1.36303 0,-0.19844 0.01082,-0.33705 -0.07174,-0.50218 -0.159237,-0.31847 0.358693,-0.63382 0.358693,-0.86086 0,-0.607 0,-1.21308 0,-1.79347 0,-0.81318 -0.175641,-1.86395 0,-2.65433 0.08636,-0.38864 0.215217,-0.7472 0.215217,-1.14783 0,-0.11956 0,-0.47825 0,-0.35869 0,0.19328 0.319278,-0.12929 0.358693,-0.28695 0.129619,-0.51847 0.02849,-1.43581 -0.07174,-1.93695 -0.06096,-0.30483 -0.358693,-1.17173 -0.358693,-0.86086 0,0.0983 0.22339,-0.41409 0,-0.86087 -0.0043,-0.009 -0.203602,-0.0601 -0.215217,-0.0717 -0.449607,-0.4496 -0.634418,-0.91576 -0.932604,-1.36303 -0.03602,-0.054 0,-0.50021 0,-0.50217 0,-0.45566 -0.249208,-1.43853 -0.143478,-1.65 0.123836,-0.24766 0.153032,-1.15737 0.215217,-1.21956 0.04256,-0.0426 0.32022,-0.31501 0.358693,-0.43043 0.06154,-0.18461 -0.08614,-0.47336 0,-0.64565 0.202534,-0.40506 2.008685,-0.0691 2.008685,-0.64564 0,-0.46023 0.190741,-1.22632 0.143478,-1.79348 -0.05681,-0.68173 -0.274044,-0.99714 -0.143478,-1.64999 0.06885,-0.34423 0.185037,-1.02314 0.07174,-1.36303 -0.121782,-0.36535 -0.347839,-0.70653 -0.57391,-0.93261 -0.088,-0.088 -0.02998,-0.37687 -0.07174,-0.50217 -0.06444,-0.19331 -0.521486,-0.5408 -0.64565,-0.78912 -0.119565,-0.23913 -0.547743,-0.90644 -0.358696,-0.71739 0.03781,0.0378 0.125212,0.14348 0.07174,0.14348 -0.111168,0 -0.529884,-0.50217 -0.573911,-0.50217 -0.477705,0 -1.724869,-0.21836 -2.008685,-0.50218 -0.325255,-0.32525 -0.798808,-0.58601 -1.076079,-0.9326 -0.473392,-0.59174 -0.346207,-3.48092 -0.143478,-4.08911 0.153559,-0.46068 0.332383,-0.40412 0.64565,-0.71739 0.287861,-0.28786 0.331792,-1.0716 0.573907,-1.43477 0.507162,-0.76074 1.079119,-0.76724 1.86521,-1.2913 0.05088,-0.0339 0.265393,-0.40348 0.286953,-0.43043 0.679514,-0.84939 0.97132,-1.79461 1.86521,-2.15216 0.552161,-0.22087 1.146151,-0.17184 1.721728,-0.28696 0.579959,-0.11599 2.300261,-1.4417 2.582595,-1.86521"
       id="path883" />
  </g>
</svg>
