<?xml version="1.0" encoding="UTF-8" standalone="no"?>
<svg
   xmlns:dc="http://purl.org/dc/elements/1.1/"
   xmlns:cc="http://creativecommons.org/ns#"
   xmlns:rdf="http://www.w3.org/1999/02/22-rdf-syntax-ns#"
   xmlns:svg="http://www.w3.org/2000/svg"
   xmlns="http://www.w3.org/2000/svg"
   xmlns:sodipodi="http://sodipodi.sourceforge.net/DTD/sodipodi-0.dtd"
   xmlns:inkscape="http://www.inkscape.org/namespaces/inkscape"
   width="81.280006mm"
   height="108.37334mm"
   viewBox="0 0 81.280006 108.37334"
   version="1.1"
   id="svg8"
   inkscape:version="1.0.2 (e86c8708, 2021-01-15)"
   sodipodi:docname="5.svg">
  <defs
     id="defs2" />
  <sodipodi:namedview
     id="base"
     pagecolor="#ffffff"
     bordercolor="#666666"
     borderopacity="1.0"
     inkscape:pageopacity="0.0"
     inkscape:pageshadow="2"
     inkscape:zoom="2.7661132"
     inkscape:cx="153.60001"
     inkscape:cy="204.80001"
     inkscape:document-units="mm"
     inkscape:current-layer="layer1"
     inkscape:document-rotation="0"
     showgrid="false"
     fit-margin-top="0"
     fit-margin-left="0"
     fit-margin-right="0"
     fit-margin-bottom="0"
     inkscape:window-width="2560"
     inkscape:window-height="1323"
     inkscape:window-x="1920"
     inkscape:window-y="25"
     inkscape:window-maximized="1" />
  <metadata
     id="metadata5">
    <rdf:RDF>
      <cc:Work
         rdf:about="">
        <dc:format>image/svg+xml</dc:format>
        <dc:type
           rdf:resource="http://purl.org/dc/dcmitype/StillImage" />
        <dc:title></dc:title>
      </cc:Work>
    </rdf:RDF>
  </metadata>
  <g
     inkscape:label="Layer 1"
     inkscape:groupmode="layer"
     id="layer1"
     transform="translate(22.497147,26.972383)">
    <path
       style="fill:none;stroke:#dd16c9;stroke-width:0.52916667;stroke-linecap:butt;stroke-linejoin:miter;stroke-opacity:1;stroke-miterlimit:4;stroke-dasharray:none"
       d="m 43.311199,80.540087 c 0,-0.223186 -0.05784,-0.453998 0,-0.669562 1.345284,-5.014248 3.156503,-10.024128 3.156503,-15.304265 0,-4.124682 -2.151052,-7.75849 -2.678245,-11.765155 -0.15439,-1.173356 0.06913,-2.050441 0,-3.156506 -0.256463,-4.103383 0.05254,-8.302828 -0.956516,-12.339063 C 42.312855,35.225197 40.455464,33.725771 39.580783,31.75774 39.080845,30.63288 39.285923,30.417043 39.102525,29.270797 38.735193,26.974975 38.243661,23.343061 36.806886,21.427359 35.85727,20.161206 34.581701,19.393943 33.267774,18.55781 32.632915,18.153809 32.243382,17.710833 31.641696,17.409989 31.295229,17.236756 30.341877,17.169644 30.015617,17.123035 29.20093,17.00665 28.436393,16.692431 27.624326,16.549125 25.693063,16.208312 23.417403,16.361326 22.363483,14.253483 21.488485,12.503487 23.423229,10.668906 23.702606,8.9926434 23.822631,8.2724952 23.449616,4.1546102 23.224347,3.2535425 22.962516,2.2062159 22.041969,1.9667838 21.311315,1.3405098 19.50176,-0.21053588 17.385292,-1.5680976 16.146124,-3.6333769 c -0.679542,-1.1325743 0.690719,-2.5080981 1.339125,-3.156505 0.210193,-0.2101927 -0.286956,-1.5654205 -0.286956,-1.9130333 0,-1.0636885 0.57391,-2.6990468 0.57391,-3.4434598"
       id="path885" />
  </g>
</svg>
