<?xml version="1.0" encoding="UTF-8" standalone="no"?>
<svg
   xmlns:dc="http://purl.org/dc/elements/1.1/"
   xmlns:cc="http://creativecommons.org/ns#"
   xmlns:rdf="http://www.w3.org/1999/02/22-rdf-syntax-ns#"
   xmlns:svg="http://www.w3.org/2000/svg"
   xmlns="http://www.w3.org/2000/svg"
   xmlns:sodipodi="http://sodipodi.sourceforge.net/DTD/sodipodi-0.dtd"
   xmlns:inkscape="http://www.inkscape.org/namespaces/inkscape"
   width="451.55557mm"
   height="338.66666mm"
   viewBox="0 0 451.55557 338.66666"
   version="1.1"
   id="svg8"
   inkscape:version="1.0.2 (e86c8708, 2021-01-15)"
   sodipodi:docname="1.svg">
  <defs
     id="defs2" />
  <sodipodi:namedview
     id="base"
     pagecolor="#ffffff"
     bordercolor="#666666"
     borderopacity="1.0"
     inkscape:pageopacity="0.0"
     inkscape:pageshadow="2"
     inkscape:zoom="0.88515628"
     inkscape:cx="853.33338"
     inkscape:cy="639.99998"
     inkscape:document-units="mm"
     inkscape:current-layer="layer1"
     inkscape:document-rotation="0"
     showgrid="false"
     fit-margin-top="0"
     fit-margin-left="0"
     fit-margin-right="0"
     fit-margin-bottom="0"
     inkscape:window-width="2560"
     inkscape:window-height="1323"
     inkscape:window-x="1680"
     inkscape:window-y="25"
     inkscape:window-maximized="1" />
  <metadata
     id="metadata5">
    <rdf:RDF>
      <cc:Work
         rdf:about="">
        <dc:format>image/svg+xml</dc:format>
        <dc:type
           rdf:resource="http://purl.org/dc/dcmitype/StillImage" />
        <dc:title></dc:title>
      </cc:Work>
    </rdf:RDF>
  </metadata>
  <g
     inkscape:label="Layer 1"
     inkscape:groupmode="layer"
     id="layer1"
     transform="translate(193.27184,191.25595)">
    <path
       style="fill:none;stroke:#dd19c3;stroke-width:1.05833333;stroke-linecap:butt;stroke-linejoin:miter;stroke-opacity:1;stroke-miterlimit:4;stroke-dasharray:none"
       d="m 11.482492,146.51396 c 0,-2.19202 -0.213879,-4.39449 0,-6.57603 0.833239,-8.49908 3.019642,-16.59914 3.586935,-25.10856 0.566208,-8.4931 1.192609,-16.724872 2.989114,-25.108566 0.44032,-2.054833 0.232466,-3.985418 0.896737,-5.978234 0.604557,-1.813665 -0.102563,-6.113144 0,-8.369511 0.204819,-4.506047 0.399724,-9.276866 0.896733,-13.749938 0.237109,-2.133994 1.230323,-4.163269 1.494558,-6.277139 0.681992,-5.455954 1.395518,-11.167737 1.793467,-16.739042 0.113893,-1.594485 0.399931,-3.292173 0.896734,-4.782581 C 24.78417,31.582163 24.178449,12.129944 23.140036,9.0147105 22.520691,7.156674 20.981153,3.8667126 19.553098,2.4386585 17.988165,0.87372481 11.645335,-0.47349647 9.3901114,-0.84936884 c -1.5664392,-0.26107226 -3.5831859,0.49943808 -5.0814949,0 C 1.4361147,-1.8068694 -2.9050707,-3.9447557 -5.8543731,-4.4363039 c -2.0056396,-0.3342746 -4.1684309,-0.589661 -5.9782289,-1.4945571 -0.939834,-0.4699185 -2.610919,-2.1802328 -3.885848,-2.6902039 -7.09886,-2.8395451 -16.145375,-1.5070271 -19.130332,-10.4619001 -0.788321,-2.364967 -7.127796,-8.162766 -6.57605,-9.266256 0.468305,-0.936612 6.629585,-2.418056 7.771696,-2.989114 3.345839,-1.672918 7.010617,-2.239074 10.760811,-2.989114 3.233618,-0.646722 5.908672,-1.842112 8.967345,-2.989115 1.913901,-0.717711 4.0845108,-0.863317 5.978229,-1.494557 1.1528266,-0.384275 2.6809858,0.102709 3.885848,-0.29891 2.3617079,-0.787236 4.95188872,-2.34269 7.4727858,-3.288025 4.7295725,-1.773592 9.4807962,-2.444927 14.0488372,-3.586938 1.536788,-0.384196 2.923374,-1.80618 4.483672,-2.391291 2.298568,-0.861964 4.112125,-1.607695 6.277139,-2.690203 0.895628,-0.447813 2.011619,-0.08169 2.989114,-0.298911 3.288972,-0.730882 6.698705,-2.101011 9.864077,-3.288027 5.132353,-1.924632 10.055002,-4.846225 15.244484,-6.576052 1.891853,-0.630616 4.333381,0.485942 6.277139,0 3.905748,-0.976434 8.068532,-3.485915 11.358624,-5.679316 0.956944,-0.637963 2.235411,-0.334669 3.288029,-0.597823 1.44997,-0.362492 2.799715,-1.239446 4.184756,-1.793468 3.303244,-1.321297 6.358282,-3.912896 9.86409,-5.081494 3.057737,-1.019242 7.113429,0.709133 10.162986,-0.597824 2.16178,-0.926483 5.02576,-2.639541 7.47279,-2.989114 2.05261,-0.293233 4.31842,-0.356198 6.27713,-1.195647 2.99495,-1.283552 5.04357,-2.887448 8.07061,-4.184758 1.60502,-0.687867 3.82982,-0.868725 5.08151,-1.494557"
       id="path883" />
  </g>
</svg>
