<?xml version="1.0" encoding="UTF-8" standalone="no"?>
<svg
   xmlns:dc="http://purl.org/dc/elements/1.1/"
   xmlns:cc="http://creativecommons.org/ns#"
   xmlns:rdf="http://www.w3.org/1999/02/22-rdf-syntax-ns#"
   xmlns:svg="http://www.w3.org/2000/svg"
   xmlns="http://www.w3.org/2000/svg"
   xmlns:sodipodi="http://sodipodi.sourceforge.net/DTD/sodipodi-0.dtd"
   xmlns:inkscape="http://www.inkscape.org/namespaces/inkscape"
   version="1.1"
   id="svg869"
   width="409.60001"
   height="307.20001"
   viewBox="0 0 409.60001 307.20001"
   sodipodi:docname="2.svg"
   inkscape:version="1.0.2 (e86c8708, 2021-01-15)">
  <metadata
     id="metadata875">
    <rdf:RDF>
      <cc:Work
         rdf:about="">
        <dc:format>image/svg+xml</dc:format>
        <dc:type
           rdf:resource="http://purl.org/dc/dcmitype/StillImage" />
        <dc:title></dc:title>
      </cc:Work>
    </rdf:RDF>
  </metadata>
  <defs
     id="defs873" />
  <sodipodi:namedview
     pagecolor="#ffffff"
     bordercolor="#666666"
     borderopacity="1"
     objecttolerance="10"
     gridtolerance="10"
     guidetolerance="10"
     inkscape:pageopacity="0"
     inkscape:pageshadow="2"
     inkscape:window-width="2560"
     inkscape:window-height="1323"
     id="namedview871"
     showgrid="false"
     fit-margin-top="0"
     fit-margin-left="0"
     fit-margin-right="0"
     fit-margin-bottom="0"
     inkscape:zoom="3.6881509"
     inkscape:cx="204.8"
     inkscape:cy="175.29109"
     inkscape:window-x="1920"
     inkscape:window-y="25"
     inkscape:window-maximized="1"
     inkscape:current-layer="g877" />
  <g
     inkscape:groupmode="layer"
     inkscape:label="Image"
     id="g877">
    <path
       style="fill:none;stroke:#dd16c9;stroke-width:1px;stroke-linecap:butt;stroke-linejoin:miter;stroke-opacity:1"
       d="m 195.21978,94.356226 c -4.85772,3.895211 -7.04942,8.676254 -11.11668,12.743514 -0.52544,0.52544 -2.14949,0.79379 -2.71139,1.35569 -0.75701,0.75701 -1.25912,1.53026 -2.16911,2.44025 -0.8963,0.8963 -1.70073,7.39464 -3.79594,9.48985 -1.09492,1.09492 -3.79594,3.42813 -3.79594,4.33822 0,0.89397 -0.8553,7.40451 -1.08455,7.86302 -0.61502,1.23003 -0.82884,1.64225 -1.62683,2.44024 -0.12782,0.12782 0,0.72304 0,0.54228 0,-0.18076 0,-0.72304 0,-0.54228 0,0.45685 0.0601,1.29559 -0.27114,1.62683 -1.34306,1.34306 -3.27442,1.64067 -4.8805,2.71139 -0.66817,0.44545 -2.61647,2.44025 -2.98252,2.44025 -0.27798,0 -0.89919,0.0858 -1.08456,0.27114 -0.7963,0.7963 0.044,1.04051 -0.81341,1.89797 -0.74014,0.74013 -1.38344,1.38344 -2.16911,2.16911 -1.02957,1.02957 -4.61181,2.17402 -5.42277,3.79594 -1.18225,2.3645 -2.59464,4.87012 -4.33822,7.0496 -1.06687,1.33359 -6.50733,6.4695 -6.50733,6.50732 0,4.58256 -2.7678,7.6483 -5.15163,10.03213 -0.63803,0.63803 0.11769,3.67825 -0.54228,4.33822 -0.71213,0.71213 -2.08523,8.8637 -2.1691,8.94757 -0.63026,0.63026 -1.13002,1.98889 -1.62684,2.98253 -0.56897,1.13795 -5.82557,2.9747 -7.0496,5.42277 -0.22264,0.44527 -0.31391,1.1701 -0.54228,1.62683 -0.11432,0.22864 -0.72303,0.36152 -0.54227,0.54228 0.47204,0.47204 0,2.92247 0,2.44024 0,-0.18075 0.18076,-0.54227 0,-0.54227 -0.42677,0 -0.54228,3.00389 -0.54228,2.44024 0,-0.18075 0.12782,-0.67009 0,-0.54227 -0.68006,0.68006 -1.59462,1.59461 -2.16911,2.16911 -1.51165,1.51164 -3.12771,4.07349 -5.96505,5.96504 -0.96842,0.64562 -1.67731,4.11756 -2.71138,5.15164 -0.31633,0.31633 -1.03937,0.22595 -1.3557,0.54227 -1.41994,1.41995 -0.22018,3.47385 -1.89797,5.15164 -0.94956,0.94956 -2.08464,2.08464 -2.98252,2.98252 -0.26412,0.26413 -0.45809,1.2715 -0.81342,1.62683 -0.32873,0.32874 -1.0783,0.53603 -1.35569,0.81342 -0.12534,0.12534 0.0818,0.64971 0,0.81342 -0.90263,1.80525 0.25678,1.88361 1.08456,2.71138 1.13185,1.13185 2.32721,5.58088 2.98252,6.23619 2.52971,2.52971 3.99785,1.21723 5.69391,4.60935 0.26264,0.52529 -0.31826,0.67205 0,1.62684 0.2701,0.81031 0.83085,0.52484 0,1.35569 -2.1642,2.1642 -3.32938,0.81341 -4.06708,0.81341 -1.14653,0 -2.10245,-0.64451 -2.98252,-1.08455 -0.16168,-0.0808 -0.72304,0 -0.54228,0 0.18076,0 0.54228,0.18076 0.54228,0 0,-0.33763 -2.5452,-0.81342 -2.44025,-0.81342 0.18076,0 0.72304,0 0.54228,0 -1.13969,0 -8.381441,-1.20819 -9.760992,-1.89797 -0.274941,-0.13747 -0.621784,-0.89292 -0.813416,-1.08455 -1.720676,-1.72068 -3.652746,-1.2704 -4.338217,-0.81342"
       id="path883" />
  </g>
</svg>
