<?xml version="1.0" encoding="UTF-8" standalone="no"?>
<svg
   xmlns:dc="http://purl.org/dc/elements/1.1/"
   xmlns:cc="http://creativecommons.org/ns#"
   xmlns:rdf="http://www.w3.org/1999/02/22-rdf-syntax-ns#"
   xmlns:svg="http://www.w3.org/2000/svg"
   xmlns="http://www.w3.org/2000/svg"
   xmlns:sodipodi="http://sodipodi.sourceforge.net/DTD/sodipodi-0.dtd"
   xmlns:inkscape="http://www.inkscape.org/namespaces/inkscape"
   version="1.1"
   id="svg877"
   width="307.20001"
   height="409.60001"
   viewBox="0 0 307.20001 409.60001"
   sodipodi:docname="13.svg"
   inkscape:version="1.0.2 (e86c8708, 2021-01-15)">
  <metadata
     id="metadata883">
    <rdf:RDF>
      <cc:Work
         rdf:about="">
        <dc:format>image/svg+xml</dc:format>
        <dc:type
           rdf:resource="http://purl.org/dc/dcmitype/StillImage" />
        <dc:title></dc:title>
      </cc:Work>
    </rdf:RDF>
  </metadata>
  <defs
     id="defs881" />
  <sodipodi:namedview
     pagecolor="#ffffff"
     bordercolor="#666666"
     borderopacity="1"
     objecttolerance="10"
     gridtolerance="10"
     guidetolerance="10"
     inkscape:pageopacity="0"
     inkscape:pageshadow="2"
     inkscape:window-width="2560"
     inkscape:window-height="1323"
     id="namedview879"
     showgrid="false"
     fit-margin-top="0"
     fit-margin-left="0"
     fit-margin-right="0"
     fit-margin-bottom="0"
     inkscape:zoom="2.7661132"
     inkscape:cx="153.60001"
     inkscape:cy="204.8"
     inkscape:window-x="1920"
     inkscape:window-y="25"
     inkscape:window-maximized="1"
     inkscape:current-layer="g885" />
  <g
     inkscape:groupmode="layer"
     inkscape:label="Image"
     id="g885">
    <path
       style="fill:none;stroke:#dd16c9;stroke-width:1px;stroke-linecap:butt;stroke-linejoin:miter;stroke-opacity:1"
       d="m 133.03866,408.15393 c 0.45851,-4.46684 -0.91893,-8.91683 -0.36152,-13.37617 0.46735,-3.73879 0.5739,-7.46225 1.08456,-11.20706 0.77729,-5.70012 2.84169,-11.22383 3.25366,-16.99135 0.66368,-9.29157 2.50575,-17.9515 4.33822,-27.11386 1.35049,-6.75245 2.23702,-13.64125 4.33821,-20.24501 1.31482,-4.13228 4.0766,-7.30375 5.78429,-11.20706 3.19908,-7.31217 4.94987,-16.07288 6.50733,-23.86019 1.27125,-6.35627 0.20567,-14.20524 -1.80759,-20.24502 -0.77032,-2.31095 -2.03693,-4.61342 -3.61518,-6.50732 -0.38573,-0.46288 -1.44607,-1.68709 -1.44607,-1.08456 0,0.49686 -0.13932,-1.00167 -0.36152,-1.44607 -1.33784,-2.67568 -3.43413,-5.35023 -5.78429,-7.23036 -1.61494,-1.29195 -4.88921,-1.63555 -6.14581,-2.89215 -1.53749,-1.53748 -0.31721,-9.39711 0.36152,-11.20706 0.54702,-1.45873 3.37478,-10.24362 3.9767,-10.84554 0.43891,-0.43891 -0.48339,-3.48513 -0.36152,-4.33822 0.27328,-1.91299 0.98856,-3.42319 1.80759,-5.06125 0.94457,-1.88913 -0.009,-6.45571 0.36152,-8.67644 0.89605,-5.37634 -1.88892,-13.33107 -0.72304,-19.16046 1.47381,-7.36903 5.20701,-14.22162 9.03795,-20.60653 1.14593,-1.90987 1.87223,-4.76437 3.25367,-6.1458 0.42505,-0.42506 1.07692,-7.20748 1.08455,-7.23037 1.08092,-3.24275 6.99213,-11.7535 9.03795,-14.82224 2.03389,-3.05083 5.19746,-4.97215 6.86885,-8.31491 5.30541,-10.61083 7.18165,-21.43522 16.99135,-29.282971 1.87528,-1.500229 8.53444,-2.750152 10.1225,-4.338217 0.87993,-0.87993 1.31949,-2.706822 2.53063,-3.615181 2.48138,-1.861034 5.27247,-2.784788 7.9534,-4.699735 2.51329,-1.795206 4.32907,-3.973649 7.59188,-5.061254 1.55543,-0.518476 3.97622,2.42e-4 5.42277,-0.723036 0.79783,-0.398912 1.41871,-1.357349 2.16911,-1.80759 2.34866,-1.409199 5.13881,-3.292442 7.23036,-4.338218 2.63819,-1.319094 6.81853,-8.626121 9.03795,-10.845543 4.08621,-4.086203 10.18457,-5.484831 14.09921,-9.39947 1.95872,-1.958722 4.72772,-7.174389 3.25366,-10.122507 -0.70215,-1.404314 -4.71007,-2.894212 -6.50732,-3.253663 -2.99964,-0.599927 -5.27591,1.807591 -7.9534,1.807591 -0.77162,0 -1.1797,-0.997581 -1.80759,-1.446073 -2.23231,-1.594503 -1.14338,-4.279397 0,-5.422771"
       id="path889" />
  </g>
</svg>
