<?xml version="1.0" encoding="UTF-8" standalone="no"?>
<svg
   xmlns:dc="http://purl.org/dc/elements/1.1/"
   xmlns:cc="http://creativecommons.org/ns#"
   xmlns:rdf="http://www.w3.org/1999/02/22-rdf-syntax-ns#"
   xmlns:svg="http://www.w3.org/2000/svg"
   xmlns="http://www.w3.org/2000/svg"
   xmlns:sodipodi="http://sodipodi.sourceforge.net/DTD/sodipodi-0.dtd"
   xmlns:inkscape="http://www.inkscape.org/namespaces/inkscape"
   width="451.55557mm"
   height="338.66666mm"
   viewBox="0 0 451.55557 338.66666"
   version="1.1"
   id="svg8"
   inkscape:version="1.0.2 (e86c8708, 2021-01-15)"
   sodipodi:docname="1.svg">
  <defs
     id="defs2" />
  <sodipodi:namedview
     id="base"
     pagecolor="#ffffff"
     bordercolor="#666666"
     borderopacity="1.0"
     inkscape:pageopacity="0.0"
     inkscape:pageshadow="2"
     inkscape:zoom="0.88515628"
     inkscape:cx="853.33338"
     inkscape:cy="639.99997"
     inkscape:document-units="mm"
     inkscape:current-layer="layer1"
     inkscape:document-rotation="0"
     showgrid="false"
     fit-margin-top="0"
     fit-margin-left="0"
     fit-margin-right="0"
     fit-margin-bottom="0"
     inkscape:window-width="2560"
     inkscape:window-height="1323"
     inkscape:window-x="1680"
     inkscape:window-y="25"
     inkscape:window-maximized="1" />
  <metadata
     id="metadata5">
    <rdf:RDF>
      <cc:Work
         rdf:about="">
        <dc:format>image/svg+xml</dc:format>
        <dc:type
           rdf:resource="http://purl.org/dc/dcmitype/StillImage" />
        <dc:title></dc:title>
      </cc:Work>
    </rdf:RDF>
  </metadata>
  <g
     inkscape:label="Layer 1"
     inkscape:groupmode="layer"
     id="layer1"
     transform="translate(178.15279,192.0119)">
    <path
       style="fill:none;stroke:#dd19c3;stroke-width:1.05833327;stroke-linecap:butt;stroke-linejoin:miter;stroke-opacity:1;stroke-miterlimit:4;stroke-dasharray:2.11666654,2.11666654;stroke-dashoffset:0"
       d="m 48.422076,106.0028 c 1.651386,0 2.31427,0.11465 3.885848,-0.29892 11.567385,-3.04403 23.145345,-4.68392 34.972643,-7.173862 4.589912,-0.966311 9.100846,-3.005799 13.749923,-3.586956 2.16135,-0.270166 4.4214,0.009 6.57606,-0.2989 5.03854,-0.719799 9.99299,-2.444036 14.94557,-3.58693 2.15413,-0.497125 4.23661,-0.620051 6.27713,-1.494552 2.65785,-1.139084 5.289,-3.144758 7.47279,-4.782581 0.72175,-0.541338 1.96844,-0.535861 2.6902,-0.896753 3.13066,-1.565328 6.13889,-4.240794 9.26626,-5.978234 4.1854,-2.325211 9.22748,-2.67081 13.451,-4.782581 2.65393,-1.326957 5.105,-3.150307 7.77171,-4.483661 0.85871,-0.429355 2.68266,-0.590299 3.28803,-1.195647 1.64478,-1.644801 3.93848,-2.960923 5.97821,-4.184761 1.73577,-1.041448 3.89956,-1.50141 5.67933,-2.391291 0.45442,-0.227208 0.086,-1.033267 0.2989,-1.494557 0.4299,-0.93141 0.94382,-1.824752 1.49455,-2.690201 2.31511,-3.637995 7.23779,-9.138026 10.76082,-11.95646 5.84808,-4.678469 12.16721,-8.606705 18.2336,-12.853191 4.27408,-2.991845 9.36628,-5.580113 12.85319,-9.565166 0.19683,-0.224952 -0.0821,-0.609323 0,-0.896734 0.52867,-1.850274 1.35226,-3.604117 2.09238,-5.380405 1.23947,-2.974713 2.87883,-6.050754 4.78258,-8.6684329 1.3674,-1.8801715 3.36085,-3.3218649 4.48369,-5.3804053 1.28338,-2.35290246 2.10095,-4.9449063 3.58693,-7.1738727 2.04181,-3.0627214 6.04247,-7.5370401 8.66843,-10.1629901 0.89673,-0.896733 1.75834,-1.830025 2.69021,-2.690203 0.36605,-0.33791 0.75004,-0.673939 1.19565,-0.896734 0.17822,-0.08912 0.5978,0.199273 0.5978,0 0,-0.199274 -0.39854,0 -0.5978,0 -1.41925,0 -1.60097,0.0977 -2.98913,-0.298911 -4.28009,-1.222883 -8.18531,-2.818802 -11.95644,-5.081494 -7.64276,-4.585653 -17.42639,-1.858209 -26.00532,-3.288028 -1.98162,-0.330271 -3.76727,-1.546079 -5.6793,-2.092378 -2.36755,-0.676441 -4.90681,-0.522951 -7.17389,-1.494557 -1.60475,-0.687758 -2.96635,-2.230458 -4.48365,-2.989114 -3.99643,-1.99821 -12.82081,-2.302452 -15.2445,-1.494557"
       id="path883" />
    <path
       style="fill:none;stroke:#dd19c3;stroke-width:1.05833333;stroke-linecap:butt;stroke-linejoin:miter;stroke-opacity:1;stroke-miterlimit:4;stroke-dasharray:none"
       d="m 182.03548,-35.681223 c -5.9264,-0.0254 -12.17973,1.462662 -18.2336,0.597824 -3.17413,-0.453449 -5.4455,-1.819514 -8.36952,-2.989115 -2.16707,-0.866833 -4.50122,-1.146389 -6.57606,-2.391291 -0.90844,-0.545081 -1.74431,-1.619445 -2.6902,-2.09238 -1.55506,-0.777539 -3.50038,-1.002924 -5.08148,-1.793468 -3.12269,-1.56134 -5.99562,-3.298465 -8.96734,-5.081495 -3.86501,-2.319006 -11.93834,-2.238816 -16.44012,-2.989114 -2.70304,-0.450503 -5.29095,-1.78353 -8.07061,-2.09238 -3.32156,-0.36906 -6.85348,-0.04623 -10.162993,-0.597821 -4.647724,-0.774621 -9.622102,-2.718676 -13.749933,-4.782585 -1.065289,-0.532646 -1.826324,-2.291439 -2.989114,-2.989114 -1.479445,-0.887666 -3.265181,-1.586579 -4.782582,-2.09238 -2.391855,-0.797283 -4.299966,-4.097576 -6.277142,-5.679316 -3.000113,-2.400091 -6.24941,-4.461489 -9.266253,-6.874962 -1.061016,-0.848815 -2.250628,-0.834396 -3.288027,-1.494558 -4.359376,-2.774148 -8.146436,-6.322639 -12.554278,-8.967345 -2.081565,-1.248937 -4.562671,-1.622989 -6.874965,-2.690201 -2.84131,-1.311376 -4.538086,-4.097846 -7.173873,-5.679319 -1.40421,-0.842525 -3.566107,-1.281392 -4.782585,-2.09238 -2.523825,-1.682547 -4.527798,-4.167277 -7.173872,-5.679317 -3.109651,-1.77694 -7.726233,-3.72527 -10.4619003,-5.67932 -2.173179,-1.55226 -4.1531327,-4.41123 -6.5760519,-5.3804 -3.080602,-1.23224 -5.6947197,-1.24803 -8.9673429,-1.79347 -6.5731389,-1.09552 -13.1796289,-2.1966 -19.7281559,-3.28803 -3.92852,-0.65475 -7.953142,1.16973 -11.956457,0.59783 -4.619011,-0.65986 -8.711372,-2.8504 -12.853191,-3.88585 -3.763883,-0.94097 -8.634492,-0.4314 -11.956457,-2.09238"
       id="path885" />
  </g>
</svg>
