<?xml version="1.0" encoding="UTF-8" standalone="no"?>
<svg
   xmlns:dc="http://purl.org/dc/elements/1.1/"
   xmlns:cc="http://creativecommons.org/ns#"
   xmlns:rdf="http://www.w3.org/1999/02/22-rdf-syntax-ns#"
   xmlns:svg="http://www.w3.org/2000/svg"
   xmlns="http://www.w3.org/2000/svg"
   xmlns:sodipodi="http://sodipodi.sourceforge.net/DTD/sodipodi-0.dtd"
   xmlns:inkscape="http://www.inkscape.org/namespaces/inkscape"
   width="451.55557mm"
   height="337.96109mm"
   viewBox="0 0 451.55557 337.96109"
   version="1.1"
   id="svg935"
   inkscape:version="1.0.2 (e86c8708, 2021-01-15)"
   sodipodi:docname="11.svg">
  <defs
     id="defs929" />
  <sodipodi:namedview
     id="base"
     pagecolor="#ffffff"
     bordercolor="#666666"
     borderopacity="1.0"
     inkscape:pageopacity="0.0"
     inkscape:pageshadow="2"
     inkscape:zoom="0.88700423"
     inkscape:cx="853.33337"
     inkscape:cy="638.66663"
     inkscape:document-units="mm"
     inkscape:current-layer="layer1"
     inkscape:document-rotation="0"
     showgrid="false"
     fit-margin-top="0"
     fit-margin-left="0"
     fit-margin-right="0"
     fit-margin-bottom="0"
     inkscape:window-width="2560"
     inkscape:window-height="1323"
     inkscape:window-x="1680"
     inkscape:window-y="25"
     inkscape:window-maximized="1" />
  <metadata
     id="metadata932">
    <rdf:RDF>
      <cc:Work
         rdf:about="">
        <dc:format>image/svg+xml</dc:format>
        <dc:type
           rdf:resource="http://purl.org/dc/dcmitype/StillImage" />
        <dc:title></dc:title>
      </cc:Work>
    </rdf:RDF>
  </metadata>
  <g
     inkscape:label="Layer 1"
     inkscape:groupmode="layer"
     id="layer1"
     transform="translate(215.95041,57.099594)">
    <path
       style="fill:none;stroke:#dd16c9;stroke-width:1.05833333;stroke-linecap:butt;stroke-linejoin:miter;stroke-opacity:1;stroke-miterlimit:4;stroke-dasharray:none"
       d="m -215.95041,261.47273 c 2.09152,-2.09153 1.30904,-1.62298 3.87775,-2.98288 1.28366,-0.67959 8.97044,-3.30296 9.54524,-3.87776 3.32046,-3.32047 11.1472,-6.56839 15.51101,-8.94866 2.99993,-1.63632 5.50395,-3.85503 8.35209,-5.66748 2.48464,-1.58115 5.30597,-2.54302 7.7555,-4.17605 3.21913,-2.14609 6.54127,-4.70115 9.54524,-7.15894 2.71788,-2.22372 5.0576,-4.91067 7.75551,-7.15891 1.95805,-1.63171 4.30879,-2.54667 6.26406,-4.17605 1.61648,-1.34708 3.15023,-3.51399 5.07091,-4.47432 3.02684,-1.51344 6.51499,-3.02196 9.24694,-5.07092 1.45947,-1.0946 2.92476,-2.64972 4.47434,-3.57946 2.32222,-1.39333 5.03506,-2.56286 7.15893,-4.47433 4.19547,-3.77593 7.60224,-8.75914 12.22983,-12.22984 2.12628,-1.59471 4.75957,-2.60024 6.86064,-4.17604 1.16508,-0.87381 2.09831,-2.13798 3.281176,-2.98289 1.801733,-1.28695 3.612549,-1.62763 5.369197,-3.57946 1.186609,-1.31846 1.987016,-3.11441 3.579463,-4.17604 0.936649,-0.62444 2.4638,-0.49202 2.982889,-1.78973 0.623414,-1.55854 1.373426,-2.80478 2.982886,-3.87776 1.360548,-0.90703 3.135548,-1.15087 4.474329,-2.08802 1.573451,-1.10141 3.034755,-2.71053 4.77262,-3.57946 2.618785,-1.3094 5.408115,-2.72352 7.457218,-4.77262 1.757987,-1.75799 -0.371671,-5.22244 0.596577,-7.15893 1.665637,-3.33128 7.895931,-4.91803 11.036681,-6.26406 3.294335,-1.41186 5.957345,-4.24429 8.650372,-6.26407 0.517358,-0.38801 1.530879,-0.41659 1.789732,-1.19315 0.380105,-1.14032 0.0099,-2.42598 0.298288,-3.57947 1.041054,-4.1642 3.557363,-7.51247 1.789735,-11.93154 -2.594973,-6.48743 -9.84353,-2.84281 -9.84353,-10.44011 0,-0.51285 0.19517,-1.68661 0.59658,-2.08802 0.433147,-0.43315 1.564021,-1.00373 2.08802,-1.78973 0.545992,-0.81899 1.392013,-1.39201 2.088021,-2.08802 4.744865,-4.744866 12.809817,-2.97874 18.792187,-4.47433 3.817673,-0.954418 8.751678,-1.243809 12.229838,-2.982888 0.399944,-0.199972 1.386686,0.08061 1.789731,0 4.166016,-0.833202 9.5025397,-0.873517 13.1247014,-2.684598 1.49657062,-0.748284 4.0408595,0.365882 5.3691974,-0.298288 1.3047213,-0.65236 1.3388631,-1.266008 2.3863088,-1.789732"
       id="path1530" />
  </g>
</svg>
