<?xml version="1.0" encoding="UTF-8" standalone="no"?>
<svg
   xmlns:dc="http://purl.org/dc/elements/1.1/"
   xmlns:cc="http://creativecommons.org/ns#"
   xmlns:rdf="http://www.w3.org/1999/02/22-rdf-syntax-ns#"
   xmlns:svg="http://www.w3.org/2000/svg"
   xmlns="http://www.w3.org/2000/svg"
   xmlns:sodipodi="http://sodipodi.sourceforge.net/DTD/sodipodi-0.dtd"
   xmlns:inkscape="http://www.inkscape.org/namespaces/inkscape"
   width="451.55557mm"
   height="338.66666mm"
   viewBox="0 0 451.55557 338.66666"
   version="1.1"
   id="svg2826"
   inkscape:version="1.0.2 (e86c8708, 2021-01-15)"
   sodipodi:docname="68.svg">
  <defs
     id="defs2820" />
  <sodipodi:namedview
     id="base"
     pagecolor="#ffffff"
     bordercolor="#666666"
     borderopacity="1.0"
     inkscape:pageopacity="0.0"
     inkscape:pageshadow="2"
     inkscape:zoom="0.88515628"
     inkscape:cx="853.33338"
     inkscape:cy="639.99998"
     inkscape:document-units="mm"
     inkscape:current-layer="layer1"
     inkscape:document-rotation="0"
     showgrid="false"
     fit-margin-top="0"
     fit-margin-left="0"
     fit-margin-right="0"
     fit-margin-bottom="0"
     inkscape:window-width="2560"
     inkscape:window-height="1323"
     inkscape:window-x="1680"
     inkscape:window-y="25"
     inkscape:window-maximized="1" />
  <metadata
     id="metadata2823">
    <rdf:RDF>
      <cc:Work
         rdf:about="">
        <dc:format>image/svg+xml</dc:format>
        <dc:type
           rdf:resource="http://purl.org/dc/dcmitype/StillImage" />
        <dc:title></dc:title>
      </cc:Work>
    </rdf:RDF>
  </metadata>
  <g
     inkscape:label="Layer 1"
     inkscape:groupmode="layer"
     id="layer1"
     transform="translate(198.56351,13.607138)">
    <path
       style="fill:none;stroke:#dd16c9;stroke-width:1.05833333;stroke-linecap:butt;stroke-linejoin:miter;stroke-opacity:1;stroke-miterlimit:4;stroke-dasharray:none"
       d="m 122.46738,158.26693 c -2.13038,-0.85138 -8.03574,-0.28147 -9.26627,-0.89673 -0.71739,-0.35869 -1.07608,-1.43477 -1.79347,-1.79347 -2.01777,-1.00889 -2.35988,0.66063 -3.58693,-1.79347"
       id="path3421" />
    <path
       style="fill:none;stroke:#dd16c9;stroke-width:1.05833333;stroke-linecap:butt;stroke-linejoin:miter;stroke-opacity:1;stroke-miterlimit:4;stroke-dasharray:none"
       d="m 71.054603,163.04952 c -1.556729,-0.0529 -7.405481,-0.23161 -8.369522,-1.19565 -0.572982,-0.57298 0.228613,-1.23079 -0.896734,-1.79347 -0.797097,-0.39855 -2.192018,0.39855 -2.989115,0 -3.961087,-1.98054 -7.32777,-2.0616 -11.657546,-1.19564 -1.486551,0.29731 -3.000944,0.22714 -4.483672,0.59782 -0.326361,0.0816 -2.690201,-0.0604 -2.690201,0 0,0.58098 -0.974913,-0.63691 -1.494557,-0.89673 -1.837785,-0.9189 -2.356202,-0.88671 -4.483672,-1.49456 -1.756767,-0.50193 -2.333178,-1.29884 -4.184761,-2.09238 -0.759558,-0.32553 -3.753239,-0.1663 -4.184758,-0.59782 -1.078082,-1.07808 -4.501753,-1.91665 -6.874965,-2.39129 -5.638996,-1.1278 -11.2880246,-1.95352 -15.8423054,-4.48368 -1.3879751,-0.77109 -2.81609269,-1.27118 -4.1847584,-2.09238 -0.064434,-0.0387 -1.4945572,-0.76548 -1.4945572,-0.59782 0,0.0242 1.0615163,-0.3813 2.0923779,-0.89673 0.63474864,-0.31738 0.007752,-0.008 1.19564678,-1.19565 1.06768102,-1.06768 -2.67356958,-5.69595 -1.49455715,-6.87496 0.5181256,-0.51813 0.8488336,0.0479 1.49455715,-0.59782 4.46967762,-4.46968 7.82622942,-3.10693 13.74992432,-5.0815 1.701501,-0.56716 7.595503,0.77402 8.668433,-0.29891 1.000289,-1.00029 5.733111,-4.04875 6.277139,-4.18476 4.30304,-1.07576 5.797312,0.66075 7.771699,-3.28803"
       id="path3423" />
    <rect
       style="fill:#ffffff;fill-opacity:0.7;stroke:none;stroke-width:1.05833;stroke-miterlimit:4;stroke-dasharray:none;stroke-opacity:1"
       id="rect3429"
       width="51.113853"
       height="9.8640766"
       x="15.75598"
       y="107.7509"
       rx="2"
       ry="2" />
    <text
       xml:space="preserve"
       style="font-size:8.46667px;line-height:1.25;font-family:Lato;-inkscape-font-specification:Lato;stroke-width:0.264583"
       x="16.951637"
       y="115.22369"
       id="text3427"><tspan
         sodipodi:role="line"
         id="tspan3425"
         x="16.951637"
         y="115.22369"
         style="font-size:8.46667px;stroke-width:0.264583">Vernagthütte</tspan></text>
  </g>
</svg>
