<?xml version="1.0" encoding="UTF-8" standalone="no"?>
<svg
   xmlns:dc="http://purl.org/dc/elements/1.1/"
   xmlns:cc="http://creativecommons.org/ns#"
   xmlns:rdf="http://www.w3.org/1999/02/22-rdf-syntax-ns#"
   xmlns:svg="http://www.w3.org/2000/svg"
   xmlns="http://www.w3.org/2000/svg"
   xmlns:xlink="http://www.w3.org/1999/xlink"
   xmlns:sodipodi="http://sodipodi.sourceforge.net/DTD/sodipodi-0.dtd"
   xmlns:inkscape="http://www.inkscape.org/namespaces/inkscape"
   width="451.55557mm"
   height="338.66666mm"
   viewBox="0 0 451.55557 338.66666"
   version="1.1"
   id="svg8"
   inkscape:version="1.0.2 (e86c8708, 2021-01-15)"
   sodipodi:docname="2.svg">
  <defs
     id="defs2" />
  <sodipodi:namedview
     id="base"
     pagecolor="#ffffff"
     bordercolor="#666666"
     borderopacity="1.0"
     inkscape:pageopacity="0.0"
     inkscape:pageshadow="2"
     inkscape:zoom="0.88515628"
     inkscape:cx="853.33337"
     inkscape:cy="639.99997"
     inkscape:document-units="mm"
     inkscape:current-layer="layer1"
     inkscape:document-rotation="0"
     showgrid="false"
     fit-margin-top="0"
     fit-margin-left="0"
     fit-margin-right="0"
     fit-margin-bottom="0"
     inkscape:window-width="2560"
     inkscape:window-height="1323"
     inkscape:window-x="1680"
     inkscape:window-y="25"
     inkscape:window-maximized="1" />
  <metadata
     id="metadata5">
    <rdf:RDF>
      <cc:Work
         rdf:about="">
        <dc:format>image/svg+xml</dc:format>
        <dc:type
           rdf:resource="http://purl.org/dc/dcmitype/StillImage" />
        <dc:title></dc:title>
      </cc:Work>
    </rdf:RDF>
  </metadata>
  <g
     inkscape:label="Layer 1"
     inkscape:groupmode="layer"
     id="layer1"
     transform="translate(-347.99008,-172.35715)">
    <image
       sodipodi:absref="/Users/jgosmann/Documents/projects/adventures/content/posts/210912-bw3-adamplatte/images/2.jpeg"
       xlink:href="../images/2.jpeg"
       y="172.35715"
       x="347.99008"
       id="image879"
       preserveAspectRatio="none"
       height="338.66666"
       width="451.55557" />
    <path
       style="fill:none;stroke:#dd16c9;stroke-width:1.05833333;stroke-linecap:butt;stroke-linejoin:miter;stroke-opacity:1;stroke-miterlimit:4;stroke-dasharray:none"
       d="m 571.87474,398.33419 c -9.84678,0.65479 -17.13035,2.16122 -26.3042,-0.89673 -2.51609,-0.8387 -5.78762,0.64547 -8.36952,0 -0.44614,-0.11154 -2.75839,-1.49456 -3.58694,-1.49456 -1.09374,0 -5.04771,0.31581 -5.0815,0.29891 -0.96704,-0.48352 -1.75373,-1.3287 -2.39129,-2.39129 -0.21136,-0.35227 0.11191,-1.19565 -0.29891,-1.19565 -2.27655,0 -6.25402,-1.49455 -8.07061,-1.49455 -0.30371,0 -1.08984,-2.12148 -1.49455,-2.39129 -1.92198,-1.28132 -3.26724,-3.25684 -4.48367,-5.0815 -0.0435,-0.0652 -1.88246,-0.49286 -2.69021,-0.89673 -0.73629,-0.36815 -2.52537,-1.9378 -2.98911,-2.09238 -2.66546,-0.88849 -5.13354,-1.03107 -8.07061,-2.98912 -1.46205,-0.97469 -1.48059,-2.38011 -2.98912,-3.58693 -0.34794,-0.27836 -1.19564,-0.15224 -1.19564,-0.59783 0,-1.57871 2.28182,-4.86254 2.98911,-6.27714 0.49124,-0.98247 3.08613,-1.59156 3.88585,-2.39129 0.50805,-0.50805 0.6876,-1.28542 1.19565,-1.79347 0.22279,-0.22279 0.72196,-0.0367 0.89673,-0.29891 0.54835,-0.82252 1.12942,-2.32506 1.79347,-2.98911 0.23253,-0.23253 4.52213,-2.46822 5.08149,-3.58694 1.13152,-2.26302 3.80828,-5.54641 5.97823,-7.17387 0.21735,-0.16301 1.61973,-0.72299 1.79347,-0.89674 1.42847,-1.42846 3.08096,-3.94708 4.78259,-5.08149 2.58102,-1.72069 7.69856,-2.91599 9.56516,-4.78259 0.83505,-0.83504 5.38041,-4.63884 5.38041,-6.27714 0,-4.16021 3.88465,-11.80521 6.57605,-15.8423 2.49716,-3.74575 13.18655,-9.95142 16.44013,-12.55428"
       id="path885" />
    <path
       style="fill:none;stroke:#dd16c9;stroke-width:1.05833333;stroke-linecap:butt;stroke-linejoin:miter;stroke-opacity:1;stroke-miterlimit:4;stroke-dasharray:none"
       d="m 581.43991,293.41628 c -1.7727,-0.40809 -0.97712,-1.57494 -2.09238,-2.6902 -0.76172,-0.76172 -2.24107,-0.39804 -2.98912,-0.89674 -0.74663,-0.49775 -1.43854,-1.304 -2.39129,-1.49455 -2.24727,-0.44946 -7.67245,0.99598 -8.96734,-0.29892 -0.16737,-0.16737 0.0649,-1.29984 0,-1.49455 -0.13149,-0.39448 -0.95239,-0.65348 -1.19565,-0.89674 -0.12425,-0.12425 0,-3.05337 0,-4.18476 0,-0.99637 0.99638,-2.98911 0,-2.98911 -0.29538,0 0.82362,-0.52471 1.19565,-0.89674 0.67938,-0.67937 2.09219,-2.39121 3.58694,-2.98911 3.46573,-1.38629 5.80154,-3.26988 8.96734,-5.38041 0.48461,-0.32307 1.63355,-0.4379 2.09238,-0.89673 0.76486,-0.76486 0.89056,-1.64092 1.79347,-2.09238 1.01954,-0.50977 2.67327,-0.88827 3.88585,-1.49456 1.07608,-0.53804 1.61412,-2.15216 2.6902,-2.6902 8.41006,-4.20503 11.41634,-9.43014 21.52162,-11.95646 1.05622,-0.26405 11.65754,-6.06499 11.65754,-6.27714 0,-0.4747 -2.54079,-1.2704 -2.9891,-1.49455"
       id="path887" />
  </g>
</svg>
