<?xml version="1.0" encoding="UTF-8" standalone="no"?>
<svg
   xmlns:dc="http://purl.org/dc/elements/1.1/"
   xmlns:cc="http://creativecommons.org/ns#"
   xmlns:rdf="http://www.w3.org/1999/02/22-rdf-syntax-ns#"
   xmlns:svg="http://www.w3.org/2000/svg"
   xmlns="http://www.w3.org/2000/svg"
   xmlns:sodipodi="http://sodipodi.sourceforge.net/DTD/sodipodi-0.dtd"
   xmlns:inkscape="http://www.inkscape.org/namespaces/inkscape"
   width="108.37334mm"
   height="81.280006mm"
   viewBox="0 0 108.37334 81.280006"
   version="1.1"
   id="svg8"
   inkscape:version="1.0.2 (e86c8708, 2021-01-15)"
   sodipodi:docname="10.svg">
  <defs
     id="defs2" />
  <sodipodi:namedview
     id="base"
     pagecolor="#ffffff"
     bordercolor="#666666"
     borderopacity="1.0"
     inkscape:pageopacity="0.0"
     inkscape:pageshadow="2"
     inkscape:zoom="3.6881508"
     inkscape:cx="204.80001"
     inkscape:cy="154.14229"
     inkscape:document-units="mm"
     inkscape:current-layer="layer1"
     inkscape:document-rotation="0"
     showgrid="false"
     fit-margin-top="0"
     fit-margin-left="0"
     fit-margin-right="0"
     fit-margin-bottom="0"
     inkscape:window-width="2560"
     inkscape:window-height="1323"
     inkscape:window-x="1920"
     inkscape:window-y="25"
     inkscape:window-maximized="1" />
  <metadata
     id="metadata5">
    <rdf:RDF>
      <cc:Work
         rdf:about="">
        <dc:format>image/svg+xml</dc:format>
        <dc:type
           rdf:resource="http://purl.org/dc/dcmitype/StillImage" />
        <dc:title></dc:title>
      </cc:Work>
    </rdf:RDF>
  </metadata>
  <g
     inkscape:label="Layer 1"
     inkscape:groupmode="layer"
     id="layer1"
     transform="translate(24.704525,-56.121902)">
    <path
       style="fill:none;stroke:#dd16c9;stroke-width:0.26458300000000001px;stroke-linecap:butt;stroke-linejoin:miter;stroke-opacity:1"
       d="m -5.8372333,96.51082 c 0.7497154,-0.115959 1.4506141,-0.135559 2.1521624,0.215215 0.2270061,0.113503 0.9035544,-0.172527 1.0760813,0 0.130891,0.130892 0.5012015,0.214246 0.6456489,0.358695 0.168874,0.168873 0.3149153,0.386654 0.4304324,0.502171 0.066112,0.06611 0.93260385,0.68293 0.93260385,0.645647 0,-0.08622 0.0572582,0.215218 0.14347745,0.215218 0.1673225,0 0.58177324,0.151341 0.64564868,0.215214 0.29459634,0.294598 1.28777182,-0.213452 1.29129762,-0.215214 0.1408959,-0.07045 0.4119573,0.277717 0.5739088,0.358693 0.3541104,0.177053 0.5087593,-0.247793 1.0043424,0 0.417703,0.208851 0.8242882,0.310396 1.2195598,0.57391 0.3886253,0.259083 0.6851306,0.671971 1.0760816,0.932601 0.3932819,0.26219 2.7296083,-0.28518 3.2999838,0 0.2865808,0.14329 0.5750243,0.35925 0.8608642,0.50217 0.2249276,0.11247 0.5800491,-0.0328 0.7891251,0.0717 0.602287,0.30115 1.098973,0.7647 1.721731,1.07608 0.179247,0.0896 0.45258,0.007 0.64565,0.0717 0.859924,0.28664 1.610108,0.12354 2.223899,0.43044 0.514527,0.25726 1.386308,-0.18355 1.936946,0 0.274537,0.0915 3.029688,0.48551 3.156505,0.35869 0.547815,-0.54781 2.760396,-0.0905 3.371723,0.21522 0.153043,0.0765 0.420868,-0.0765 0.573911,0 0.200662,0.10033 0.93971,0.87507 1.004342,1.00434 0.134263,0.26853 0.146958,0.65261 0.286954,0.9326 0.03566,0.0713 0.3737,0.55891 0.286954,0.64565 -0.753782,0.75379 -1.434409,0.64529 -1.936946,1.14782"
       id="path883" />
  </g>
</svg>
