<?xml version="1.0" encoding="UTF-8" standalone="no"?>
<svg
   xmlns:dc="http://purl.org/dc/elements/1.1/"
   xmlns:cc="http://creativecommons.org/ns#"
   xmlns:rdf="http://www.w3.org/1999/02/22-rdf-syntax-ns#"
   xmlns:svg="http://www.w3.org/2000/svg"
   xmlns="http://www.w3.org/2000/svg"
   xmlns:sodipodi="http://sodipodi.sourceforge.net/DTD/sodipodi-0.dtd"
   xmlns:inkscape="http://www.inkscape.org/namespaces/inkscape"
   width="108.37334mm"
   height="81.280006mm"
   viewBox="0 0 108.37334 81.280006"
   version="1.1"
   id="svg909"
   inkscape:version="1.0.2 (e86c8708, 2021-01-15)"
   sodipodi:docname="9.svg">
  <defs
     id="defs903" />
  <sodipodi:namedview
     id="base"
     pagecolor="#ffffff"
     bordercolor="#666666"
     borderopacity="1.0"
     inkscape:pageopacity="0.0"
     inkscape:pageshadow="2"
     inkscape:zoom="3.6881508"
     inkscape:cx="204.80001"
     inkscape:cy="153.60001"
     inkscape:document-units="mm"
     inkscape:current-layer="layer1"
     inkscape:document-rotation="0"
     showgrid="false"
     fit-margin-top="0"
     fit-margin-left="0"
     fit-margin-right="0"
     fit-margin-bottom="0"
     inkscape:window-width="2560"
     inkscape:window-height="1323"
     inkscape:window-x="1920"
     inkscape:window-y="25"
     inkscape:window-maximized="1" />
  <metadata
     id="metadata906">
    <rdf:RDF>
      <cc:Work
         rdf:about="">
        <dc:format>image/svg+xml</dc:format>
        <dc:type
           rdf:resource="http://purl.org/dc/dcmitype/StillImage" />
        <dc:title></dc:title>
      </cc:Work>
    </rdf:RDF>
  </metadata>
  <g
     inkscape:label="Layer 1"
     inkscape:groupmode="layer"
     id="layer1"
     transform="translate(24.704525,-13.032616)">
    <path
       style="fill:none;stroke:#dd16c9;stroke-width:0.26458300000000001px;stroke-linecap:butt;stroke-linejoin:miter;stroke-opacity:1"
       d="m 51.410291,88.860476 c -1.574244,-0.03519 -2.813626,-1.028179 -4.089108,-1.793468 -1.027243,-0.616344 -2.383507,-1.114176 -3.156506,-2.080424 -0.62624,-0.782798 -1.309214,-2.995038 -1.649992,-4.017369 -0.17164,-0.514919 -0.700379,-0.809842 -0.860864,-1.291299 -0.110839,-0.332518 -0.03322,-0.745316 -0.143478,-1.076082 -0.470041,-1.410118 -0.376563,-3.066637 -0.860865,-4.519541 -0.327088,-0.98126 -3.041549,-0.236823 -3.515198,0 -0.07105,0.03553 -0.383067,-0.0019 -0.430435,0 -1.954085,0.07816 -1.113102,0.09835 -2.080421,-0.143478 -0.499243,-0.124809 -0.813774,-0.894929 -1.21956,-1.219557 -1.054926,-0.843939 -2.589104,-1.506514 -3.945631,-1.506514 -0.396544,0 -0.781698,0.14719 -1.076081,0 -0.135274,-0.06763 -0.430432,-0.294717 -0.430432,-0.143478 0,0.172439 -0.183494,-0.292481 -0.286957,-0.430432 -0.247877,-0.330505 -0.215215,-0.87761 -0.215215,-1.291299 0,-1.340689 -0.07174,-2.944842 -0.07174,-4.01737 0,-1.051047 -0.554265,-2.215071 -1.076081,-3.084767 -0.182793,-0.304651 -0.728599,-0.568531 -1.004343,-0.789125 -1.09643,-0.877146 -2.197589,-2.386494 -2.797812,-3.586937 -0.07926,-0.158525 0.0068,-0.416796 -0.07174,-0.573911 -0.61441,-1.228825 0.521645,-2.712751 0.789128,-3.515198 0.06868,-0.206044 -0.09608,-0.525235 0,-0.717389 0.08549,-0.170971 0.195067,-1.199409 0.215215,-1.219557 0.332893,-0.332893 0.326789,-1.275252 0.430435,-1.79347 0.0952,-0.476004 -0.08595,-0.975921 0.143475,-1.434775 0.654868,-1.309732 2.127737,-1.832636 3.013028,-3.013027 0.559601,-0.746136 0.704106,-1.766025 0.860866,-2.654334 0.07022,-0.397883 -0.104304,-0.867474 0.07174,-1.219558 0.06696,-0.133913 -0.06696,-0.36826 0,-0.502171 0.262686,-0.525375 0.441258,-1.621562 0.717386,-2.726073 0.148463,-0.593848 -0.0043,-1.274156 0.143478,-1.865208 0.161602,-0.646406 -0.0736,-1.418065 0,-2.080424 0.103904,-0.935152 0.316412,-1.963863 -0.07174,-2.86955 -1.13325,-2.644249 -7.008937,-1.192069 -9.326039,-1.578252 -1.093459,-0.182244 -2.145384,-1.073177 -3.156503,-1.506514 -0.372975,-0.159846 -1.478568,-0.446278 -1.649992,-0.789126"
       id="path1506" />
    <path
       style="fill:none;stroke:#dd16c9;stroke-width:0.265;stroke-linecap:butt;stroke-linejoin:miter;stroke-opacity:1;stroke-miterlimit:4;stroke-dasharray:0.53,0.53;stroke-dashoffset:0"
       d="m 26.875638,63.106265 c 0.890773,-0.284175 1.533972,-1.175281 2.152163,-1.79347 0.394163,-0.394165 1.045446,-0.758491 1.147818,-0.860864 0.167714,-0.167714 0.252516,-0.611209 0.430432,-0.789128 0.106985,-0.106981 0.01161,-0.60879 0.07174,-0.789125 0.159449,-0.478345 0.341279,-1.049956 0.64565,-1.506513 0.337148,-0.505722 1.009766,-0.72281 1.363035,-1.076082 0.409708,-0.409707 0.379347,-1.050539 0.860867,-1.291296 0.09511,-0.04756 0.59141,-0.05366 0.645647,-0.07174 0.2643,-0.0881 1.220004,-0.502619 1.363038,-0.64565 1.188014,-1.188014 1.163518,-2.486215 1.793468,-4.376063 0.282405,-0.847214 0.720344,-1.661819 0.932603,-2.510856 0.108257,-0.433022 0.367194,-0.814628 0.502171,-1.21956 0.156673,-0.470016 0.275519,-1.810625 0,-2.223902 -0.288229,-0.432342 -0.667345,-0.118457 -1.004342,-0.286954 -0.461293,-0.230648 -0.864201,-0.684019 -1.291297,-1.004342 -0.325456,-0.244092 -0.670988,-0.175837 -1.004342,-0.286957 -1.101662,-0.36722 -1.525537,-1.614844 -2.439117,-2.223899 -0.381672,-0.254447 -0.628301,-0.161608 -1.004343,-0.286957 -0.233611,-0.07787 -0.482404,-0.241202 -0.717388,-0.358693 -0.470543,-0.235272 -1.052169,0 -1.578253,0 -0.16909,0 -0.502171,-0.240828 -0.502171,-0.07174 0,0.04109 0.03477,-0.326109 0,-0.430433 -0.120288,-0.360864 -0.378,-0.612522 -0.502171,-0.860865"
       id="path1510" />
  </g>
</svg>
