<?xml version="1.0" encoding="UTF-8" standalone="no"?>
<svg
   xmlns:dc="http://purl.org/dc/elements/1.1/"
   xmlns:cc="http://creativecommons.org/ns#"
   xmlns:rdf="http://www.w3.org/1999/02/22-rdf-syntax-ns#"
   xmlns:svg="http://www.w3.org/2000/svg"
   xmlns="http://www.w3.org/2000/svg"
   xmlns:sodipodi="http://sodipodi.sourceforge.net/DTD/sodipodi-0.dtd"
   xmlns:inkscape="http://www.inkscape.org/namespaces/inkscape"
   width="451.55557mm"
   height="338.66666mm"
   viewBox="0 0 451.55557 338.66666"
   version="1.1"
   id="svg8"
   sodipodi:docname="18.svg"
   inkscape:version="1.0.2 (e86c8708, 2021-01-15)">
  <defs
     id="defs2" />
  <sodipodi:namedview
     id="base"
     pagecolor="#ffffff"
     bordercolor="#666666"
     borderopacity="1.0"
     inkscape:pageopacity="0.0"
     inkscape:pageshadow="2"
     inkscape:zoom="0.72500002"
     inkscape:cx="853.33337"
     inkscape:cy="639.99998"
     inkscape:document-units="mm"
     inkscape:current-layer="layer1"
     inkscape:document-rotation="0"
     showgrid="false"
     fit-margin-top="0"
     fit-margin-left="0"
     fit-margin-right="0"
     fit-margin-bottom="0"
     inkscape:window-width="1855"
     inkscape:window-height="1118"
     inkscape:window-x="2316"
     inkscape:window-y="146"
     inkscape:window-maximized="0" />
  <metadata
     id="metadata5">
    <rdf:RDF>
      <cc:Work
         rdf:about="">
        <dc:format>image/svg+xml</dc:format>
        <dc:type
           rdf:resource="http://purl.org/dc/dcmitype/StillImage" />
        <dc:title></dc:title>
      </cc:Work>
    </rdf:RDF>
  </metadata>
  <g
     inkscape:label="Layer 1"
     inkscape:groupmode="layer"
     id="layer1"
     transform="translate(183.44446,17.3869)">
    <path
       style="fill:none;stroke:#dd169c;stroke-width:1.05833;stroke-linecap:butt;stroke-linejoin:miter;stroke-miterlimit:4;stroke-dasharray:none;stroke-opacity:1"
       d="m -125.4186,321.27976 c -1.09767,-0.25053 -3.48452,-4.54422 -2.18965,-5.83909 1.12775,-1.12776 2.78658,-1.3268 3.64942,-2.18966 0.24329,-0.24329 0.48659,-1.94636 0.72988,-2.18964 2.46726,-2.46727 6.61841,-6.61842 9.48851,-9.48851 0.60571,-0.60572 3.41758,-1.22794 3.64942,-1.45976 1.46763,-1.46765 3.2795,-3.27951 4.37931,-4.37933 0.2433,-0.24329 1.94637,-0.48657 2.18966,-0.72988 1.51016,-1.51017 -2.30772,0.059 0.72989,-1.45976 0.90198,-0.45101 2.982456,-1.52271 3.649421,-2.18967 2.153462,-2.15347 5.550098,-5.98604 9.488505,-7.29885 5.463255,-1.82107 11.330596,-1.28598 16.05747,-3.64942 0.544026,-0.27202 1.259978,0.2259 1.824712,0 1.246008,-0.4984 2.324188,-1.5943 2.919542,-2.18967 0.195043,-0.19502 3.284482,-0.19724 3.284482,-0.72988 0,-0.24328 -0.729885,0.24331 -0.729885,0 0,-0.83809 4.744252,-2.18911 4.744252,-2.18963 0,-0.24332 -0.729885,0.24328 -0.729885,0 0,-1.38179 2.957211,-2.39096 4.014367,-2.91955 0.217612,-0.1088 0.729885,0.24328 0.729885,0 0,-0.24331 -0.932318,0.13496 -0.729885,0 1.332645,-0.88844 8.443502,-1.87455 8.758621,-2.18966 0.172035,-0.17204 -0.172035,-0.55785 0,-0.72988 0.430088,-0.43008 1.239877,0.16708 1.824712,0 1.908807,-0.54539 1.459751,-0.72986 2.189655,-1.45976 0.553439,-0.55346 9.765228,-1.74739 11.313218,-2.18967 3.663479,-1.04672 13.876483,0 18.247127,0 1.216475,0 2.789248,-0.86019 3.649424,0 0.172037,0.17203 -0.225893,0.63953 0,0.72988 1.051139,0.42045 3.8799029,-0.13446 4.7442543,0.72988 0.9731799,0.97319 -1.2164747,0.72991 0.7298849,0.72991 2.642907,0 16.2595241,2.08862 18.9770088,0.72988 1.343398,-0.6717 5.61149,-1.57359 7.298852,-0.72988 2.332423,1.1662 6.626786,1.45976 9.488506,1.45976 2.03106,0 8.794321,-0.0357 9.488503,-0.72988 0.172037,-0.17204 -0.172035,-0.55785 0,-0.72988 0.48659,-0.4866 2.432952,0.48657 2.919542,0 0.172035,-0.17206 -0.172037,-0.55788 0,-0.72991 0.403558,-0.40354 1.877848,-0.15589 2.189655,0 0.217609,0.10882 -0.243295,0.72991 0,0.72991 0.243294,0 -0.243295,-0.72991 0,-0.72991 0.344069,0 0.422137,0.57602 0.729884,0.72991 0.419151,0.20957 4.807818,0 2.91954,0"
       id="path886" />
    <path
       style="fill:none;stroke:#dd169c;stroke-width:1.05833;stroke-linecap:butt;stroke-linejoin:miter;stroke-miterlimit:4;stroke-dasharray:3.175, 3.175;stroke-dashoffset:0;stroke-opacity:1"
       d="m 47.199205,267.99816 c 3.899056,0.24982 8.771557,0.74281 10.948278,2.91951 0.903986,0.90401 4.517679,-1.45975 7.298852,-1.45975 4.379309,0 8.758618,0 13.13793,0 1.216475,0 3.649424,1.21647 3.649424,0 0,-0.24329 -0.97319,0 -0.729879,0 1.459759,0 2.919545,0 4.379304,0 0.243284,0 0.729879,0.24328 0.729879,0 0,-0.24329 -0.901911,0.17203 -0.729879,0 3.004264,-3.00427 16.434486,-0.37701 17.517246,-1.45976 0.62899,-0.62902 0.74176,-0.72991 2.18966,-0.72991 1.07971,0 7.24556,-0.78314 8.02873,0 0.17203,0.17203 -0.17203,0.55785 0,0.72991 0.0297,0.0297 7.65154,1.10707 8.02873,0.72988 0.17203,-0.17204 -0.2176,-0.62109 0,-0.72988 1.49399,-0.74703 7.39158,-2.18967 8.75863,-2.18967"
       id="path894" />
    <path
       style="fill:none;stroke:#dd169c;stroke-width:1.05833;stroke-linecap:butt;stroke-linejoin:miter;stroke-miterlimit:4;stroke-dasharray:none;stroke-opacity:1"
       d="m 130.40611,265.80849 c -5.40718,-1.79607 -2.26092,-6.27525 -4.74427,-8.75863 -0.17203,-0.17203 -0.55785,0.17206 -0.72988,0 -0.34406,-0.34407 0.4866,-1.45976 0,-1.45976 -0.24328,0 0.24329,0.72988 0,0.72988 -0.37923,0 -2.13153,-1.40163 -2.18966,-1.45976 -0.39889,-0.39891 0.27397,-5.83909 0,-5.83909 -0.24329,0 0.24331,0.72988 0,0.72988 -0.49824,0 -2.0438,-5.98491 -1.45976,-6.56895 1.13599,-1.13599 0.3706,-1.10048 0.72988,-1.45977 0.17203,-0.17204 0.72988,0.24329 0.72988,0 0,-0.2433 -0.97317,0 -0.72988,0 1.55387,0 2.82061,-1.36085 3.64942,-2.18966 0.34409,-0.34407 -0.34406,-1.1157 0,-1.45977 0.36494,-0.36494 1.09485,-0.36494 1.45979,-0.72989 0.18759,-0.1876 1.17517,-6.12365 0.72988,-6.56896 -0.17204,-0.17204 -0.55785,0.17203 -0.72988,0 -0.60825,-0.60824 0.60822,-3.04119 0,-3.64943 -0.19587,-0.19586 -1.99652,-1.26663 -2.91955,-2.18965 -0.34406,-0.34407 0.34407,-1.1157 0,-1.45977 -0.97319,-0.97318 -1.94635,-1.94636 -2.91954,-2.91954 -0.34407,-0.34407 -1.1157,0.34407 -1.45976,0 -0.36494,-0.36494 -0.36494,-1.09483 -0.72991,-1.45977 -0.48657,-0.48659 -1.70304,-0.2433 -2.18964,-0.72989 -0.34406,-0.34407 0.34407,-1.1157 0,-1.45977 -0.36494,-0.36494 -1.09484,-0.36494 -1.45978,-0.72988 -0.24329,-0.2433 -0.48657,-1.94636 -0.72988,-2.18966 -0.34407,-0.34407 -1.1157,0.34407 -1.45976,0 -1.71275,-1.71275 -5.17496,-2.9853 -6.56897,-4.37931 -0.36494,-0.36494 -1.82473,0.36495 -2.18966,0 -0.17204,-0.17203 0.17203,-0.55785 0,-0.72988 -0.90618,-0.90619 -9.800568,-1.04196 -10.218398,-1.45977 -0.172032,-0.17204 0.172058,-0.55785 0,-0.72989 -0.36494,-0.36494 -1.824699,0.36495 -2.189639,0 -0.172032,-0.17203 0.172032,-0.55785 0,-0.72988 -0.564833,-0.56483 -10.957271,-0.73888 -11.678166,-1.45977 -1.523452,-1.52345 2.908948,-2.90894 2.919532,-2.91954 0.36494,-0.36495 0.36494,-1.09483 0.729906,-1.45977 0.867595,-0.86761 2.341351,1.30806 3.649424,0 0.0071,-0.007 0.89445,-1.45977 0.72988,-1.45977 -0.243311,0 0,0.97318 0,0.72988 0,-7.77216 -4.214786,-4.21477 -8.028742,-8.02873 -0.905018,-0.90502 0.38558,-3.64943 -1.45977,-3.64943"
       id="path902" />
    <path
       style="fill:none;stroke:#dd169c;stroke-width:1.05833;stroke-linecap:butt;stroke-linejoin:miter;stroke-miterlimit:4;stroke-dasharray:none;stroke-opacity:1"
       d="m 78.949205,187.71079 c -2.429063,0.1569 -3.61342,-1.42377 -5.474137,-3.28448 -0.344069,-0.34407 -1.115697,0.34407 -1.459769,0 -0.729885,-0.72988 -1.45977,-1.45977 -2.189655,-2.18965 -0.851514,-0.85152 0.431744,-1.45978 -0.729885,-1.45978 -0.243295,0 0,0.97319 0,0.72989 0,-1.45977 0,-2.91954 0,-4.37931 0,-0.2433 0.243295,-0.72989 0,-0.72989 -0.243295,0 0,0.97318 0,0.72989 0,-0.72989 0.729885,-2.18966 0,-2.18966 -0.243295,0 0,0.97318 0,0.72989 0,-2.29036 1.791375,-5.10919 0.729885,-5.10919 -0.243295,0 0.243295,0.72988 0,0.72988 -0.344072,0 -0.422137,-0.57601 -0.729885,-0.72988 -1.996834,-0.99842 -5.30289,0.53618 -8.758621,-2.91955 -0.483809,-0.48381 -0.97596,0.48381 -1.45977,0 -0.608237,-0.60823 -0.851532,-1.58141 -1.459769,-2.18965 -0.632423,-0.63242 -5.072997,-2.15346 -5.109194,-2.18966 -0.172038,-0.17203 0.172034,-0.55785 0,-0.72988 -0.48659,-0.48659 -2.432953,0.48659 -2.919543,0 -0.364942,-0.36494 -0.364942,-1.09483 -0.729884,-1.45977 -0.34407,-0.34407 -1.024549,0.21761 -1.45977,0 -0.660329,-0.33017 -2.077937,-2.30137 -2.91954,-1.45977 -0.172034,0.17203 0.243295,0.72988 0,0.72988 -1.07819,0 -1.708679,-0.97879 -2.189654,-1.45977 -1.195621,-1.19562 -2.238603,0.68094 -3.649427,-0.72988 -0.172035,-0.17204 0.172037,-0.55785 0,-0.72988 -0.34407,-0.34408 -1.115698,0.34406 -1.45977,0 -0.172035,-0.17204 0.172037,-0.55786 0,-0.72989 -0.364942,-0.36494 -1.824712,0.36494 -2.189654,0 -0.243295,-0.2433 -0.48659,-1.94636 -0.729885,-2.18966 -0.172035,-0.17203 -0.557851,0.17204 -0.729885,0 -0.544023,-0.54402 -0.185862,-2.73367 -0.729885,-2.18965 -0.243295,0.24329 0.729885,1.07396 0.729885,0.72988 0,-2.26102 -1.97848,-3.8606 -0.729885,-5.10919 0.364942,-0.36494 1.094827,-0.36494 1.45977,-0.72989 0.350091,-0.35009 0.419838,-3.95947 0,-4.37931 -3.540157,-3.54015 -4.835184,-4.83518 -7.298852,-7.29885 -0.54366,-0.54366 1.267463,-7.68347 0.729888,-8.75862 -0.217612,-0.43522 -1.1157,0.34407 -1.459773,0 -0.782137,-0.78214 -0.231142,-0.96103 -1.459769,-2.18965 -0.608238,-0.60824 -2.311302,-0.12165 -2.91954,-0.72989 -0.364942,-0.36494 -0.364942,-1.09482 -0.729885,-1.45977 -0.608237,-0.60823 -2.311302,-0.12164 -2.919539,-0.72988 -0.97318,-0.97318 -1.94636,-1.94636 -2.91954,-2.91954 -0.344072,-0.34407 -1.1157,0.34407 -1.459772,0 -0.364942,-0.36495 -0.364942,-1.09483 -0.729885,-1.45977 -0.344069,-0.34407 -1.115697,0.34407 -1.459769,0 -0.608238,-0.60824 -0.851533,-1.58142 -1.4597702,-2.18966 -0.3440721,-0.34407 -1.1156977,0.34407 -1.4597698,0 -0.7298848,-0.72988 -1.4597697,-1.45977 -2.1896546,-2.18965 -0.3440721,-0.34407 -1.1157002,0.34407 -1.4597697,0 -0.4340119,-0.43401 -1.4597697,-2.17374 -1.4597697,-1.45977 0,0.24329 0.7298848,0.24329 0.7298848,0 0,-0.85717 -4.3793118,-1.63611 -4.3793118,-4.01437"
       id="path904" />
    <path
       style="fill:none;stroke:#dd169c;stroke-width:1.05833;stroke-linecap:butt;stroke-linejoin:miter;stroke-miterlimit:4;stroke-dasharray:none;stroke-opacity:1"
       d="M -0.24332164,107.42344 C -1.7637365,106.638 -1.8192858,105.84747 -2.4329736,105.23378 -2.66482,105.00194 -5.47669,104.37972 -6.0823979,103.77401 c -2.9636984,-2.96369 -5.5109641,-6.240845 -8.7586211,-9.488502 -0.305853,-0.305853 -1.7473,-0.508706 -2.189655,-0.729885 -2.156092,-1.078044 -3.304301,-2.574417 -4.379311,-3.649424 -1.729478,-1.729481 -3.649425,-0.568171 -3.649425,-4.379309 0,-0.48659 -0.344069,-1.1157 0,-1.459772 1.66954,-1.66954 4.819245,-2.409622 5.839082,-2.91954 0.217609,-0.108805 -0.202436,-0.594929 0,-0.729885 1.662872,-1.108583 4.876038,0.598099 6.204021,-0.729885 0.172035,-0.172034 -0.172035,-0.55785 0,-0.729885 0.364943,-0.364942 1.824712,0.364943 2.189655,0 0.172037,-0.172034 -0.172035,-0.55785 0,-0.729884 0.438303,-0.438304 2.857177,-0.698704 2.9195419,-0.729885 0.2176092,-0.108805 -0.1720374,-0.55785 0,-0.729885 0.3440695,-0.344072 1.1156976,0.344069 1.4597697,0 0.6202813,-0.620284 1.3124418,-1.45977 2.1896546,-1.45977 1.5780015,0 1.6837819,0 4.37930924,0 0.24329495,0 0.72988486,0.243295 0.72988486,0 0,-0.243295 -0.97317982,0 -0.72988486,0 0.72988486,0 2.18965456,0.729885 2.18965456,0 0,-0.243295 -0.9731798,0 -0.7298848,0 0.7298848,0 2.1896572,0.729885 2.1896572,0 0,-0.243295 -0.7298849,0.243295 -0.7298849,0 0,-1.518803 1.0235671,-0.293685 1.4597698,-0.729885 0.8017272,-0.80173 -0.2680732,-2.189657 1.4597697,-2.189657"
       id="path908" />
    <path
       style="fill:none;stroke:#dd169c;stroke-width:1.05833;stroke-linecap:butt;stroke-linejoin:miter;stroke-miterlimit:4;stroke-dasharray:none;stroke-opacity:1"
       d="M 5.9607024,72.388957 C 5.914313,72.136018 5.7571849,71.879118 5.8215315,71.630143 c 0.023574,-0.09122 0.9263962,0.07945 1.0058427,0 0.16764,-0.16764 0.16764,-0.50292 0.33528,-0.67056 0.079028,-0.07903 0.3352826,0.11176 0.3352826,0 0,-0.11176 -0.4470426,0 -0.3352826,0 1.8999252,0 0.1117626,0.22352 0.6705626,-0.335283 0.22352,-0.22352 1.1176026,0.223523 1.3411226,0 0.6060123,-0.60601 0.8099928,-0.139428 1.0058426,-0.33528 0.16764,-0.16764 0.16764,-0.50292 0.33528,-0.67056 0.158054,-0.158054 0.512509,0.158051 0.670563,0 0.22352,-0.223523 0.44704,-0.447043 0.670562,-0.670563 0.612349,-0.612351 1.20386,0.807824 1.676403,0.33528 0.2794,-0.2794 0.39116,-0.72644 0.670563,-1.005842 0.766558,-0.766562 1.833128,0.849116 2.682245,0 0.16764,-0.16764 0.16764,-0.50292 0.33528,-0.67056 0.158054,-0.158054 0.512508,0.158051 0.670562,0 0.07903,-0.07903 -0.07902,-0.256255 0,-0.335283 0.530771,-0.53077 0.285883,0.359982 1.005843,0 0.89408,-0.44704 -1.005843,-0.33528 0.33528,-0.33528 0.448448,0 0.489453,0.412366 1.005843,0.670563 0.202432,0.101216 0.850852,-0.154988 1.005842,0 0.07903,0.07903 -0.07903,0.256254 0,0.33528 0.08875,0.08875 0.867786,0 1.005843,0 0.22352,0 0.67056,0.22352 0.67056,0 0,-0.11176 -0.33528,0.11176 -0.33528,0 0,-0.316106 0.529193,-0.387829 0.67056,-0.670563 0.03443,-0.06885 -0.112514,-0.893326 0.335283,-1.341123 0.333843,-0.333843 1.341122,-0.0038 1.341122,-0.67056 0,-0.11176 0.11176,-0.335282 0,-0.335282 -0.11176,0 -0.11176,0.335282 0,0.335282 0.155776,0 0.847249,-0.591267 1.005843,-0.670562 0.199922,-0.09996 0.512508,0.158054 0.67056,0 0.279403,-0.2794 0.391163,-0.72644 0.670563,-1.005843 0.5588,-0.5588 2.458725,0.22352 3.017527,-0.33528 0.44704,-0.44704 0.5588,-1.229362 1.00584,-1.676402 0.167643,-0.167643 0.838203,0.16764 1.005843,0 0.447043,-0.447043 0.894083,-0.894083 1.341123,-1.341126 0.158054,-0.158051 0.512511,0.158054 0.670562,0 0.891363,-0.891362 0.738788,-1.409348 1.676403,-2.346965 0.447043,-0.44704 0.894083,-0.89408 1.341125,-1.341123 0.158052,-0.158051 0.512509,0.158055 0.67056,0 1.643388,-1.643388 4.222221,-4.22222 5.699773,-5.699773 0.391163,-0.39116 1.620526,0.05588 2.011686,-0.33528 0.501279,-0.501279 1.225502,-1.225502 1.676402,-1.676405 0.158054,-0.158052 -0.158051,-0.512509 0,-0.67056 0.22379,-0.22379 0.446773,0.223787 0.670563,0 0.807736,-0.807736 2.075386,-1.069544 3.017528,-2.011685 0.16764,-0.16764 0.8382,0.16764 1.00584,0 0.07903,-0.07903 -0.07903,-0.256255 0,-0.33528 0.497829,-0.497827 1.849138,-0.508016 2.346968,-1.005843 0.06796,-0.06796 0.752115,-0.924287 0.67056,-1.005843 -0.03353,-0.03353 -1.162307,0.156464 -0.67056,-0.33528 0.158051,-0.158054 0.44704,0 0.67056,0 0.625715,0 0.47843,0.07158 1.005842,0.33528 1.126459,0.56323 2.016832,0 3.352808,0 1.229299,0 2.370143,-0.514511 3.352808,-1.005842 0.279151,-0.139576 1.128451,0.212672 1.341123,0 0.07903,-0.07903 -0.07903,-0.256254 0,-0.33528 0.539869,-0.539869 3.804951,0.612129 5.02921,0 1.657414,-0.828707 2.732424,-1.056018 3.688091,-2.011685 0.154987,-0.154988 0.803407,0.101216 1.00584,0 1.053266,-0.526632 2.036379,-0.695254 2.682248,-1.341123 0.16764,-0.16764 0.8382,0.16764 1.005842,0 0.07903,-0.07903 -0.07903,-0.256254 0,-0.33528 0.16764,-0.16764 0.8382,0.16764 1.00584,0 0.07903,-0.07903 -0.07903,-0.256254 0,-0.335283 0.279051,-0.27905 0.650468,1.361218 1.005843,1.005843 0.11176,-0.11176 -0.493332,-0.33528 -0.33528,-0.33528 0.249904,0 0.433483,0.256254 0.670563,0.33528 0.776393,0.258799 1.370729,-0.70018 1.676402,-1.005843 0.158062,-0.158051 -0.158062,-0.512508 0,-0.67056 0.151104,-0.151103 1.00584,-0.07726 1.00584,-0.33528 0,-0.111762 -0.33528,0.11176 -0.33528,0 0,-0.01003 3.328961,-1.676405 2.01168,-1.676405"
       id="path910" />
    <path
       style="fill:none;stroke:#dd169c;stroke-width:1.05833;stroke-linecap:butt;stroke-linejoin:miter;stroke-miterlimit:4;stroke-dasharray:none;stroke-opacity:1"
       d="m 84.277225,35.755101 c 1.38303,0.0122 2.286635,-0.563269 2.84988,0 0.06797,0.06796 0.848783,0.82763 1.005867,0.670563 0.22352,-0.22352 0.11176,-0.782323 0.33528,-1.005843 0.22352,-0.223544 0.447013,0.223541 0.67056,0 0.253417,-0.253431 0.145441,-0.670563 0.67056,-0.670563 0.33528,0 1.00584,0.335283 1.00584,0 0,-0.11176 -0.44704,0 -0.33528,0 0.588856,0 1.408721,0.938231 1.6764,0.670563 0.655637,-0.655637 0.05143,-0.773419 0.33528,-1.341123 0.04998,-0.09996 0.256248,0.07903 0.33528,0 0.158062,-0.158054 -0.158063,-0.512508 0,-0.670562 0.359277,-0.359283 0.441457,-0.106178 1.00584,-0.67056 0.158062,-0.158054 0.670559,0.22352 0.670559,0 0,-0.100187 -1.11199,0.22071 0,-0.335283 0.631905,-0.315944 1.475449,0.804892 1.6764,1.005843 0.399733,0.399719 2.073011,-0.3966 3.017547,-1.341123 0.633359,-0.633378 1.612982,0.733962 2.011682,0.33528 0.0217,-0.02167 0.0894,-1.095221 0.33528,-1.341122 0.44704,-0.44704 0.89408,-0.894083 1.34112,-1.341123 0.32226,-0.322255 3.16243,-0.480187 3.3528,-0.670563 0.72977,-0.729758 0.72025,-0.720256 1.34112,-1.341122 0.15806,-0.158052 0.51252,0.158054 0.67056,0 0.16764,-0.16764 0.16764,-0.50292 0.33528,-0.67056 0.22354,-0.223544 0.44704,0.223541 0.67056,0 0.22352,-0.223523 0.44704,-0.447043 0.67056,-0.670563 0.15806,-0.158054 0.67058,0.22352 0.67058,0 0,-0.11176 -0.3353,0.11176 -0.3353,0 0,-0.249904 0.67058,-0.08538 0.67058,-0.33528 0,-0.11176 -0.44704,0 -0.33528,0 0.48774,0 2.53212,-0.185163 2.68224,-0.335283 0.67056,-0.67056 1.6764,-1.00584 2.34696,-1.676402 0.19585,-0.195853 0.39984,0.270729 1.00584,-0.33528 0.73121,-0.7312 1.90172,0.780518 2.68224,0 0.22352,-0.223523 0.44704,-0.447043 0.67056,-0.670563 0.079,-0.07903 0.33528,0.11176 0.33528,0 0,-0.100187 -1.11196,0.220713 0,-0.33528 0.0615,-0.03076 1.00584,0.02461 1.00584,0 0,-0.100187 -1.11196,0.220713 0,-0.335283 0.19995,-0.09996 0.67059,0.223523 0.67059,0 0,-0.11176 -0.33531,-0.11176 -0.33531,0 0,0.158055 0.19394,0.2646 0.33531,0.335283 0.19992,0.09996 0.44704,0 0.67056,0"
       id="path914" />
  </g>
</svg>
