<?xml version="1.0" encoding="UTF-8" standalone="no"?>
<svg
   xmlns:dc="http://purl.org/dc/elements/1.1/"
   xmlns:cc="http://creativecommons.org/ns#"
   xmlns:rdf="http://www.w3.org/1999/02/22-rdf-syntax-ns#"
   xmlns:svg="http://www.w3.org/2000/svg"
   xmlns="http://www.w3.org/2000/svg"
   xmlns:sodipodi="http://sodipodi.sourceforge.net/DTD/sodipodi-0.dtd"
   xmlns:inkscape="http://www.inkscape.org/namespaces/inkscape"
   width="451.55557mm"
   height="338.66666mm"
   viewBox="0 0 451.55557 338.66666"
   version="1.1"
   id="svg972"
   inkscape:version="1.0.2 (e86c8708, 2021-01-15)"
   sodipodi:docname="22.svg">
  <defs
     id="defs966" />
  <sodipodi:namedview
     id="base"
     pagecolor="#ffffff"
     bordercolor="#666666"
     borderopacity="1.0"
     inkscape:pageopacity="0.0"
     inkscape:pageshadow="2"
     inkscape:zoom="0.88515628"
     inkscape:cx="853.33337"
     inkscape:cy="639.99998"
     inkscape:document-units="mm"
     inkscape:current-layer="layer1"
     inkscape:document-rotation="0"
     showgrid="false"
     fit-margin-top="0"
     fit-margin-left="0"
     fit-margin-right="0"
     fit-margin-bottom="0"
     inkscape:window-width="2560"
     inkscape:window-height="1323"
     inkscape:window-x="1680"
     inkscape:window-y="25"
     inkscape:window-maximized="1" />
  <metadata
     id="metadata969">
    <rdf:RDF>
      <cc:Work
         rdf:about="">
        <dc:format>image/svg+xml</dc:format>
        <dc:type
           rdf:resource="http://purl.org/dc/dcmitype/StillImage" />
        <dc:title></dc:title>
      </cc:Work>
    </rdf:RDF>
  </metadata>
  <g
     inkscape:label="Layer 1"
     inkscape:groupmode="layer"
     id="layer1"
     transform="translate(188.73611,-77.863098)">
    <path
       style="fill:none;stroke:#dd16c9;stroke-width:1.05833333;stroke-linecap:butt;stroke-linejoin:miter;stroke-opacity:1;stroke-miterlimit:4;stroke-dasharray:none"
       d="m -23.737,154.08551 c 2.195385,1.39325 5.09521,4.15733 4.184761,5.97823 -0.178237,0.35647 -0.913829,-0.28181 -1.195647,0 -0.398547,0.39855 -0.797097,0.7971 -1.195644,1.19565 -0.08792,0.0879 -1.79347,-0.0703 -1.79347,0 0,0.17864 1.982729,-0.39354 0,0.59782 -0.6272,0.3136 -2.511954,-0.47716 -2.989115,0 -0.140906,0.14091 0.140909,0.45692 0,0.59782 -0.106505,0.10651 -10.47833,1.6358 -11.358633,1.19565 -0.178237,-0.0891 0.140909,-0.45692 0,-0.59782 -0.158248,-0.15825 -1.547308,0 -1.793468,0 -0.199276,0 -0.597823,-0.19928 -0.597823,0 0,0.19927 0.797097,0 0.597823,0 -0.797097,0 -2.391294,-0.7971 -2.391294,0 0,0.19927 0.797097,0 0.597824,0 -1.214689,0 -3.582765,-1.80181 -4.782582,0.59782 -1.552347,3.10469 3.191269,4.78258 5.978229,4.78258 1.242533,0 0.638849,0.041 1.195644,0.59782 0.498186,0.49819 2.49093,-0.49818 2.989114,0 0.140909,0.14091 -0.140906,0.45692 0,0.59783 0.851837,0.85183 1.276628,-1.11467 2.391294,0 0.851834,0.85183 0.08098,0.081 1.195644,1.19564 0.140549,0.14055 4.184761,0.75197 4.184761,0.59782 0,-0.19927 -0.597824,-0.19927 -0.597824,0 0,0.28182 0.345758,0.4718 0.597824,0.59783 1.440331,0.72017 2.328711,-0.0626 3.586938,1.19565 0.29891,0.29891 1.494557,-0.29892 1.793467,0 0.140909,0.1409 -0.140909,0.45691 0,0.59782 0.355357,0.35536 5.895716,0.51531 6.576052,1.19564 0.140909,0.14091 -0.178237,0.50871 0,0.59783 0.53471,0.26735 1.370743,-0.42273 1.793468,0 0.140909,0.14091 -0.140907,0.45691 0,0.59782 0.498186,0.49819 2.49093,-0.49819 2.989114,0 0.140909,0.14091 -0.140907,0.45691 0,0.59782 0.422727,0.42273 3.5207255,0 4.1847609,0"
       id="path1567" />
    <path
       style="fill:none;stroke:#dd16c9;stroke-width:1.05833333;stroke-linecap:butt;stroke-linejoin:miter;stroke-opacity:1;stroke-miterlimit:4;stroke-dasharray:none"
       d="m -7.5957847,176.80278 c 0.5978233,-0.0996 1.1956467,-0.39855 1.7934701,-0.29891 0.1965643,0.0328 -0.1409065,0.45691 0,0.59782 0.349213,0.34922 0.7129198,-0.48272 1.7934702,0.59783 1.2917381,1.29174 2.935552,-1.24921 4.18475842,0 0.14090914,0.14091 -0.1409065,0.45691 0,0.59782 1.19564678,1.19564 5.97822858,-1.19565 7.17387538,0 0.4981866,0.49818 0.6974602,1.29528 1.1956468,1.79347 0.1198694,0.11987 1.6265758,-0.76471 2.3912908,0 0.403087,0.40308 0.929709,0.76376 1.793468,1.19564 0.6272,0.3136 2.511956,-0.47716 2.989114,0 0.893437,0.89344 2.963524,2.07959 4.782584,2.98912 1.992741,0.99637 5.480042,-0.99637 7.472786,0 0.88033,0.44016 0.793181,0.79318 1.195644,1.19564 0.298913,0.29892 1.494557,-0.29891 1.79347,0 2.278716,2.27872 8.462873,2.82096 12.554278,4.18476 2.248549,0.74952 -0.644609,0.38296 1.79347,1.19565 0.990902,0.3303 7.952423,0.0904 8.967343,0.59782 1.676427,0.83821 3.267075,1.88612 4.782582,2.39129 0.741746,0.24725 0.895945,1.49377 1.195647,1.79347 0.282826,0.28283 7.675819,1.09977 8.369519,1.79347 0.956914,0.95692 0.827919,0.11505 1.793471,0.59782 0.504126,0.25207 0.660934,1.01741 1.195644,1.19565 0.567145,0.18905 1.370745,-0.42272 1.79347,0 0.140906,0.14091 -0.140909,0.45691 0,0.59782 0.29891,0.29891 1.494557,-0.29891 1.793467,0 0.14091,0.14091 -0.140909,0.45692 0,0.59782 0.540645,0.54065 5.535623,1.35086 5.978218,1.79347 0.140918,0.14091 -0.14089,0.45692 0,0.59783 0.276358,0.27635 1.432534,-0.18048 1.793479,0 1.163372,0.58168 0.661035,1.74418 1.793478,2.39129 0.818779,0.46787 6.785424,2.30175 6.874959,2.39129 0.2989,0.29891 0.2989,0.89673 0.597826,1.19565 0.281808,0.28181 0.913818,-0.28182 1.195626,0 0.140917,0.1409 -0.140891,0.45691 0,0.59782 0.140335,0.14032 3.973433,1.38888 4.782582,1.79347 0.360971,0.18047 1.517121,-0.27635 1.793478,0 1.38507,1.38505 3.95052,2.15704 4.78258,2.98911 0.38862,0.38863 0.0891,2.90002 0,2.98912 -1.5063,1.50629 -3.58441,2.98407 -4.18475,4.18475 -0.974015,1.94801 0.59377,6.58009 0,7.17388 -0.14092,0.14091 -0.45691,-0.14091 -0.59783,0 -0.281808,0.28182 0.28181,0.91383 0,1.19565 -0.2989,0.29891 -0.896726,0.29891 -1.195652,0.59782 -0.199258,0.19927 -0.398542,1.59419 -0.597826,1.79347 -0.01138,0.0115 -1.73826,1.76586 -1.793452,1.79346 -0.356473,0.17824 -0.913844,-0.28181 -1.195652,0 -1.167209,1.16721 -2.922984,2.923 -4.184756,4.18477 -0.398542,0.39854 -1.992735,-0.39855 -2.391304,0 -0.2989,0.29891 -0.2989,0.89673 -0.597799,1.19564 -0.498211,0.49819 -1.893121,0.0996 -2.391305,0.59782 -0.398541,0.39855 -0.199284,1.39492 -0.597826,1.79347 -0.06956,0.0696 -2.157253,0.72759 -2.391277,1.19565 -0.728821,1.45761 -1.437058,3.23051 -2.391304,4.18476 -0.281808,0.28181 -0.913818,-0.28182 -1.195652,0 -0.2989,0.29891 -0.2989,0.89673 -0.597826,1.19564 -0.634048,0.63405 -1.782472,-0.022 -2.391278,1.19565 -0.50214,1.00428 -0.02011,2.94885 0,2.98911 0.08911,0.17824 0.456909,-0.14091 0.597826,0 0.851826,0.85184 -1.114669,1.27663 0,2.39129 1.159589,1.1596 14.508506,0.1457 14.945571,0 0.619231,-0.20641 1.200388,-0.8991 1.793452,-1.19564 1.699154,-0.84957 6.267079,-0.10299 8.36954,0.59782 1.22573,0.40858 1.75977,0.56415 2.39128,1.19565 0.37359,0.37359 2.24091,-0.22465 2.6902,0 0.17825,0.0891 -0.14089,0.45691 0,0.59782 0.19709,0.19709 2.29986,0.40265 2.6902,0.59782 0.49774,0.24887 2.01211,-0.3792 2.39131,0 0.24865,0.24867 2.30264,3.67558 1.19562,4.78259 -3.56264,3.56266 -15.123051,0.0887 -19.72815,2.39129 -2.785031,1.39251 -4.680426,4.68045 -5.978207,5.97823 -0.597826,0.59782 0,2.39129 -0.597826,2.98911 -0.140918,0.14091 -0.456909,-0.14091 -0.597827,0 -0.946388,0.94639 0.641853,0.50975 0,1.79347 -0.08911,0.17824 -0.456908,-0.14091 -0.597826,0 -0.199284,0.19927 -0.398541,1.59419 -0.597826,1.79347 -1.097041,1.09706 -2.278988,2.27898 -3.586929,3.58694 -0.395341,0.39533 -0.800312,-0.39533 -1.195652,0 -0.2989,0.29891 -0.2989,0.89673 -0.597826,1.19564 -0.718476,0.71849 -2.080287,0.14341 -2.989104,0.59782 -0.17825,0.0891 0.178223,0.50871 0,0.59783 -0.712946,0.35647 -1.678353,-0.35648 -2.391296,0 -0.178237,0.0891 0.140906,0.45691 0,0.59782 -0.294288,0.29429 -0.265205,-0.33262 -1.195647,0.59782 -0.173993,0.174 -3.51921,0.86287 -4.184759,1.19565 -0.63768,0.31884 -1.753616,-0.31884 -2.391293,0 -1.06126,0.53063 -1.927852,1.26284 -2.989114,1.79347 -0.356474,0.17823 -0.839171,-0.17824 -1.195645,0 -0.504129,0.25206 -0.691517,0.94358 -1.195646,1.19564 -1.251871,0.62594 -0.549238,-0.3232 -2.391291,0.59783 -2.487996,1.24399 0.639093,-0.0413 -0.597824,1.19564 -0.281815,0.28182 -0.913828,-0.28181 -1.195646,0 -0.930439,0.93044 -0.901359,0.30354 -1.195644,0.59783 -0.14091,0.1409 0.178236,0.5087 0,0.59782 -1.989366,0.99468 -1.7681,-0.61051 -2.989115,0 -0.178236,0.0891 0.140909,0.45691 0,0.59782 -0.576667,0.57667 -5.17017,0.38759 -5.978228,1.19565 -0.14091,0.1409 0.140909,0.45691 0,0.59782 -0.298913,0.29891 -1.494558,-0.29891 -1.793471,0 -0.29891,0.29891 -0.29891,0.89673 -0.59782,1.19564 -0.619482,0.61949 -1.243074,0.0474 -2.391294,1.19565 -0.853308,0.85331 -0.742532,2.08289 -1.195644,2.98912 -0.442616,0.88523 -4.732703,4.16813 -6.576052,4.78258 -1.518314,0.5061 -3.218696,-1.27218 -4.782582,-1.79347 -2.725817,-0.90861 -5.977183,-10e-4 -6.576052,0.59782 -0.281815,0.28182 0.281816,0.91383 0,1.19565 -0.140909,0.14091 -0.597823,-0.19928 -0.597823,0 0,0.19927 0.597823,-0.19928 0.597823,0 0,1.21982 -0.597823,-0.0242 -0.597823,1.19564 0,0.39855 0.597823,0.99637 0.597823,0.59783 0,-0.19928 -0.597823,-0.19928 -0.597823,0 0,1.71366 2.947231,0.55593 3.586938,1.19564 0.29891,0.29891 0.29891,0.89674 0.597823,1.19565 0.398547,0.39855 1.394918,0.19927 1.793467,0.59782 0.572146,0.57215 1.378863,1.37886 2.391291,2.39129 0.597504,0.5975 0.117875,2.39129 0.597824,2.39129 0.199273,0 0,-0.79709 0,-0.59782 0,3.38766 -0.39855,0.19928 0.597823,1.19565 0.281816,0.28181 -0.39855,1.19564 0,1.19564 0.199274,0 -0.199273,-0.59782 0,-0.59782 1.243997,0 0.240546,0.83837 0.597824,1.19564 0.398547,0.39855 1.394917,0.19928 1.793467,0.59783 0.188886,0.18888 0.853279,1.62228 1.195647,1.79347 0.35647,0.17823 1.195644,0.39854 1.195644,0 0,-0.19928 -0.597823,-0.19928 -0.597823,0 0,1.19449 1.437277,0.24163 1.79347,0.59782 0.25799,0.25799 -0.229582,0.36824 0.597823,1.19565 0.162843,0.16284 5.936427,1.75166 7.173873,2.98911 0.996373,0.99637 -0.398547,4.38403 0.597823,5.3804 4.620482,4.62049 0.840859,10.87257 -1.793467,16.14123 -0.400349,0.80068 -1.426184,0.82836 -1.79347,1.19563 -0.281816,0.28183 0.281818,0.91384 0,1.19565 -1.265164,1.26516 -2.321775,1.72394 -3.586938,2.98913 -0.281816,0.28181 -0.398547,1.19562 0,1.19562 0.199276,0 0.199276,-0.59782 0,-0.59782 -0.281816,0 -0.471789,0.34578 -0.597821,0.59782 -0.178236,0.35648 0.281816,0.91385 0,1.19566 -0.44224,0.44225 -0.738127,0.87844 -1.195647,1.79347 -0.180475,0.36095 0.276352,1.51713 0,1.79346 -0.140909,0.14091 -0.456914,-0.14089 -0.597823,0 -0.281816,0.28183 0.281818,0.91384 0,1.19565 -0.140907,0.14092 -0.456914,-0.14092 -0.597823,0 -0.02965,0.0297 -1.275472,3.66678 -1.793468,4.18475 -0.315079,0.3151 -0.880565,0.28276 -1.195647,0.59783"
       id="path1569" />
    <path
       style="fill:none;stroke:#dd16c9;stroke-width:1.05833333;stroke-linecap:butt;stroke-linejoin:miter;stroke-opacity:1;stroke-miterlimit:4;stroke-dasharray:none"
       d="m 33.056169,361.23113 c -0.597821,-0.19928 -1.195645,-0.79708 -1.793465,-0.59783 -0.224184,0.0747 0.112093,1.4572 0,1.79348 -0.281816,0.84545 -1.020871,1.51741 -1.195647,2.39128 -0.593135,2.96569 -1.20378,5.39668 -2.391291,7.77171 -0.797097,1.5942 0.797097,4.38404 0,5.97824 -0.595633,1.19126 -1.195644,2.40527 -1.195644,3.88583 -2.048262,8.61426 -5.701958,9.73104 -10.162987,20.32599 -1.624837,3.85899 -0.84694,9.76449 -2.391292,12.85319"
       id="path1571" />
    <path
       style="fill:none;stroke:#dd16c9;stroke-width:1.05833333;stroke-linecap:butt;stroke-linejoin:miter;stroke-opacity:1;stroke-miterlimit:4;stroke-dasharray:none"
       d="m 112.56662,256.61213 c -0.0314,-0.0317 2.98911,1.13168 2.98911,0.59783 0,-0.19928 -0.59783,-0.19928 -0.59783,0 0,0.28181 0.34576,0.47179 0.59783,0.59782 0.35647,0.17824 0.91382,-0.28182 1.19565,0 0.40246,0.40246 0.3153,0.75548 1.19565,1.19565 0.99007,0.49504 4.57449,-0.20809 5.38038,0.59782 0.14092,0.14091 -0.14089,0.45691 0,0.59782 0.64881,0.64881 3.30322,0.15704 4.18479,0.59782 1.45655,0.72829 3.24561,1.28116 4.78258,1.79347 1.92444,0.64149 5.101,0 7.17386,0 0.24616,0 1.63523,0.15825 1.79347,0 0.14092,-0.14091 -0.14091,-0.45691 0,-0.59782 0.24191,-0.24192 14.84667,1.44511 15.5434,1.79347 0.88032,0.44016 0.79317,0.79318 1.19563,1.19564 0.28183,0.28182 0.83918,-0.17823 1.19565,0 3.89919,1.94959 7.61045,2.23005 10.16299,4.78259 0.27636,0.27635 1.43253,-0.18048 1.79348,0 1.25021,0.6251 2.24245,0.74748 3.58693,1.19564 0.42272,0.14091 0.88056,0.28274 1.19565,0.59783 0.14092,0.1409 -0.18905,0.5348 0,0.59782 0.56713,0.18905 1.22632,-0.18905 1.79348,0 0.18904,0.063 -0.14092,0.45691 0,0.59782 0.17859,0.17862 2.31431,-0.0192 2.39128,0 1.25737,0.31435 1.90452,1.3067 2.3913,1.79347 0.49316,0.49318 1.42174,-0.19161 2.09238,0 0.77099,0.22029 1.65124,1.42345 2.39127,1.79347 0.53473,0.26735 1.21352,-0.14499 1.79348,0 0.41082,0.1027 5.21772,2.22862 5.38041,2.39129 0.14089,0.14091 -0.17825,0.50871 0,0.59782 0.80907,0.40454 4.19293,1.43805 5.08148,1.79347 0.68601,0.2744 1.67751,-0.20393 2.39131,0 1.03182,0.29481 1.95728,0.90084 2.9891,1.19565 0.91935,0.26267 2.43197,-0.8764 4.18476,0 1.43533,0.71766 2.83051,1.71416 4.18475,2.39129 1.22243,0.61121 2.98913,1.19984 2.98913,1.19564 0,-0.19927 -0.79711,0 -0.59782,0 1.48989,0 7.78978,1.20469 8.96733,1.79347 0.75745,0.37872 1.82608,-0.40941 2.39131,-0.59782 2.91462,-0.97154 12.47082,0 15.84229,0 1.5942,0 -0.19928,-0.19927 0.59783,0.59782 0.10562,0.10564 13.22663,0 13.74992,0 1.59419,0 -0.19926,-0.19927 0.59783,0.59783 0.2818,0.28181 0.91381,-0.28182 1.19565,0 0.8323,0.8323 -0.37777,0.9756 0.59782,0"
       id="path1573" />
    <path
       style="fill:none;stroke:#dd16c9;stroke-width:1.05833333;stroke-linecap:butt;stroke-linejoin:miter;stroke-opacity:1;stroke-miterlimit:4;stroke-dasharray:none"
       d="m 112.56662,256.61213 c 0.41781,-0.21466 -0.006,-0.53164 1.64518,0.1093 0.16444,0.0638 -0.17639,0.52917 0,0.52917 0.1764,0 -0.17639,-0.52917 0,-0.52917 0.24945,0 0.27972,0.52917 0.52917,0.52917 0.75538,0 -1.41991,-0.60055 -2.17435,-0.63847"
       id="path1575" />
  </g>
</svg>
