<?xml version="1.0" encoding="UTF-8" standalone="no"?>
<svg
   xmlns:dc="http://purl.org/dc/elements/1.1/"
   xmlns:cc="http://creativecommons.org/ns#"
   xmlns:rdf="http://www.w3.org/1999/02/22-rdf-syntax-ns#"
   xmlns:svg="http://www.w3.org/2000/svg"
   xmlns="http://www.w3.org/2000/svg"
   xmlns:sodipodi="http://sodipodi.sourceforge.net/DTD/sodipodi-0.dtd"
   xmlns:inkscape="http://www.inkscape.org/namespaces/inkscape"
   width="451.55557mm"
   height="300.91943mm"
   viewBox="0 0 451.55557 300.91943"
   version="1.1"
   id="svg8"
   inkscape:version="1.0.2 (e86c8708, 2021-01-15)"
   sodipodi:docname="52.svg">
  <defs
     id="defs2" />
  <sodipodi:namedview
     id="base"
     pagecolor="#ffffff"
     bordercolor="#666666"
     borderopacity="1.0"
     inkscape:pageopacity="0.0"
     inkscape:pageshadow="2"
     inkscape:zoom="0.99618995"
     inkscape:cx="853.33338"
     inkscape:cy="568.66663"
     inkscape:document-units="mm"
     inkscape:current-layer="layer1"
     inkscape:document-rotation="0"
     showgrid="false"
     fit-margin-top="0"
     fit-margin-left="0"
     fit-margin-right="0"
     fit-margin-bottom="0"
     inkscape:window-width="2560"
     inkscape:window-height="1323"
     inkscape:window-x="1680"
     inkscape:window-y="25"
     inkscape:window-maximized="1" />
  <metadata
     id="metadata5">
    <rdf:RDF>
      <cc:Work
         rdf:about="">
        <dc:format>image/svg+xml</dc:format>
        <dc:type
           rdf:resource="http://purl.org/dc/dcmitype/StillImage" />
        <dc:title></dc:title>
      </cc:Work>
    </rdf:RDF>
  </metadata>
  <g
     inkscape:label="Layer 1"
     inkscape:groupmode="layer"
     id="layer1"
     transform="translate(-342.69839,-185.18314)">
    <path
       style="fill:none;stroke:#dd16c9;stroke-width:1.05833333;stroke-linecap:butt;stroke-linejoin:miter;stroke-opacity:1;stroke-miterlimit:4;stroke-dasharray:none"
       d="m 489.83816,391.81625 c 0.19311,-2.09395 -0.0756,-3.79397 -1.32797,-5.04631 -0.66756,-0.66756 0,-6.33414 0,-7.17107 0,-0.76852 -0.26699,-0.26978 -0.53119,-1.06238 -0.34888,-1.04662 1.19559,-4.6475 0.26559,-5.5775 -1.69271,-1.69271 -1.97663,-5.07438 -2.92155,-7.43667 -0.55943,-1.39859 -2.11901,-1.05088 -2.65595,-2.12476 -0.62022,-1.24045 -1.46595,-10.34785 -1.06238,-11.155 0.61929,-1.23857 4.61157,-3.38004 5.5775,-5.31191 0.39135,-0.78269 -0.3045,-0.45337 0,-1.06238 0.19355,-0.38709 3.0242,-4.43365 3.71834,-4.78071 5.4641,-2.73206 6.94199,8.46253 9.03023,6.37428 0.12278,-0.12277 -0.0802,-0.63642 0,-0.79678 0.95705,-1.9141 1.55681,-4.47836 2.92155,-5.8431 0.31686,-0.31685 -0.21468,-1.42979 0,-1.85917 0.74968,-1.49936 2.08948,-7.50723 1.85917,-7.96785 -1.17699,-2.35399 -5.31191,-2.98661 -5.31191,-5.31191 0,-8.24578 6.52214,-7.49687 7.70227,-12.21738 0.37415,-1.49663 -0.2656,-3.09143 -0.2656,-4.51512 0,-1.39623 0.51994,-3.98768 -1.06238,-4.51512 -2.4916,-0.83053 -3.04131,2.05185 -3.71833,2.39036 -0.70268,0.35134 -1.47018,0.0948 -2.12477,0.53119 -1.1026,0.73507 -1.45036,3.30953 -2.39035,4.24952 -0.37697,0.37697 -1.63335,0.63298 -2.12476,0.79679 -0.80431,0.2681 -3.92305,3.33096 -4.24953,3.98393 -0.482,0.964 -0.55168,2.94204 -1.32798,3.71833 -0.50751,0.50751 -0.54239,0.5424 -1.32797,1.32798 -0.19895,0.19894 -1.53902,0.29107 -1.85917,0.53119 -1.52588,1.14441 -3.32239,4.91596 -4.51512,6.10869 -1.07633,1.07633 -3.98097,0.79383 -4.78071,1.59357 -2.14617,2.14617 -5.12507,3.00617 -8.23346,4.24953 -1.90145,0.76058 -1.87784,2.67463 -2.92154,3.71833 -0.0339,0.0339 -1.58995,1.32797 -1.32798,1.32797 1.06935,0 -3.5165,1.82202 -4.78072,3.71834 -0.6796,1.01941 -1.50114,3.17545 -1.85916,4.24952 -0.0494,0.14831 -2.51102,2.07624 -2.65596,2.65596 -0.65778,2.63115 0.24585,8.25321 -1.85916,10.35821 -0.83896,0.83896 -2.20446,0.67286 -3.18715,1.32798 -0.42461,0.28308 -0.89089,1.55802 -1.59357,1.85916 -2.88025,1.2344 -5.1371,1.24058 -7.96785,2.65596 -1.69649,0.84824 -4.78022,-0.46492 -6.63989,0 -2.24821,0.56205 -4.95077,1.11907 -7.17107,1.85916 -1.52224,0.50742 -3.46056,-0.31715 -5.04631,0 -1.14617,0.22924 -2.27134,0.59989 -3.45274,0.79679 -3.86598,0.64433 -9.12198,-1.65152 -12.48297,-0.53119 -1.66664,0.55555 -3.24759,1.52519 -5.04631,2.12476 -1.89335,0.63112 -4.16918,0.67448 -6.10869,1.06238 -1.33325,0.26665 -3.02882,1.78001 -4.24953,2.39036 -3.24057,1.62029 -6.49412,2.73584 -9.56143,4.78071 -0.64933,0.43289 -2.16707,0.51386 -2.92154,0.79679 -0.84464,0.31674 -1.60554,1.29926 -2.39036,1.59357 -2.5004,0.93765 -4.81784,1.63069 -6.63988,3.45274 -1.16388,1.16388 -3.73412,0.67188 -5.04631,1.32798 -2.63571,1.31785 -5.8234,3.69863 -7.96786,5.84309 -0.7426,0.7426 -2.48287,0.84304 -3.45274,1.32798 -0.94891,0.47445 -1.80966,1.22445 -2.65595,1.85917 -2.08476,1.56356 -5.0749,1.88775 -6.90548,3.71833"
       id="path887" />
    <path
       style="fill:none;stroke:#dd16c9;stroke-width:1.05833333;stroke-linecap:butt;stroke-linejoin:miter;stroke-opacity:1;stroke-miterlimit:4;stroke-dasharray:none"
       d="m 481.33912,352.24256 c -0.44266,-0.88532 -0.81873,-1.80719 -1.32798,-2.65595 -1.8e-4,-2.7e-4 -1.70442,1.64899 -2.12476,1.85916 -0.98701,0.49351 -3.9889,0 -5.04631,0 -4.06669,0 -2.5365,2.06059 -6.10869,2.65596 -4.73612,0.78935 -3.41296,-0.44963 -7.70227,-1.06239 -0.88475,-0.12639 -2.33091,0.79679 -3.45274,0.79679"
       id="path889" />
  </g>
</svg>
