<?xml version="1.0" encoding="UTF-8" standalone="no"?>
<svg
   xmlns:dc="http://purl.org/dc/elements/1.1/"
   xmlns:cc="http://creativecommons.org/ns#"
   xmlns:rdf="http://www.w3.org/1999/02/22-rdf-syntax-ns#"
   xmlns:svg="http://www.w3.org/2000/svg"
   xmlns="http://www.w3.org/2000/svg"
   xmlns:sodipodi="http://sodipodi.sourceforge.net/DTD/sodipodi-0.dtd"
   xmlns:inkscape="http://www.inkscape.org/namespaces/inkscape"
   width="451.55557mm"
   height="338.66666mm"
   viewBox="0 0 451.55557 338.66666"
   version="1.1"
   id="svg8"
   inkscape:version="1.0.2 (e86c8708, 2021-01-15)"
   sodipodi:docname="14.svg">
  <defs
     id="defs2" />
  <sodipodi:namedview
     id="base"
     pagecolor="#ffffff"
     bordercolor="#666666"
     borderopacity="1.0"
     inkscape:pageopacity="0.0"
     inkscape:pageshadow="2"
     inkscape:zoom="0.88515628"
     inkscape:cx="853.33336"
     inkscape:cy="639.99998"
     inkscape:document-units="mm"
     inkscape:current-layer="layer1"
     inkscape:document-rotation="0"
     showgrid="false"
     fit-margin-top="0"
     fit-margin-left="0"
     fit-margin-right="0"
     fit-margin-bottom="0"
     inkscape:window-width="2560"
     inkscape:window-height="1323"
     inkscape:window-x="1680"
     inkscape:window-y="25"
     inkscape:window-maximized="1" />
  <metadata
     id="metadata5">
    <rdf:RDF>
      <cc:Work
         rdf:about="">
        <dc:format>image/svg+xml</dc:format>
        <dc:type
           rdf:resource="http://purl.org/dc/dcmitype/StillImage" />
        <dc:title></dc:title>
      </cc:Work>
    </rdf:RDF>
  </metadata>
  <g
     inkscape:label="Layer 1"
     inkscape:groupmode="layer"
     id="layer1"
     transform="translate(191.00398,39.309517)">
    <path
       style="fill:none;stroke:#dd16c9;stroke-width:1.05833333;stroke-linecap:butt;stroke-linejoin:miter;stroke-opacity:1;stroke-miterlimit:4;stroke-dasharray:none"
       d="m -71.140495,110.1462 c -0.648415,-5.93165 -2.871036,-5.49849 1.793467,-10.162989 0.708338,-0.70834 1.229662,-2.258846 2.092381,-2.690204 4.534469,-2.267233 10.254541,-3.218905 14.945571,-4.782582 1.856272,-0.618757 3.972029,0.554733 5.679319,-0.298913 2.19657,-1.098285 4.313518,-2.306214 6.277139,-3.288025 0.978847,-0.489423 2.577451,0.03758 3.586937,-0.29891 1.128057,-0.376021 2.4261,-0.914141 3.586938,-1.494557 0.516197,-0.258101 1.155755,-1.368327 1.793467,-1.79347 2.325429,-1.550284 2.807036,-0.714656 5.081495,-2.989115 0.938239,-0.938239 0.692529,-2.485996 1.494557,-3.288024 1.342237,-1.342239 2.885464,-0.793084 3.885848,-1.79347 0.696476,-0.696474 4.118952,0.320849 5.081495,0 1.579425,-0.526476 9.8029397,-2.927975 9.864077,-2.989115 0.7357983,-0.735795 1.511374,-1.799074 2.3912909,-2.092378 1.2416472,-0.413882 5.7190401,-1.235368 6.2771416,-1.79347 0.5093255,-0.509325 1.324983,-1.324983 1.7934675,-1.793467 0.6711527,-0.671156 5.785146,-1.687642 4.1847611,-3.288028 -0.7625609,-0.762561 -2.6821024,-1.486455 -4.1847611,-2.989114 -0.00902,-0.009 -1.7934675,-1.258006 -1.7934675,-1.195644 0,0.12845 1.4010772,-0.849995 1.4945571,-0.896736 1.4554994,-0.727748 4.7537819,0.163856 5.6793156,-0.298911 1.9930688,-0.996534 14.9940718,-1.841968 15.2444848,-2.09238 1.448432,-1.448433 6.896348,-1.515944 8.66843,-3.288025 1.741601,-1.741601 2.728386,-2.260925 5.380407,-3.586938 0.666671,-0.333335 0.781767,-2.276324 2.092378,-3.586937"
       id="path883" />
    <path
       style="fill:none;stroke:#dd16c9;stroke-width:1.05833327;stroke-linecap:butt;stroke-linejoin:miter;stroke-opacity:1;stroke-miterlimit:4;stroke-dasharray:4.23333308, 4.23333308000000041;stroke-dashoffset:0"
       d="m 41.250199,47.374798 c 6.463199,3.186371 14.377789,-0.807109 20.027069,-2.690202 1.933278,-0.644427 4.12873,-0.868719 5.978228,-1.79347 0.835446,-0.417721 1.517595,-1.801146 2.391294,-2.09238 2.242132,-0.747377 3.779694,-2.121247 5.978239,-3.586935 2.544286,-1.696199 6.669643,-1.357689 9.565164,-3.288028 1.126384,-0.750922 1.92442,-1.410578 3.288003,-2.09238 0.661855,-0.330923 1.735958,0.02877 2.391304,-0.298911 1.509554,-0.754782 2.818765,-2.135235 4.483682,-2.690204 0.754592,-0.251531 1.94519,-0.151728 2.391278,-0.59782 0.948981,-0.948968 3.61662,-2.500818 5.08151,-2.989115 1.37808,-0.459367 3.71718,-0.429175 4.78258,-1.494557 0.55393,-0.553955 1.0546,-1.353515 1.49455,-1.79347 1.05445,-1.054439 3.74923,-1.357942 4.78258,-2.391291 0.14277,-0.14278 0.16037,-1.516353 0.2989,-1.793467"
       id="path885" />
  </g>
</svg>
