<?xml version="1.0" encoding="UTF-8" standalone="no"?>
<svg
   xmlns:dc="http://purl.org/dc/elements/1.1/"
   xmlns:cc="http://creativecommons.org/ns#"
   xmlns:rdf="http://www.w3.org/1999/02/22-rdf-syntax-ns#"
   xmlns:svg="http://www.w3.org/2000/svg"
   xmlns="http://www.w3.org/2000/svg"
   xmlns:sodipodi="http://sodipodi.sourceforge.net/DTD/sodipodi-0.dtd"
   xmlns:inkscape="http://www.inkscape.org/namespaces/inkscape"
   width="338.66666mm"
   height="451.55557mm"
   viewBox="0 0 338.66666 451.55557"
   version="1.1"
   id="svg8"
   inkscape:version="1.0.2 (e86c8708, 2021-01-15)"
   sodipodi:docname="03.svg">
  <defs
     id="defs2" />
  <sodipodi:namedview
     id="base"
     pagecolor="#ffffff"
     bordercolor="#666666"
     borderopacity="1.0"
     inkscape:pageopacity="0.0"
     inkscape:pageshadow="2"
     inkscape:zoom="0.66386716"
     inkscape:cx="639.99998"
     inkscape:cy="853.33338"
     inkscape:document-units="mm"
     inkscape:current-layer="layer1"
     inkscape:document-rotation="0"
     showgrid="false"
     fit-margin-top="0"
     fit-margin-left="0"
     fit-margin-right="0"
     fit-margin-bottom="0"
     inkscape:window-width="2560"
     inkscape:window-height="1323"
     inkscape:window-x="1680"
     inkscape:window-y="25"
     inkscape:window-maximized="1" />
  <metadata
     id="metadata5">
    <rdf:RDF>
      <cc:Work
         rdf:about="">
        <dc:format>image/svg+xml</dc:format>
        <dc:type
           rdf:resource="http://purl.org/dc/dcmitype/StillImage" />
        <dc:title></dc:title>
      </cc:Work>
    </rdf:RDF>
  </metadata>
  <g
     inkscape:label="Layer 1"
     inkscape:groupmode="layer"
     id="layer1"
     transform="translate(138.33928,237.11707)">
    <rect
       style="fill:#ffffff;fill-opacity:0.7;stroke:none;stroke-width:0.705556;stroke-miterlimit:4;stroke-dasharray:2.11667, 2.11667;stroke-dashoffset:0;stroke-opacity:1"
       id="rect923"
       width="68.948906"
       height="12.753555"
       x="-12.397922"
       y="-113.16845" />
    <rect
       style="fill:#ffffff;fill-opacity:0.69999999;stroke:none;stroke-width:0.705556;stroke-miterlimit:4;stroke-dasharray:2.11667, 2.11667000000000005;stroke-dashoffset:0;stroke-opacity:1"
       id="rect917"
       width="79.311172"
       height="14.746299"
       x="-46.274551"
       y="-168.16817" />
    <path
       style="fill:none;stroke:#dd16c9;stroke-width:0.70555556;stroke-linecap:butt;stroke-linejoin:miter;stroke-opacity:1;stroke-miterlimit:4;stroke-dasharray:none"
       d="m -18.7747,214.03995 c 8.9159262,-2.25036 12.4750826,-9.38342 18.73178515,-14.74629 3.00915915,-2.57929 6.16090755,-4.9961 9.16661915,-7.57243 3.8566087,-3.30568 8.4825047,-4.85986 11.9564567,-8.76808 3.810183,-4.28646 6.912028,-9.70187 10.760814,-13.55063 6.604706,-6.60472 12.977336,-13.74886 16.340491,-22.71729 2.620891,-6.98904 2.288477,-10.88236 4.384035,-18.33324 1.837214,-6.5323 4.1276,-13.05168 5.978229,-19.52887 1.060926,-3.71324 0.413072,-8.40221 1.992743,-11.956467 2.475117,-5.569003 7.283593,-11.19968 8.76807,-17.137592 2.113211,-8.452829 5.347229,-14.67993 9.166616,-22.318715 0.859965,-1.719924 1.057278,-3.497289 1.992744,-5.181124 1.067877,-1.922197 2.609845,-3.625506 3.586938,-5.579692 2.519254,-5.038513 2.666412,-11.201214 4.782581,-16.340481 0.884833,-2.148893 2.625294,-3.86262 3.586938,-5.978236 7.531666,-16.5696611 -8.787074,-11.130849 -1.594194,-21.9201737 0.485386,-0.7280804 -0.08512,-2.61959983 0.39855,-3.5869376 2.223767,-4.4475347 8.266993,-10.5193707 13.550654,-14.7462977 1.52492,-1.219933 4.19397,-3.206808 4.78258,-4.384035"
       id="path883" />
    <path
       style="fill:none;stroke:#dd16c9;stroke-width:0.70555558;stroke-linecap:butt;stroke-linejoin:miter;stroke-opacity:1;stroke-miterlimit:4;stroke-dasharray:2.11666673,2.11666673;stroke-dashoffset:0"
       d="m 109.55795,-20.306634 c 1.02924,-1.182772 7.57242,-5.879435 7.57242,-7.970969 0,-7.26309 -11.57755,-19.010577 -18.333232,-23.514367 -2.095396,-1.396932 -3.345299,-4.939493 -5.181131,-6.775326 -1.794735,-1.794735 -4.624464,-2.233173 -6.376779,-3.985485 -1.030851,-1.030851 -3.517553,-3.82951 -5.181131,-4.384034 -5.33223,-1.777413 -11.04355,0.702849 -15.543395,-0.7971 -0.279532,-0.09318 -0.758097,-0.976871 -1.195647,-1.195644"
       id="path887" />
    <path
       style="fill:none;stroke:#dd16c9;stroke-width:0.70555556;stroke-linecap:butt;stroke-linejoin:miter;stroke-opacity:1;stroke-miterlimit:4;stroke-dasharray:none"
       d="m 65.319052,-68.929562 c -4.692181,-6.564082 -3.666601,-12.354793 -5.181128,-19.927427 -0.354558,-1.772793 0.437893,-3.82811 0,-5.579681 -2.887078,-11.54831 1.511442,-24.25439 -3.586938,-35.47082 -2.199304,-4.83848 -5.133443,-9.40053 -9.565166,-12.35501 -0.848252,-0.5655 -2.486174,-1.29053 -3.188388,-1.99275 -0.979776,-0.97977 -1.444096,-2.63974 -2.391291,-3.58693 -1.114722,-1.11472 -4.095695,-2.61171 -4.782585,-3.98549 -2.105726,-4.21145 -3.300452,-9.50281 -4.782581,-13.9492 -0.867098,-2.60129 -4.459899,-5.54798 -5.978232,-7.57242 -1.084244,-1.44566 -1.723329,-6.36564 -2.391291,-8.36952 -0.820158,-2.46048 0.88138,-4.63688 1.594194,-6.77533 0.970569,-2.9117 -0.398547,-6.71713 -0.398547,-9.56517"
       id="path889" />
    <text
       xml:space="preserve"
       style="font-style:normal;font-weight:normal;font-size:10.5833px;line-height:1.25;font-family:sans-serif;fill:#000000;fill-opacity:1;stroke:none;stroke-width:0.264583"
       x="-44.281807"
       y="-157.0088"
       id="text911"><tspan
         sodipodi:role="line"
         x="-44.281807"
         y="-157.0088"
         style="font-style:normal;font-variant:normal;font-weight:normal;font-stretch:normal;font-family:Lato;-inkscape-font-specification:Lato;stroke-width:0.264583"
         id="tspan913">“Weiberschreck”</tspan></text>
    <text
       xml:space="preserve"
       style="font-size:10.5833px;line-height:1.25;font-family:Lato;-inkscape-font-specification:Lato;stroke-width:0.264583"
       x="-10.803732"
       y="-103.20475"
       id="text921"><tspan
         sodipodi:role="line"
         id="tspan919"
         x="-10.803732"
         y="-103.20475"
         style="stroke-width:0.264583">The crux pitch</tspan></text>
  </g>
</svg>
