<?xml version="1.0" encoding="UTF-8" standalone="no"?>
<svg
   xmlns:dc="http://purl.org/dc/elements/1.1/"
   xmlns:cc="http://creativecommons.org/ns#"
   xmlns:rdf="http://www.w3.org/1999/02/22-rdf-syntax-ns#"
   xmlns:svg="http://www.w3.org/2000/svg"
   xmlns="http://www.w3.org/2000/svg"
   xmlns:sodipodi="http://sodipodi.sourceforge.net/DTD/sodipodi-0.dtd"
   xmlns:inkscape="http://www.inkscape.org/namespaces/inkscape"
   width="451.55557mm"
   height="338.66666mm"
   viewBox="0 0 451.55557 338.66666"
   version="1.1"
   id="svg911"
   inkscape:version="1.0.2 (e86c8708, 2021-01-15)"
   sodipodi:docname="20.svg">
  <defs
     id="defs905" />
  <sodipodi:namedview
     id="base"
     pagecolor="#ffffff"
     bordercolor="#666666"
     borderopacity="1.0"
     inkscape:pageopacity="0.0"
     inkscape:pageshadow="2"
     inkscape:zoom="0.96250003"
     inkscape:cx="853.33337"
     inkscape:cy="639.99998"
     inkscape:document-units="mm"
     inkscape:current-layer="layer1"
     inkscape:document-rotation="0"
     showgrid="false"
     fit-margin-top="0"
     fit-margin-left="0"
     fit-margin-right="0"
     fit-margin-bottom="0"
     inkscape:window-width="2560"
     inkscape:window-height="1440"
     inkscape:window-x="1920"
     inkscape:window-y="0"
     inkscape:window-maximized="0" />
  <metadata
     id="metadata908">
    <rdf:RDF>
      <cc:Work
         rdf:about="">
        <dc:format>image/svg+xml</dc:format>
        <dc:type
           rdf:resource="http://purl.org/dc/dcmitype/StillImage" />
        <dc:title></dc:title>
      </cc:Work>
    </rdf:RDF>
  </metadata>
  <g
     inkscape:label="Layer 1"
     inkscape:groupmode="layer"
     id="layer1"
     transform="translate(199.31946,2.2678521)">
    <path
       style="fill:none;stroke:#dd16c9;stroke-width:1.05833333;stroke-linecap:butt;stroke-linejoin:miter;stroke-opacity:1;stroke-miterlimit:4;stroke-dasharray:none"
       d="m 62.102607,115.11093 c 1.018466,1.59038 2.875963,4.01713 2.199135,6.04762 -0.359744,1.07923 -3.485917,1.00952 -4.398269,1.37446 -2.342134,0.93685 -2.311546,4.56075 -1.924244,4.94805 2.780501,2.7805 5.383141,-1.98432 7.422092,-2.74892 2.380086,-0.89254 4.084664,0.47158 6.047608,1.64935 0.851032,0.51062 1.158795,1.88631 1.374457,2.74892 0.306229,1.22487 1.962388,1.84006 2.199137,3.02381 0.95049,4.75251 -1.559798,6.09085 1.924236,10.44589 0.606186,0.75771 0.804703,1.91924 1.924235,2.19913 1.062328,0.26558 2.311638,-0.0281 3.298719,-0.27489 0.923052,-0.23077 9.831308,-0.50776 10.99566,-0.27489 1.934501,0.3869 3.794654,0.2672 5.772732,0.54978 3.823015,0.54615 7.286255,1.5809 10.995655,2.19914 1.73197,0.28865 5.45264,3.97462 8.24678,4.67315 5.98503,1.49627 13.16206,1.71917 18.41775,5.22295 1.27352,0.84902 2.39299,2.31489 3.57357,3.2987 0.83174,0.6931 2.01681,0.91724 2.74894,1.64935 1.2492,1.24921 0.63137,3.00148 2.74891,3.84849 0.88519,0.35407 2.10624,0.32039 3.02379,0.54978 2.56093,0.64023 7.57804,4.41386 10.17101,4.67316 2.46602,0.2466 5.04351,-1.22937 7.42206,-0.54979 2.40665,0.68762 4.22278,2.50716 6.59742,3.29871 1.47174,0.49057 3.27916,0.0851 4.67315,0.54978 1.12582,0.37527 1.89105,1.16388 3.02381,1.64935 1.6935,0.72578 3.57257,0.16452 5.22296,0.82468 1.96712,0.78685 3.7144,2.06281 5.77273,2.74891 1.22409,0.40804 2.39474,-0.0198 3.57357,0.2749 2.25676,0.56418 4.40206,1.84624 6.87231,2.19913 1.93067,0.27581 3.86562,0.25255 5.77273,0.82467 3.04242,0.91273 5.94596,3.18291 9.07143,3.5736 2.73584,0.34198 5.54725,-0.26501 8.24674,0.27489 4.95398,0.99079 9.84322,3.40896 14.84416,4.12338 3.28827,0.46975 8.79192,-0.5521 10.99566,0.54978"
       id="path1528" />
  </g>
</svg>
