<?xml version="1.0" encoding="UTF-8" standalone="no"?>
<svg
   xmlns:dc="http://purl.org/dc/elements/1.1/"
   xmlns:cc="http://creativecommons.org/ns#"
   xmlns:rdf="http://www.w3.org/1999/02/22-rdf-syntax-ns#"
   xmlns:svg="http://www.w3.org/2000/svg"
   xmlns="http://www.w3.org/2000/svg"
   xmlns:sodipodi="http://sodipodi.sourceforge.net/DTD/sodipodi-0.dtd"
   xmlns:inkscape="http://www.inkscape.org/namespaces/inkscape"
   width="338.66666mm"
   height="451.55557mm"
   viewBox="0 0 338.66666 451.55557"
   version="1.1"
   id="svg8"
   inkscape:version="1.0.2 (e86c8708, 2021-01-15)"
   sodipodi:docname="16.svg">
  <defs
     id="defs2" />
  <sodipodi:namedview
     id="base"
     pagecolor="#ffffff"
     bordercolor="#666666"
     borderopacity="1.0"
     inkscape:pageopacity="0.0"
     inkscape:pageshadow="2"
     inkscape:zoom="0.66386716"
     inkscape:cx="639.99997"
     inkscape:cy="853.33336"
     inkscape:document-units="mm"
     inkscape:current-layer="layer1"
     inkscape:document-rotation="0"
     showgrid="false"
     fit-margin-top="0"
     fit-margin-left="0"
     fit-margin-right="0"
     fit-margin-bottom="0"
     inkscape:window-width="2560"
     inkscape:window-height="1323"
     inkscape:window-x="1680"
     inkscape:window-y="25"
     inkscape:window-maximized="1" />
  <metadata
     id="metadata5">
    <rdf:RDF>
      <cc:Work
         rdf:about="">
        <dc:format>image/svg+xml</dc:format>
        <dc:type
           rdf:resource="http://purl.org/dc/dcmitype/StillImage" />
        <dc:title></dc:title>
      </cc:Work>
    </rdf:RDF>
  </metadata>
  <g
     inkscape:label="Layer 1"
     inkscape:groupmode="layer"
     id="layer1"
     transform="translate(140.60713,44.349216)">
    <path
       style="fill:none;stroke:#dd16c9;stroke-width:1.05833333;stroke-linecap:butt;stroke-linejoin:miter;stroke-opacity:1;stroke-miterlimit:4;stroke-dasharray:none"
       d="m -72.056769,406.40926 c -11.189097,-11.38727 -22.167551,-22.96464 -33.478081,-34.27518 -5.75065,-5.75064 -10.06424,-13.85975 -15.14485,-20.32598 -8.4875,-10.80228 -11.15936,-9.73593 -11.15936,-25.50711 0,-1.95191 -0.26737,-4.20412 0.7971,-5.97823 1.09012,-1.81689 16.40358,-3.00805 18.33323,-3.58693 8.84396,-2.65319 18.068014,-5.53006 26.70276,-8.76808 2.201539,-0.82558 4.276706,-2.25502 6.376775,-3.18839 9.784112,-4.3485 13.194475,-1.94606 21.521626,-12.35501 3.459719,-4.32464 4.325483,-10.30372 8.36952,-14.34774 1.523309,-1.52331 3.732255,-1.99319 5.181132,-3.58693 2.64641,-2.91105 4.284453,-5.95837 7.572425,-8.36954 2.930683,-2.14916 7.913544,-3.13095 10.362263,-5.57967 3.340103,-3.3401 6.254499,-7.45016 9.565166,-10.76081 4.588156,-4.58817 5.099942,-13.5894 10.3622635,-17.53614 4.670753,-3.50308 9.7587989,-3.78433 15.1448477,-5.57969 5.9486508,-1.98289 11.8592708,-3.66228 17.9346858,-5.18112 3.158022,-0.78952 6.836278,0.3833 9.963716,-0.39857 4.746667,-1.18665 9.702628,-2.03855 14.347748,-3.58692 7.632689,-2.54423 17.455623,-18.57076 21.123076,-25.90566 2.287061,-4.57412 10.387796,-4.40957 13.949201,-7.97097 1.65903,-1.65903 7.321532,-9.06339 8.369523,-11.15937 3.289733,-6.57946 3.382552,-23.53481 1.594193,-30.68824 -0.846071,-3.38428 0.685314,-7.33424 0,-10.76081 -0.734933,-3.67466 -1.594193,-4.89229 -1.594193,-8.76807 0,-2.80676 2.419971,-7.88493 1.594193,-10.36227 -1.044953,-3.13486 -2.607227,-16.30716 -1.195646,-19.130328 1.329195,-2.658387 1.462791,-3.705333 1.195646,-6.376775 -0.620217,-6.202175 -1.203795,-12.778007 -3.188387,-18.731786 -1.06697,-3.200902 -2.6338,-5.908654 -3.586938,-8.768069 -0.763998,-2.291993 -0.395089,-5.974768 -1.992744,-7.572423 -0.05278,-0.05278 -0.848056,-11.015601 -1.195647,-12.753556 -0.686794,-3.433972 -3.75495,-5.685174 -4.782581,-8.76807 -1.98432,-5.952955 1.93485,-14.122878 0.398547,-18.731782 C 79.463359,5.2857939 69.901395,-11.032976 64.645399,-13.660973 61.212335,-15.377505 55.749528,-14.45807 51.891845,-14.45807"
       id="path885" />
  </g>
</svg>
