<?xml version="1.0" encoding="UTF-8" standalone="no"?>
<svg
   xmlns:dc="http://purl.org/dc/elements/1.1/"
   xmlns:cc="http://creativecommons.org/ns#"
   xmlns:rdf="http://www.w3.org/1999/02/22-rdf-syntax-ns#"
   xmlns:svg="http://www.w3.org/2000/svg"
   xmlns="http://www.w3.org/2000/svg"
   xmlns:sodipodi="http://sodipodi.sourceforge.net/DTD/sodipodi-0.dtd"
   xmlns:inkscape="http://www.inkscape.org/namespaces/inkscape"
   width="451.55557mm"
   height="338.66666mm"
   viewBox="0 0 451.55557 338.66666"
   version="1.1"
   id="svg8"
   inkscape:version="1.0.2 (e86c8708, 2021-01-15)"
   sodipodi:docname="2.svg">
  <defs
     id="defs2" />
  <sodipodi:namedview
     id="base"
     pagecolor="#ffffff"
     bordercolor="#666666"
     borderopacity="1.0"
     inkscape:pageopacity="0.0"
     inkscape:pageshadow="2"
     inkscape:zoom="0.93167381"
     inkscape:cx="937.53625"
     inkscape:cy="670.02305"
     inkscape:document-units="mm"
     inkscape:current-layer="layer1"
     inkscape:document-rotation="0"
     showgrid="false"
     fit-margin-top="0"
     fit-margin-left="0"
     fit-margin-right="0"
     fit-margin-bottom="0"
     inkscape:window-width="2560"
     inkscape:window-height="1323"
     inkscape:window-x="1680"
     inkscape:window-y="25"
     inkscape:window-maximized="1" />
  <metadata
     id="metadata5">
    <rdf:RDF>
      <cc:Work
         rdf:about="">
        <dc:format>image/svg+xml</dc:format>
        <dc:type
           rdf:resource="http://purl.org/dc/dcmitype/StillImage" />
        <dc:title></dc:title>
      </cc:Work>
    </rdf:RDF>
  </metadata>
  <g
     inkscape:label="Layer 1"
     inkscape:groupmode="layer"
     id="layer1"
     transform="translate(73.075409,180.67261)">
    <path
       style="fill:none;stroke:#dd16c9;stroke-width:1.05833333;stroke-linecap:butt;stroke-linejoin:miter;stroke-opacity:1;stroke-miterlimit:4;stroke-dasharray:none"
       d="m 27.657743,118.53775 c 0.156414,-3.17289 3.987525,-20.421551 3.288025,-21.820562 -0.925214,-1.850416 -2.092378,-8.986493 -2.092378,-10.461889 0,-1.587871 -0.803021,-4.577384 -0.597823,-4.782582 2.889951,-2.889954 4.060661,-21.470911 2.989114,-23.614004 -2.182074,-4.364146 -11.033596,-9.019598 -7.771699,-15.543395 1.748475,-3.496948 3.772276,-4.576339 6.576052,-5.978229 2.101035,-1.050517 2.505202,-1.608468 3.885851,-2.989114 0.460229,-0.460232 3.63737,-1.071406 4.483671,-1.494557 1.406057,-0.70303 3.284916,-2.089269 4.782582,-3.586938 0.703149,-0.703148 3.112066,-0.210931 3.885848,-0.597823 0.93472,-0.46736 2.695991,-5.989804 3.288028,-7.173873 C 50.661205,19.922401 49.763318,5.2086887 49.478277,4.353566 48.721865,2.08433 48.069802,-1.5808318 46.788076,-3.7170432 45.455364,-5.9382255 42.317123,-8.0448988 40.212024,-9.0974484 39.814347,-9.2962854 39.813,-10.094293 39.6142,-10.293095 c -0.505269,-0.50527 1.632543,-1.931453 1.793471,-2.092378 1.487082,-1.487085 3.121252,-4.150127 4.184758,-6.277142"
       id="path883" />
    <path
       style="fill:none;stroke:#dd16c9;stroke-width:1.05833333;stroke-linecap:butt;stroke-linejoin:miter;stroke-opacity:1;stroke-miterlimit:4;stroke-dasharray:none"
       d="m 61.534469,126.60143 c 3.382386,-1.8926 3.285953,-5.78091 5.111768,-8.51961 1.208011,-1.81203 2.808748,-3.05126 3.691832,-5.11178 0.861288,-2.00967 0.641551,-3.98613 1.135949,-5.96374 0.979456,-3.91781 2.95502,-7.652327 4.543793,-11.359484 1.335788,-3.116844 3.275727,-3.559704 4.82778,-5.11175 0.483905,-0.483923 1.136158,-2.982621 1.419937,-3.97584 C 83.042424,83.8401 83.125143,78.720124 81.98154,76.051714 81.235174,74.310197 79.221227,72.155455 78.005721,70.939948 77.702405,70.636633 76.93243,70.55018 76.585784,70.087987 73.574931,66.073515 70.691156,61.844769 69.486108,57.02458 c -0.707109,-2.828436 -2.599637,-4.172302 -1.419936,-6.531703 0.08573,-0.171463 -0.131276,-0.720683 0,-0.851961 2.307037,-2.307037 3.50158,-5.466053 6.81569,-7.951639 4.911077,-3.683307 9.400402,-4.295841 13.915369,-9.939547 0.362955,-0.453696 3.159913,-2.948037 3.407843,-3.691831 1.187464,-3.562393 1.941174,-7.527444 3.123859,-11.075498 0.339958,-1.019879 1.439923,-2.067862 1.703922,-3.123856 0.710142,-2.840572 2.099852,-5.6113813 2.555883,-8.8036004 0.515562,-3.6089457 0.01762,-8.8564692 1.135952,-12.2114467 1.49847,-4.4954219 2.32431,-11.1060309 3.12386,-15.9032759 0.35027,-2.10167 -0.0842,-4.312499 -0.56798,-6.247715 -0.34261,-1.370464 0.20849,-12.685892 0.56798,-14.483341 0.87885,-4.394288 4.43932,-8.09633 7.09967,-11.643471 0.72229,-0.963052 0.60153,-2.021459 1.41994,-2.839871 0.7342,-0.734206 2.38824,-1.994794 2.83987,-3.123859 1.19258,-2.981454 0,-7.235351 0,-10.223534"
       id="path885" />
  </g>
</svg>
